<svg xmlns="http://www.w3.org/2000/svg" viewBox="0 0 348.64 256.4"><defs><style>.cls-1{fill:none;stroke:#000;stroke-miterlimit:10;stroke-width:1.5px;}.cls-2{fill:#d85d47;}</style></defs><g id="Capa_2" data-name="Capa 2"><g id="Layer_1" data-name="Layer 1"><path d="M252.74,2.46C242.59,2,231.43,4.33,225.06,12.94c-3.34,4.52-5.45,10-7.83,15.11-2.51,5.36-5,10.72-7.79,16A115.15,115.15,0,0,1,199,60.71a2.34,2.34,0,0,0,0,3.19,2.29,2.29,0,0,0,3.19,0c7-9.07,12.2-19.23,17.09-29.56,2.44-5.17,4.72-10.47,7.45-15.5a20.33,20.33,0,0,1,10.21-9.57c5-2.08,10.5-2.54,15.85-2.31,2.89.12,2.89-4.38,0-4.5Z"/><path d="M206,50a53.92,53.92,0,0,0-40.49,10.73A50.15,50.15,0,0,0,157,69.16l2.72-.35a54.32,54.32,0,0,0-46-1.27L117,68.88c-2.76-6.56-9.44-10.26-16.43-10.4-8-.17-15.25,4.42-21,9.58l3.54.45c-2.91-5-7-9.37-12.55-11.34-5.26-1.89-11.57-.93-15.62,3l3.53.46a20.34,20.34,0,0,0-20-9.29,20.26,20.26,0,0,0-16,14.4L24,64.21A21.34,21.34,0,0,0,16.68,101l.46-3.53a32.17,32.17,0,0,0-13.73,22,31.25,31.25,0,0,0,.77,13.19c.67,2.34,2.1,4.64,2.3,7.08.22,2.7-1.4,5.4-2.15,7.93a40.72,40.72,0,0,0-.9,17.74c.43,2.88,1,5.73,1.44,8.62a24.89,24.89,0,0,1,.43,5.29c-.31,2.51-1,5-1.55,7.52s-1.12,5.26-1.63,7.9q-1,5.1-1.63,10.24c-.34,2.64-1.3,5.91,1,7.94a4.55,4.55,0,0,0,6.4-.42,17.47,17.47,0,0,0,2.18-3.83c.73-1.51,1.38-3.06,2-4.63l-4.11.54c1.43,3.18,5.8,2.78,7.5.18,2.05-3.14,3.79-6.58,5.57-9.88a146.7,146.7,0,0,0,9.53-20.84,85.16,85.16,0,0,0,3.39-12.35c.55-2.83-3.78-4-4.33-1.2a98.66,98.66,0,0,1-8,23.45c-1.79,3.75-3.74,7.43-5.75,11.06-1,1.85-2.08,3.69-3.13,5.53a17.81,17.81,0,0,0-1.15,1.94s.15-.12.16-.1.43.62.13-.06c-.88-2-3.52-1.08-4.12.53-.42,1.14-.88,2.26-1.4,3.36S5,208.42,4.5,209.56c0,.07,0,0,0,0s-.07.08,0,0,.12-1,.16-1.42a160.58,160.58,0,0,1,2.63-16c.83-3.95,1.73-7.89,2.44-11.86a20.81,20.81,0,0,0-.31-6.19c-.36-2.75-.9-5.48-1.35-8.22a37.5,37.5,0,0,1,.27-15.61c.64-2.53,1.83-4.91,2.38-7.45a12.83,12.83,0,0,0-.86-7.68,29.14,29.14,0,0,1-2.28-11.76,27.83,27.83,0,0,1,11.87-22c1.09-.73,1.64-2.55.45-3.53a17.5,17.5,0,0,1-6.4-12.93,16.84,16.84,0,0,1,5.59-12.81A17.57,17.57,0,0,1,25,68.61c1.68-.61,1.71-1.88,2.3-3.33a15.71,15.71,0,0,1,13.56-9.64,15.82,15.82,0,0,1,13.72,7.3,2.28,2.28,0,0,0,3.54.45c3-3,7.78-3.29,11.59-1.76,4.2,1.7,7.28,5.34,9.51,9.15a2.27,2.27,0,0,0,3.53.46C87.45,67,93.35,63.09,99.89,63c5-.09,10.73,2.25,12.77,7.1a2.3,2.3,0,0,0,3.3,1.34,49.5,49.5,0,0,1,41.46,1.27,2.3,2.3,0,0,0,2.73-.35,49.34,49.34,0,0,1,33.56-18.19,47,47,0,0,1,11.12.21,2.33,2.33,0,0,0,2.77-1.57A2.27,2.27,0,0,0,206,50Z"/><path d="M17.67,116.23a28.48,28.48,0,0,0-2.14,12,29.5,29.5,0,0,0,.93,6.35,49.11,49.11,0,0,0,2.16,5.75,7.3,7.3,0,0,1,.54,5.28c-.55,1.68-1.5,3.2-2.15,4.83a8.86,8.86,0,0,0,2.34,10.23c3.64,3.18,8.45,3.35,13,3.23l-2.25-2.25.73,26.81c.11,4.18.56,8.6-.54,12.69a53,53,0,0,1-2.22,5.49,13.51,13.51,0,0,0-1,5.26,16.93,16.93,0,0,0,3.65,9.85,19.8,19.8,0,0,0,3.79,3.75c1.11.84,2.91,1.69,3.17,3.22.31,1.83-.48,4-.81,5.75a43.66,43.66,0,0,0-.84,6.54,17.11,17.11,0,0,0,2.8,10.62c2.21,3.07,5.63,5.18,9.51,4.75,3.6-.39,7-2.6,7.88-6.25L53,251.43a12.62,12.62,0,0,0,6.52,1.44,2.36,2.36,0,0,0,2.17-1.65,26.72,26.72,0,0,0-.07-18.77,12.69,12.69,0,0,1-1-4.24,14.85,14.85,0,0,1,1.08-4.52,34,34,0,0,0,1.83-8.52,32.07,32.07,0,0,0-3.26-16.34,31.42,31.42,0,0,0-4.78-7,5.36,5.36,0,0,1-1.75-3.06c-.11-1.54.67-3.18,1.09-4.64a51.87,51.87,0,0,0,1.27-22.27l-.58,2.19a57.39,57.39,0,0,0,13.72-22.45c.91-2.75-3.43-3.93-4.34-1.19a52.07,52.07,0,0,1-11.12,19c-.67.73-1.75,1.51-2,2.49s.18,2.34.28,3.35a48.15,48.15,0,0,1,.23,6.24,46.34,46.34,0,0,1-2,12.15c-.61,2-1.28,4.07-.94,6.21a9.72,9.72,0,0,0,2.7,4.91,27.53,27.53,0,0,1,5.26,8.49,28.27,28.27,0,0,1,1.8,10c0,3.72-1.06,7-2.17,10.52a13.72,13.72,0,0,0-.57,6.84c.43,2.22,1.46,4.27,2,6.46a21.77,21.77,0,0,1-1,13l2.17-1.65a8.11,8.11,0,0,1-4.25-.82,2.28,2.28,0,0,0-3.31,1.34c-.52,2.1-2.73,3.1-4.77,3-2.66-.12-4.62-2.39-5.6-4.69-1.37-3.19-1.12-6.82-.56-10.16.6-3.55,2.26-7.8.43-11.23a11.25,11.25,0,0,0-3.68-3.58,16,16,0,0,1-3.27-3.05,12.25,12.25,0,0,1-2.85-8.05c.15-3.44,2.53-6.4,3.25-9.73.84-3.86.63-7.84.52-11.76l-.76-28a2.27,2.27,0,0,0-2.25-2.25c-3.25.08-7.13.33-9.81-1.86a4.71,4.71,0,0,1-1.86-3.11A8.35,8.35,0,0,1,22,150.25a19.25,19.25,0,0,0,1.8-4.56,10.88,10.88,0,0,0-.51-5.76c-.62-1.74-1.48-3.38-2.05-5.14a24.06,24.06,0,0,1-1.12-5.3A25.45,25.45,0,0,1,22,117.42a2.25,2.25,0,0,0-1.57-2.76,2.31,2.31,0,0,0-2.77,1.57Z"/><path d="M60.54,247.07c-1.07,4.18,2.65,7.57,6.6,7.85,4.48.32,7.55-3.68,9-7.44,1.59-4.21,1.24-9,4-12.71,1.39-1.88,2.8-3.57,3.5-5.85a13.37,13.37,0,0,0,.15-6.59c-1.07-5.13-4.45-9.61-7.75-13.53l.58,2.18a65.81,65.81,0,0,0,.12-38.56l-2.17,2.85c6.82.23,9.4-7.89,10.19-13.3a36.54,36.54,0,0,0-3.08-20.76,2.25,2.25,0,1,0-3.88,2.27,31.9,31.9,0,0,1,2.7,16.6,21.67,21.67,0,0,1-1.81,7.23c-.82,1.67-2.06,3.53-4.12,3.46a2.27,2.27,0,0,0-2.17,2.85A61.34,61.34,0,0,1,75,193.31a59.84,59.84,0,0,1-1,9.62c-.31,1.57-.67,3.12-1.1,4.67-.2.72-.49,1.46-.64,2.19-.26,1.23.37,1.93,1.09,2.81,3.2,3.86,7.5,9.58,6,14.94-.79,2.79-3.27,4.67-4.48,7.26-1.34,2.88-1.64,6-2.35,9-.54,2.34-1.58,5.53-4.08,6.46A3,3,0,0,1,66,250c-.81-.45-1.25-1-1.07-1.72.71-2.81-3.63-4-4.34-1.2Z"/><path d="M82.69,149.13a16.79,16.79,0,0,0,14.35.71,16.45,16.45,0,0,0,6-4.11,16.26,16.26,0,0,0,1.17-1.46c.11-.15,1-1.16.9-1.36l0,0c-.68,0-.83.12-.43.3a3.58,3.58,0,0,0,.65.42c.63.39,1.28.77,1.94,1.12,4.72,2.46,10.68,4.07,15.87,2.14a12.75,12.75,0,0,0,3.28-1.79c.78-.59,1.84-2.08,2.86-2.18-.37,0,.14.07.23.11l.92.46c.68.33,1.37.65,2.07.95a50.14,50.14,0,0,0,4.79,1.81,39.9,39.9,0,0,0,10.54,2c2.81.09,6.1-1,6.8-4,.64-2.82-3.69-4-4.34-1.2-.1.43-.55.57-1.18.68a11.75,11.75,0,0,1-3.55-.18,44.34,44.34,0,0,1-8.8-2.22c-1.31-.48-2.59-1-3.85-1.63-1.45-.71-2.83-1.45-4.49-1.17-2.51.43-3.87,2.77-6.06,3.83-4,1.94-9.09.45-12.81-1.5-2.4-1.25-5.11-3.63-7.62-1.13-.77.77-1.21,1.8-1.91,2.63a11.16,11.16,0,0,1-2.21,2,12.57,12.57,0,0,1-12.93.92c-2.54-1.4-4.81,2.49-2.27,3.88Z"/><path d="M151.26,139.84c-2.23,8-3.62,16.73-1.55,24.94A28.09,28.09,0,0,0,152,170.7c.47.9,1.07,1.73,1.54,2.64s0,1.42-.52,2.24c-2.34,3.85-3.83,8.3-3.17,12.84a12.35,12.35,0,0,0,7.85,9.9,2.25,2.25,0,0,0,1.2-4.34c-2.79-1-4.52-4.1-4.7-6.95a13.91,13.91,0,0,1,1.06-6c.74-1.86,2.1-3.44,2.75-5.33.74-2.19-.22-4-1.34-5.87a22.11,22.11,0,0,1-2.21-4.91,31.45,31.45,0,0,1-1.14-11.13A60.86,60.86,0,0,1,155.6,141c.78-2.79-3.56-4-4.34-1.19Z"/><path d="M160.92,190.52a26.85,26.85,0,0,0-6.87,9.43c-1.8,4.17-2.31,8.58-2.63,13.09q-.51,7.13-1,14.27c-.27,3.89-.82,7.84-.21,11.73.54,3.51,2.44,7.06,6.18,7.84l-1.57-1.57a13.28,13.28,0,0,0,13.11,9.21,12.25,12.25,0,0,0,11.4-10.73,12.47,12.47,0,0,0-2.09-9.32l-.35,2.73A21.82,21.82,0,0,0,183,222.58a23.48,23.48,0,0,0-1.38-8c-.85-2.52-2.18-5.37-1.64-8.09s2.47-4.81,2.84-7.55a6.27,6.27,0,0,0-.65-3.83,9.39,9.39,0,0,0-1.12-1.55c-.25-.31-1-.94-1.08-1.37,0,.19.08-.13.24-.31.4-.48.81-.94,1.19-1.43a19.66,19.66,0,0,0,2.07-3.25,22.73,22.73,0,0,0,2.19-7.24,21.88,21.88,0,0,0-4-16,2.32,2.32,0,0,0-3.08-.81,2.27,2.27,0,0,0-.81,3.08,17.88,17.88,0,0,1,3.55,12.64,17.21,17.21,0,0,1-1.7,6,17.64,17.64,0,0,1-1.67,2.73,11.29,11.29,0,0,0-2.25,3.24,4.51,4.51,0,0,0,.51,3.7c.56.95,1.54,1.65,2,2.63a3.13,3.13,0,0,1-.25,2.58c-.5,1.22-1.17,2.38-1.67,3.6a12.55,12.55,0,0,0-.36,8.14c.67,2.66,1.87,5.17,2.37,7.89A17,17,0,0,1,173.7,234a2.27,2.27,0,0,0-.35,2.72c2.9,3.88,1.87,10.12-2.51,12.5s-10.35-.54-11.68-5.12a2.24,2.24,0,0,0-1.57-1.57c-2.09-.44-2.76-2.62-3.05-4.74-.46-3.44.14-7.07.38-10.5l.88-12.56c.28-4,.49-8,1.85-11.77a22.86,22.86,0,0,1,6.45-9.28c2.18-1.91-1-5.09-3.18-3.18Z"/><path d="M184,171.93a22.32,22.32,0,0,0,7.64-31.48,2.27,2.27,0,0,0-3.08-.8,2.91,2.91,0,0,0-.76,4.3,5.09,5.09,0,0,0,4.1,1.88,13.08,13.08,0,0,0,8.53-2.78c5.37-4.05,7.2-10.62,8.39-16.93a2.31,2.31,0,0,0-1.57-2.77,2.27,2.27,0,0,0-2.77,1.57c-.8,4.22-1.69,8.84-4.42,12.3a11.52,11.52,0,0,1-4.54,3.52,8,8,0,0,1-2.5.6c-.43,0-.85,0-1.27,0-.86,0,0-.47-.11.6l-.3,1.13.1-.18-.81.81.2-.15-3.07-.81a17.83,17.83,0,0,1-6,25.32c-2.5,1.46-.24,5.36,2.27,3.89Z"/><path d="M199.31,142.52c-1.89,7.29-3.88,14.92-3,22.51.74,6.39,3.3,12.78,8.46,16.86v-3.18c-7.05,6.74-14.36,16-13.82,26.33a24.37,24.37,0,0,0,1.8,7.47,13.26,13.26,0,0,1,1,3.55,17.32,17.32,0,0,1-.28,4.19c-.93,5.59-2.05,11.35-.58,17,1.14,4.39,4.15,8.57,8.39,10.41a8,8,0,0,0,4.73.81c.78-.18,1.56-.41,2.33-.62l8.14-2.17c1.6-.43,3.27-.76,4.83-1.29s2-2.27,2.55-3.59a17.87,17.87,0,0,0,1-3.28,22.4,22.4,0,0,0,.14-7.53,20.72,20.72,0,0,0-6.75-12.57c-2.18-1.88-5.38,1.29-3.18,3.19a16.82,16.82,0,0,1,3.74,20.47l1.35-1-8.73,2.33-5.4,1.44a7.44,7.44,0,0,1-1.29.34c-.22,0,.27.08-.14-.14-.63-.33-1.41-.39-2.06-.75-6.57-3.61-6.26-12.21-5.24-18.57.64-4,1.64-8.06.32-12.08a50.85,50.85,0,0,1-1.86-5.59,15.74,15.74,0,0,1-.16-4.89c.95-8,6.83-14.87,12.42-20.22a2.26,2.26,0,0,0,0-3.18c-10.72-8.49-7.23-23.69-4.3-35,.72-2.8-3.62-4-4.34-1.19Z"/><path d="M217.35,221.9a64.75,64.75,0,0,0,3.36-40.52l-1.57,2.77a9.84,9.84,0,0,0,6.23-7.18c1-3.78.18-7.48-.78-11.18a27.42,27.42,0,0,1-1.14-6.34,28.58,28.58,0,0,1,1.06-6.61A31.86,31.86,0,0,0,225,140.5a28.35,28.35,0,0,0-5.32-12.25,2.32,2.32,0,0,0-3.08-.8,2.26,2.26,0,0,0-.8,3.08,24.86,24.86,0,0,1,4.7,19.75c-.8,4.07-1.86,7.84-1.24,12,.54,3.6,2.13,7.12,2.13,10.79,0,2.46-.77,5.81-3.4,6.71a2.3,2.3,0,0,0-1.57,2.77,59.73,59.73,0,0,1-2.91,37,2.32,2.32,0,0,0,.8,3.08,2.26,2.26,0,0,0,3.08-.81Z"/><path d="M223.26,132.13a41.26,41.26,0,0,0,14.33-34.62,2.31,2.31,0,0,0-2.25-2.25,2.27,2.27,0,0,0-2.25,2.25,37.07,37.07,0,0,1-13,31.44,2.25,2.25,0,0,0,3.19,3.18Z"/><path d="M232.49,31.45c-2.28,5.49-4.61,11.33-3.81,17.39.64,4.88,3.27,9.78,7.92,11.86a2.32,2.32,0,0,0,3.08-.81,2.27,2.27,0,0,0-.81-3.08c-3.58-1.6-5.53-5.33-5.82-9.14-.38-5.24,1.81-10.29,3.78-15a2.27,2.27,0,0,0-1.57-2.77,2.32,2.32,0,0,0-2.77,1.57Z"/><path d="M230.15,49.39a16.12,16.12,0,0,0-5.61,12.7,16.4,16.4,0,0,0,6.63,12.38l-.45-3.53c-2.78,3.14-2.88,7.47-2.88,11.46,0,4.19.63,8.61,3.18,12.06,2.2,3,5.64,5.24,9.48,4.9a8.83,8.83,0,0,0,7.94-6.17l-3.76,1c2.5,2.48,5.52,5.08,9.26,5.06,3.53,0,6.46-2.41,8.19-5.33a17.63,17.63,0,0,0-1.35-19.17,2.31,2.31,0,0,0-3.07-.8A2.25,2.25,0,0,0,256.9,77a13.47,13.47,0,0,1,1.86,13.65c-.84,1.85-2.42,3.93-4.63,4.07-2.49.17-4.65-2.13-6.27-3.73a2.28,2.28,0,0,0-3.76,1,4.39,4.39,0,0,1-4.41,2.9c-2.45,0-4.45-2-5.6-4-1.52-2.64-1.77-5.78-1.75-8.77,0-2.51-.23-6,1.56-8.06a2.29,2.29,0,0,0-.45-3.53A11.64,11.64,0,0,1,229,61.7a11.82,11.82,0,0,1,4.3-9.13,2.26,2.26,0,0,0,0-3.18,2.29,2.29,0,0,0-3.18,0Z"/><path d="M253.47,77.13a6.89,6.89,0,0,0,7.2-2.31c1.89-2.27,2.44-5.2,2.81-8,.7-5.34.24-11.14-3-15.63v2.28c4.64-7.81,1.52-19-6.61-23.13-2.58-1.31-4.86,2.57-2.27,3.89,6,3,8.44,11.16,5,17a2.22,2.22,0,0,0,0,2.28c2.41,3.33,2.92,7.33,2.62,11.34-.17,2.26-.79,9.21-4.53,8-2.77-.88-3.95,3.46-1.2,4.34Z"/><path d="M253.83,6.76c1.45-2.66,5.11-2.69,7.65-1.62,3.85,1.63,6.12,5.93,8.34,9.21a49.84,49.84,0,0,0,20.65,17.51c6.06,2.79,15,5.48,16.93,12.78,2,7.82-5.67,14.72-12.54,16.39-5.5,1.34-11.3.63-16.78-.44C272,59.39,266,57.88,259.92,56.5c-2.82-.64-4,3.7-1.2,4.34,5.9,1.35,11.78,2.8,17.71,4,5.66,1.14,11.42,1.87,17.17,1,9.16-1.36,18.26-8.59,18.59-18.45.32-9.59-8.53-14.54-16.12-17.93a63.14,63.14,0,0,1-12.29-6.71,44.07,44.07,0,0,1-10.07-10.68c-3-4.45-6-9.52-11.37-11.4C258-.86,252.31.14,250,4.49c-1.39,2.54,2.49,4.81,3.88,2.27Z"/><path d="M272.34,31.44l0-.13-.22.54a.7.7,0,0,1,.09-.17l-.35.46a.91.91,0,0,1,.17-.17l-.45.35a1.13,1.13,0,0,1,.21-.12l-.54.22a1.34,1.34,0,0,1,.27-.07l-.59.08h.24l-.6-.08a.65.65,0,0,1,.2,0l-.53-.23.14.08-1-1.34s0,.05,0,.08l-.08-.6v.09l.08-.6,0,.08.23-.54a.21.21,0,0,1-.06.1l.35-.45a.47.47,0,0,1-.1.1l.46-.35-.13.07.54-.23-.16.05.6-.08H271l.6.08-.18-.05.54.22a.71.71,0,0,1-.22-.13l.46.36a2.65,2.65,0,0,1-.4-.42,2.29,2.29,0,0,0-3.18,0l-.35.45a2.17,2.17,0,0,0-.31,1.14l.08.59a2.24,2.24,0,0,0,.58,1A3.28,3.28,0,0,0,270.27,33a2.58,2.58,0,0,0,.78.11,3.09,3.09,0,0,0,.68-.09l.12,0a3.18,3.18,0,0,0,.68-.31,2.85,2.85,0,0,0,.93-.93,2.13,2.13,0,0,0,.28-.68,2.51,2.51,0,0,0,0-1.36,1.87,1.87,0,0,0-.41-.78,1.84,1.84,0,0,0-.64-.59l-.07,0a3.12,3.12,0,0,0-.71-.29,3.77,3.77,0,0,0-.75-.11H271a4.64,4.64,0,0,0-.76.11l-.08,0a5.59,5.59,0,0,0-.61.26,1,1,0,0,0-.17.1,3.69,3.69,0,0,0-.6.49,3.76,3.76,0,0,0-.45.6l0,0c-.09.18-.17.39-.24.57a.49.49,0,0,0,0,.11,1.83,1.83,0,0,0,0,.9,1.7,1.7,0,0,0,.27.84,1.67,1.67,0,0,0,.58.63,1.69,1.69,0,0,0,.76.4l.6.08a2.17,2.17,0,0,0,1.14-.31l.45-.35a2.26,2.26,0,0,0,.58-1Z"/><path d="M301.84,35.08A14.84,14.84,0,0,0,297,44.93a11.56,11.56,0,0,0,3.71,9.14,9.41,9.41,0,0,0,4.93,2.44,5.83,5.83,0,0,0,5.28-2.34,9,9,0,0,0,.46-10.28c-1.75-2.82-6.64-6.94-9.71-3.49-1.29,1.46-1.49,3.87-1.37,5.72A13,13,0,0,0,302,51.88c1.11,1.88,3.33,3.62,5.59,2.5,1.63-.82,2.49-2.86,2.87-4.57A11,11,0,0,0,307.92,40c-1.74-1.78-4.72-2.32-6.31,0a8.14,8.14,0,0,0-.75,6.56c.67,2.3,2.48,4.58,5.15,3.79s3.28-3.43,3.15-5.84c-.11-2.14-3-3.17-4.19-1.13a7.09,7.09,0,0,0-.77,4.82A2.27,2.27,0,0,0,307,49.72,2.31,2.31,0,0,0,308.54,47a2.12,2.12,0,0,1,.32-1.35l-4.2-1.14a5.85,5.85,0,0,1,0,1.51c-.09.41-.14.1,0,.11A3.75,3.75,0,0,1,305,46a1.61,1.61,0,0,1,.61.26s-.28-.52-.27-.48A4.27,4.27,0,0,1,305,44a4.05,4.05,0,0,1,.22-1.28s0-.33.13-.32l-.31.31a1,1,0,0,1-.65.16c-.17.08.17.12.07,0a4.26,4.26,0,0,1,.51.53,9.59,9.59,0,0,1,.74,1.24,7.68,7.68,0,0,1,.54,2.27,5.82,5.82,0,0,1-.39,2.62c-.24.7.17-.27-.16.39-.06.13-.39.55-.38.67,0-.35,1.15-.5,1.14-.35s-.3-.27-.36-.34A7.84,7.84,0,0,1,305,47.27a8.11,8.11,0,0,1-.15-2.9c0-.28.14-.55.18-.83.1-.62.12-.16,0-.15.33,0-.57.33-.55.22s.61.25.67.29a6.3,6.3,0,0,1,3.15,4.3c-.06-.37,0,.43,0,.4a6.27,6.27,0,0,1,0,.75c0-.37-.09.42-.08.39,0,.17-.09.33-.14.48a3.7,3.7,0,0,1-.53,1c.19-.26-.31.33-.28.31a2.47,2.47,0,0,1-.56.43c-1,.61-3-1.17-3.63-1.93a7.24,7.24,0,0,1-1.52-5.62A10.65,10.65,0,0,1,305,38.26c2.13-2-1.06-5.15-3.18-3.18Z"/><path d="M291.62,63.13,279.16,79.82l-3,4A10.64,10.64,0,0,0,273.87,88c-.63,3.33,2.45,5.65,5.55,5,2.87-.56,4.74-3.46,6.66-5.4,2.21-2.25,4.55-4.36,6.91-6.45a145.43,145.43,0,0,0,13.22-12.7c15.1-17.23,23.8-39,39.81-55.57a8.49,8.49,0,0,0,2.53-4,4.43,4.43,0,0,0-2-4.65c-3.26-2-6.45.21-9.11,2.1a72.15,72.15,0,0,0-8.38,6.7c-2.12,2-4.2,4.47-7.08,5.41L324.77,20a12.53,12.53,0,0,1,0-5.65c.47-2.07,1.06-4.25,0-6.24A4.5,4.5,0,0,0,320,5.64a4.35,4.35,0,0,0-3.2,3.49c-.33,1.58-.09,3.2-.33,4.79a30.63,30.63,0,0,1-1.6,5.63,47.24,47.24,0,0,0-1.7,5.42c-.42,1.9-.31,3.82-.64,5.71a13.6,13.6,0,0,1-2.33,4.81,21.05,21.05,0,0,0-2.8,5.51c-.82,2.79,3.52,4,4.34,1.2,1.06-3.61,4.16-6.24,5-10,.49-2.06.28-4.2.76-6.27a60.28,60.28,0,0,1,1.94-6A28.52,28.52,0,0,0,321,13.7c.09-.86.07-1.71.09-2.58a9.8,9.8,0,0,0,.06-1.17c-.82-.36-.26.57-.26.92a22.74,22.74,0,0,1-.68,3.32,17.87,17.87,0,0,0,.22,7,2.27,2.27,0,0,0,2.76,1.58c5.11-1.67,8.36-6.25,12.41-9.49a54.81,54.81,0,0,1,6.82-4.91,2.5,2.5,0,0,1,1.26-.45l.33,0c.31,0,.21.34.15.05,0-.09-.27.53-.4.71a14.31,14.31,0,0,1-1.49,1.62c-7.22,7.38-13,16-18.48,24.7S313.17,52.48,306.9,60.56a97.26,97.26,0,0,1-10.71,11.7c-4.19,3.87-8.61,7.49-12.66,11.51-1.09,1.08-2.14,2.21-3.18,3.34A6.66,6.66,0,0,1,279,88.39c-.32.18-.56.08-.82.19,0,0-.06,0-.05,0,.12.42.17.49.18.23l0-.18a16,16,0,0,0,1.3-1.94l3.11-4.17L295.5,65.4a2.27,2.27,0,0,0-.8-3.08,2.3,2.3,0,0,0-3.08.81Z"/><path d="M317,42.47Q321.6,37,325.65,31a2.27,2.27,0,0,0-.81-3.08,2.31,2.31,0,0,0-3.08.81c-1.27,1.86-2.58,3.7-3.94,5.5l-.51.66-.25.33s-.28.36-.14.19-.12.15-.15.18l-.25.33-.52.66c-.71.89-1.44,1.78-2.17,2.66a2.31,2.31,0,0,0,0,3.19,2.28,2.28,0,0,0,3.18,0Z"/><path d="M329.7,27l.71-1.19a1.7,1.7,0,0,0,.27-.84,1.72,1.72,0,0,0,0-.9,1.8,1.8,0,0,0-.4-.76,1.63,1.63,0,0,0-.64-.58l-.53-.23a2.44,2.44,0,0,0-1.2,0l-.54.23a2.22,2.22,0,0,0-.8.81l-.71,1.19a1.61,1.61,0,0,0-.27.84,2,2,0,0,0,.44,1.66,1.71,1.71,0,0,0,.64.58l.53.23a2.44,2.44,0,0,0,1.2,0l.54-.23a2.3,2.3,0,0,0,.8-.81Z"/><path d="M294.15,73.8a15,15,0,0,1,.91-1.34l-.35.46A12.73,12.73,0,0,1,297,70.63l-.46.35c.3-.23.61-.44.93-.65a2.35,2.35,0,0,0,1-1.34,2.3,2.3,0,0,0-.23-1.74,2.24,2.24,0,0,0-3.07-.8,15.16,15.16,0,0,0-4.93,5.08,2.34,2.34,0,0,0-.23,1.74,2.27,2.27,0,0,0,2.77,1.57,2.32,2.32,0,0,0,1.34-1Z"/><path class="cls-1" d="M207.19,52v.34"/><path class="cls-2" d="M229.2,80.8c.1,6.4-.66,8,3,13.21-11.31-5.13-13.67-7.47-21.94-16.11-7.65-8-15.07-14.05-14.28-25.41,10.22-1.29,9.84,1.55,14.37,10a44.94,44.94,0,0,0,8.69,11.62C220.17,75.18,229.2,80.61,229.2,80.8Z"/><path d="M227.7,80.8a51.17,51.17,0,0,0,.22,7.43,16,16,0,0,0,3,6.53L233,92.71a76.55,76.55,0,0,1-9.68-5,43.91,43.91,0,0,1-6.85-5.61c-2.82-2.75-5.5-5.65-8.25-8.46a56.44,56.44,0,0,1-7.5-8.77,20.17,20.17,0,0,1-3.2-12.35L196,54c2.47-.3,5.88-.9,8,.7,1.8,1.34,2.82,4.18,3.84,6.2a54.81,54.81,0,0,0,7.47,11.5,28.57,28.57,0,0,0,6.58,5.48c1.37.88,2.76,1.75,4.14,2.62l1.57,1a5.49,5.49,0,0,0,.54.35c.28.12-.12-.09-.23-.3.89,1.71,3.48.2,2.59-1.51-.35-.67-1.36-1.12-2-1.51-1.18-.76-2.38-1.5-3.57-2.25s-2.44-1.54-3.64-2.35a15.52,15.52,0,0,1-3-2.71,50.78,50.78,0,0,1-7.93-12c-1.19-2.36-2.28-5.11-4.4-6.8-2.78-2.23-6.66-1.86-10-1.45a1.55,1.55,0,0,0-1.5,1.5A22.71,22.71,0,0,0,197,64.44a42.76,42.76,0,0,0,7.24,9.38c2.92,3.07,5.87,6.13,8.86,9.14a55,55,0,0,0,7.34,6.39,67.77,67.77,0,0,0,11,6c1.22.56,3-.69,2.06-2a13.79,13.79,0,0,1-2.69-5.74,51.8,51.8,0,0,1-.12-6.71A1.5,1.5,0,0,0,227.7,80.8Z"/></g></g></svg>