<svg xmlns="http://www.w3.org/2000/svg" viewBox="0 0 315.66 378"><defs><style>.cls-1{fill:#d85d47;}</style></defs><g id="Capa_2" data-name="Capa 2"><g id="Layer_1" data-name="Layer 1"><path d="M140.5,32.71c-3.19,6.31-6.38,12.62-9.18,19.12a166.82,166.82,0,0,0-7.06,20c-1.94,6.75-3.67,13.56-5.86,20.24-2.26,6.87-4.92,13.61-7.69,20.28-10,24-20,48.7-35.51,69.72-7.32,9.9-16.51,18-24.54,27.26a65.85,65.85,0,0,0-10,14.67,57,57,0,0,0-5,19.43,121.06,121.06,0,0,0-.3,19.51c.41,6,1.59,12.12,4.91,17.21,6.89,10.55,19.83,13.64,31.48,15.46,6.59,1,13.28,1.9,19.54,4.3a43.82,43.82,0,0,1,13.48,8.33,48.37,48.37,0,0,1,15.34,27.31,42.34,42.34,0,0,1,.61,7.79,2.31,2.31,0,0,0,2.25,2.25,88.68,88.68,0,0,1,30.27,8c8.49,4,17,10.37,26.89,8.29,4.31-.9,8.43-3.54,10.23-7.68a2.28,2.28,0,0,0-.81-3.07c-7.15-3.57-15-5.16-22.49-7.81-7.14-2.53-13.31-6.49-17.64-12.8-4.06-5.91-6.48-12.72-8.6-19.52-2.31-7.37-4.34-14.81-7.24-22A139.56,139.56,0,0,0,122,266.5c-2.26-3.57-4.7-7-7.28-10.37-1.25-1.62-2.57-3.18-3.83-4.78-1.1-1.4-2.6-3.31-2.25-5.21.31-1.65,1.85-3,2.94-4.16q2-2.16,4.06-4.26c2.67-2.7,5.41-5.32,8.19-7.9,5.45-5.07,11-10,16.45-15.12,11.85-11.22,22.91-23.66,28.5-39.26,1-2.73-3.37-3.9-4.34-1.19-5,14-15,25.38-25.56,35.57-5.48,5.27-11.18,10.31-16.77,15.47q-4.2,3.86-8.26,7.85a82.4,82.4,0,0,0-7.85,8.44c-2.73,3.64-2.14,7.66.39,11.23s5.33,6.64,7.8,10.12a136.46,136.46,0,0,1,12.91,22.43,177.29,177.29,0,0,1,8.13,22.92c2.13,7.1,4.36,14.28,8,20.8A37.88,37.88,0,0,0,161.44,346c8.4,3.66,17.64,5,25.85,9.1l-.8-3.08c-1.87,4.28-6.49,6-10.92,5.89-5.91-.16-11.28-3.62-16.36-6.28A95,95,0,0,0,123,341.11l2.25,2.25c.17-21.84-15-42.56-35.94-48.86C77,290.82,63.36,291.7,52,285.1a22.77,22.77,0,0,1-10.52-12.81c-1.85-5.81-1.89-12-1.83-18,.06-6.78.37-13.63,2.07-20.23a48,48,0,0,1,7.91-16.3C56.75,208,66.19,200.25,73.87,191c16.54-19.89,26.9-43.82,36.94-67.41,5.56-13.07,10.93-26.14,14.79-39.83,1.91-6.75,3.66-13.55,5.93-20.18a169.93,169.93,0,0,1,8.19-19.26c1.52-3.14,3.1-6.25,4.67-9.36,1.3-2.58-2.58-4.86-3.89-2.27Z"/><path d="M145.27,33.21c2.87-6.65,6.63-13.6,13.14-17.31a17.2,17.2,0,0,1,9.7-2.36c3.36.23,6.16,2,8.84,3.92s5.34,3.93,8.53,4.94c3.77,1.2,7.47.28,11-1.21,4.13-1.74,8.23-3.58,12.35-5.33,1.67-.72,3.58-1.53,5.44-1.27,1.36.19,2.73,1.14,2.26,2.66C216,19,214,20.53,212.77,21.79q-2.42,2.4-5,4.66a117.72,117.72,0,0,1-10.93,8.6,2.29,2.29,0,0,0-.8,3.08c1.82,3,5.07,4.21,8.33,5,1.19.27,3,.38,3.94.92.32.18.34.79.21,1.06s-.16.32-.56.44a21.7,21.7,0,0,1-2.9.5q-3.17.52-6.34.94-6.72.87-13.48,1.32A2.31,2.31,0,0,0,183,50.52c-3.22,27,3.19,53.75,4.83,80.61a161.52,161.52,0,0,1-.07,22.65,2.27,2.27,0,0,0,2.25,2.25,2.29,2.29,0,0,0,2.25-2.25c2.15-27.07-4.48-53.73-5.53-80.69a143,143,0,0,1,.77-22.57l-2.25,2.25c5.19-.35,10.36-.89,15.52-1.59,2.39-.33,4.79-.7,7.17-1.11a5.73,5.73,0,0,0,4.47-2.73,5.41,5.41,0,0,0-3.35-7.84c-2.89-.79-7.38-.76-9.13-3.64l-.8,3.08A130.9,130.9,0,0,0,210,30.53c3.3-2.87,6.88-5.89,9.5-9.4a7.12,7.12,0,0,0,1.5-5.91,6.72,6.72,0,0,0-4.24-4.6c-4.61-1.76-9.39,1-13.53,2.8l-6.75,2.92a23.22,23.22,0,0,1-6.17,2.11c-3.44.43-6.45-1.6-9.12-3.49-3.07-2.16-6.1-4.48-9.8-5.42a19.63,19.63,0,0,0-11.85.89c-9.07,3.55-14.42,11.92-18.14,20.5a2.32,2.32,0,0,0,.81,3.08,2.26,2.26,0,0,0,3.08-.8Z"/><path d="M175.05,148.24c13.27,5.44,24.45,14.82,34.85,24.5s22.14,19.72,27.25,33.59c2.92,7.93,4.21,16.34,5.46,24.66V229.8c-.51,1.58-3.22,1.5-4.59.54-2.5-1.74-3.53-5.17-4.66-7.84-2.85-6.72-6-13.31-10.57-19.06-4.67-5.92-10.88-10.13-17.36-13.83-7.28-4.15-14.63-8.15-22-12.22l-25-13.92c-2.53-1.41-4.8,2.48-2.27,3.89,15.33,8.53,30.71,17,46,25.59,6.64,3.75,13,7.89,17.7,14.05,4.53,6,7.49,12.94,10.43,19.81,1.31,3.05,3.08,6.36,6.21,7.86a8.07,8.07,0,0,0,8.63-.88,4.72,4.72,0,0,0,1.72-4.43q-.45-3-.93-5.94c-.64-3.87-1.38-7.74-2.37-11.54a59.34,59.34,0,0,0-9.87-21.06c-4.74-6.24-10.45-11.61-16.11-17-11-10.44-22.44-20.9-36.16-27.61-1.71-.83-3.45-1.59-5.21-2.31a2.27,2.27,0,0,0-2.77,1.57,2.32,2.32,0,0,0,1.58,2.77Z"/><path d="M183,182.07l2.09,36.51c.14,2.57-.26,6.12,1.59,8.17s4.78,1.7,6.67.1c2.06-1.73,2.37-4.57,2.83-7l1.65-9.07,3.77-20.6a2.32,2.32,0,0,0-1.57-2.77,2.27,2.27,0,0,0-2.77,1.58c-1.95,10.64-3.73,21.33-5.85,31.95a4.72,4.72,0,0,1-.88,2.45.84.84,0,0,1-.55.32c-.18,0,.12.16,0,0a2.6,2.6,0,0,1-.17-1.14c0-.66-.07-1.32-.11-2l-.23-3.94-.93-16.29-1-18.25c-.17-2.88-4.67-2.9-4.5,0Z"/><path d="M156.79,23.36A63.2,63.2,0,0,0,147,15.81c-2.53-1.59-5.48-3.05-8.4-2.41-3.82.84-5.94,4.76-8.47,7.73s-5.93,5.27-8.9,7.92S115.59,35,115,38.91c2.33,1.53,5.46,1.13,8,0s4.79-2.85,7.33-4a17.88,17.88,0,0,1,17.49,1.8Z"/><path d="M158.38,21.77a66.71,66.71,0,0,0-10.4-8c-3.59-2.21-7.75-3.72-11.82-1.86-3.27,1.5-5.16,4.72-7.38,7.37-2.59,3.11-6,5.39-9,8-3.27,2.91-6.24,6.58-7,11a2.34,2.34,0,0,0,1,2.54,10.48,10.48,0,0,0,9,.54c3-1.1,5.52-3.12,8.42-4.43a15.72,15.72,0,0,1,15.41,1.71,2.29,2.29,0,0,0,3.08-.81l8.95-13.37c1.62-2.42-2.28-4.67-3.89-2.28l-9,13.38,3.08-.81a20.21,20.21,0,0,0-16.83-2.89c-3,.84-5.58,2.59-8.29,4.1-2.3,1.28-5.24,2.47-7.71,1l1,2.54c1.18-7.08,8.44-10.62,13.11-15.24,2.26-2.24,3.85-5.07,6.2-7.22,2.55-2.33,5.53-1.54,8.29,0A56.24,56.24,0,0,1,155.2,25C157.31,26.93,160.5,23.75,158.38,21.77Z"/><path d="M168.42,27.33c.55-.71,3.73-1,4.4.63a2.57,2.57,0,1,1-4.4-.63"/><path d="M213.86,11.83c-.06-.32-.11-.63-.16-.95l.08.6a8.54,8.54,0,0,1,0-2l-.08.6a4.52,4.52,0,0,1,.25-1l-.23.53a3.07,3.07,0,0,1,.39-.68l-.35.45a3.12,3.12,0,0,1,.45-.44l-.46.35a2.5,2.5,0,0,1,.55-.31l-.54.22a3.22,3.22,0,0,1,.61-.16l-.6.08a3.66,3.66,0,0,1,.81,0l-.6-.08a3.56,3.56,0,0,1,.79.22l-.54-.22a3.63,3.63,0,0,1,.64.36l-.46-.35a3.32,3.32,0,0,1,.53.53l-.35-.46a3.57,3.57,0,0,1,.4.68l-.23-.54a4,4,0,0,1,.27,1l-.08-.6a5.06,5.06,0,0,1,0,1.1l.08-.6a5,5,0,0,1-.29,1.07l.22-.54a3.75,3.75,0,0,1-.51.86l.36-.45a4.77,4.77,0,0,1-.71.71l.46-.35a4.35,4.35,0,0,1-.85.51l.53-.22a4,4,0,0,1-.84.24l.59-.08a3.39,3.39,0,0,1-.78,0l.59.08a2.91,2.91,0,0,1-.7-.19l.54.23a3.72,3.72,0,0,1-.64-.38l.46.35a2.84,2.84,0,0,1-.52-.52l.35.46a3.13,3.13,0,0,1-.41-.71l.22.54a3.13,3.13,0,0,1-.16-.6l.08.6a3.21,3.21,0,0,1,0-.62l-.08.59a3.35,3.35,0,0,1,.16-.54l-.23.54a3,3,0,0,1,.32-.54l-.36.46a4.11,4.11,0,0,1,.59-.59l-.46.35a3.68,3.68,0,0,1,.81-.48l-.54.22a3.6,3.6,0,0,1,.91-.24l-.6.08a3.94,3.94,0,0,1,1,0l-.59-.08a4.39,4.39,0,0,1,1.06.29l-.54-.23a4,4,0,0,1,.8.47l-.46-.35a2.84,2.84,0,0,1,.52.52l-.35-.46a3.16,3.16,0,0,1,.33.56l-.23-.53a2.73,2.73,0,0,1,.15.56l-.08-.6a2.33,2.33,0,0,1,0,.59l.08-.6a2.11,2.11,0,0,1-.14.49l.23-.53a2.67,2.67,0,0,1-.25.43l.35-.46a2.4,2.4,0,0,1-.45.45l.45-.36a3,3,0,0,1-.62.36l.54-.23a3.41,3.41,0,0,1-.83.23l.6-.08a3.1,3.1,0,0,1-.86,0l.6.08a2.62,2.62,0,0,1-.68-.18l.54.22a2.3,2.3,0,0,1-.43-.25l.45.35a2.38,2.38,0,0,1-.36-.35l.36.46a2.2,2.2,0,0,1-.27-.47l.22.54a2.26,2.26,0,0,1-.11-.43l.08.59a2.1,2.1,0,0,1,0-.56l-.08.59a2.66,2.66,0,0,1,.16-.55l-.23.54a3.11,3.11,0,0,1,.38-.63l-.36.46a3.59,3.59,0,0,1,.59-.58l-.45.35a3.19,3.19,0,0,1,.72-.41l-.54.22a3.38,3.38,0,0,1,.71-.19l-.6.08a2.72,2.72,0,0,1,.57,0l-.6-.08a2.62,2.62,0,0,1,.48.13l-.54-.23a1.82,1.82,0,0,1,.45.26l-.45-.35.06,0-.58-2.19-.73,1.72,2.77-1.57L216.1,9l.54.23a1.5,1.5,0,0,1-.32-.19l.46.36a2.06,2.06,0,0,1-.33-.33l.35.45a1.65,1.65,0,0,1-.18-.32l.22.54a2.11,2.11,0,0,1-.09-.36v1.2l0-.08-.23.54a.6.6,0,0,1,.09-.15l-.35.46a1,1,0,0,1,.18-.18l-.46.35a.94.94,0,0,1,.22-.12l-.53.22.24-.06-.59.08h.25l-.6-.08.16,0-.53-.23.07,0a2.45,2.45,0,0,0,1.74.22A2.25,2.25,0,0,0,217,7.52a3.3,3.3,0,0,0-3,0,2.92,2.92,0,0,0-1.59,2.17,3.65,3.65,0,0,0,2.8,3.74,2.35,2.35,0,0,0,1.74-.23l.45-.35a2.26,2.26,0,0,0,.58-1l.73-1.73a2.18,2.18,0,0,0-.58-2.19,4.44,4.44,0,0,0-1.81-1,5.05,5.05,0,0,0-2.12,0,5.18,5.18,0,0,0-2.71,1.59,4.65,4.65,0,0,0-1.32,3.34,4.34,4.34,0,0,0,1.93,3.37,5.18,5.18,0,0,0,5.61-.16,4.39,4.39,0,0,0,1.89-2.7,4.71,4.71,0,0,0-1.05-3.93,6.08,6.08,0,0,0-6-1.8,5.77,5.77,0,0,0-3.35,2.41,4.6,4.6,0,0,0-.18,4.53,5.19,5.19,0,0,0,3,2.62,5.38,5.38,0,0,0,4.17-.49,6.37,6.37,0,0,0,3-7.11,5.34,5.34,0,0,0-2.53-3.31,5.23,5.23,0,0,0-4-.47,5,5,0,0,0-3.12,3.08,7,7,0,0,0-.33,3.24c.07.63.16,1.26.28,1.88a2.26,2.26,0,0,0,1,1.35,2.34,2.34,0,0,0,1.74.23,2.29,2.29,0,0,0,1.34-1,2.53,2.53,0,0,0,.23-1.73Z"/><path d="M36.26,244.57c-11,.63-21-6.26-26.29-15.59-6.1-10.75-6.43-23.8-4.22-35.69A161.05,161.05,0,0,1,12,171l-3.31,1.35c3.61,2.34,5.25,6.6,5.77,10.72.69,5.42-.47,10.76-1.27,16.1-.9,6-1.35,12.15.9,17.92,2.08,5.32,5.66,9.79,9.53,13.92,4.1,4.38,9.88,9.68,16.39,7.48,2.73-.92,1.56-5.27-1.19-4.34-5,1.69-9.58-3.68-12.59-6.93-3.46-3.75-6.8-7.93-8.35-12.88-1.81-5.8-.69-11.9.25-17.75.82-5.08,1.42-10,.61-15.17s-3.29-10.05-7.78-13a2.27,2.27,0,0,0-3.3,1.35C3.12,183.14-1,197.1.22,211.29c1.1,12.62,6.4,24.82,17.06,32.19a30.66,30.66,0,0,0,19,5.59c2.88-.16,2.9-4.66,0-4.5Z"/><path class="cls-1" d="M129.72,68.73a49.88,49.88,0,0,0,3.1,8A101.61,101.61,0,0,1,141.05,110c4.67-7.87,12.74-13,20.51-17.85l22.44-14L128.89,65.48"/><path d="M127.55,69.33c.87,3.4,2.48,6.52,3.83,9.74A99.13,99.13,0,0,1,135,89.12,99.7,99.7,0,0,1,138.8,110a2.27,2.27,0,0,0,4.19,1.14c4.13-6.85,10.84-11.46,17.47-15.64,8.2-5.18,16.45-10.26,24.67-15.38,1.57-1,1.42-3.66-.53-4.11L129.49,63.31c-2.82-.65-4,3.69-1.2,4.34L183.4,80.3l-.54-4.12c-8.45,5.27-17,10.47-25.36,15.82-7.05,4.48-14,9.53-18.39,16.81L143.3,110a106.11,106.11,0,0,0-3.88-21.58A100,100,0,0,0,135.9,78.3c-1.39-3.37-3.11-6.62-4-10.17-.72-2.8-5.06-1.61-4.34,1.2Z"/><path d="M54.51,291.14q6.48,7,13,14C72,310,76.66,314.8,80.74,320a59.19,59.19,0,0,1,5.81,9,72.7,72.7,0,0,1,3.92,9.75,101.41,101.41,0,0,0,4.07,10.51,44.42,44.42,0,0,0,5.74,8.91c4.33,5.32,9.69,9.67,15.09,13.85,2.78,2.14,5.57,4.52,9,5.54a9.67,9.67,0,0,0,8.78-1.5,7.54,7.54,0,0,0,1.93-8.87c-1.36-3.36-4.24-5.41-7.25-7.21a29,29,0,0,1-7.2-5.64,29.75,29.75,0,0,1-4.94-8,44.56,44.56,0,0,1-2.74-10.15c-.53-3.22-1.32-6.39-2.08-9.56-1.57-6.59-3.53-13.58-2.75-20.42a2.26,2.26,0,0,0-2.25-2.25,2.31,2.31,0,0,0-2.25,2.25c-.68,5.92.7,12,2,17.77.68,3,1.44,6,2.11,9,.62,2.8,1,5.66,1.64,8.44a36.88,36.88,0,0,0,8.33,16.36,32,32,0,0,0,7.5,5.85c2.41,1.43,5.45,3.11,6,6.14.45,2.46-1.71,3.74-3.92,3.71-3,0-5.71-2.37-8-4.11-5.23-4-10.43-8.16-14.77-13.15s-7.06-11.06-9.27-17.43c-1.18-3.41-2.35-6.83-3.86-10.12a53.8,53.8,0,0,0-5.29-9c-4.3-6-9.41-11.29-14.39-16.67C67,298,62.35,293,57.69,288c-2-2.13-5.14,1.06-3.18,3.19Z"/><path class="cls-1" d="M311.74,23.44a255.63,255.63,0,0,0-58.33.72c-6.65.85-13.56,2.11-18,5-1.21.77-2.23,1.77-1.87,2.77.52,1.46,3.58,2.14,6.22,2.51a220.21,220.21,0,0,0,27.81,2.08c14,.19,28.87-1,39.75-5.81,2.14-1,4.16-2.08,5.12-3.5S314.51,23.86,311.74,23.44Z"/><path d="M311.74,21.19a257.62,257.62,0,0,0-38.69-1q-9.49.46-18.93,1.64c-5.73.73-11.56,1.53-16.9,3.84-2.23,1-5.31,2.43-5.89,5-.65,2.89,2.13,4.51,4.46,5.2a52.05,52.05,0,0,0,8.79,1.38q4.86.57,9.73.91c12.25.86,24.7,1,36.88-.82a65.05,65.05,0,0,0,17.68-4.93c2.52-1.16,4.87-2.67,6.18-5.19s.37-5.39-2.71-6a2.31,2.31,0,0,0-2.77,1.57,2.26,2.26,0,0,0,1.57,2.76c1,.18.55.26.2-.49l-.09-.29c0-.22,0-.25,0-.08,0,0,0,0-.08.22a5.47,5.47,0,0,1-1.48,1.86,22,22,0,0,1-6,2.89,70.66,70.66,0,0,1-14.35,3.39c-10.59,1.48-21.44,1.36-32.09.75-5.7-.32-11.41-.82-17.06-1.65a23,23,0,0,1-3.2-.66,6.14,6.14,0,0,1-1-.38c.1,0-.38-.2-.34-.2-.12-.12-.12-.12,0,0l.07.88,1.05-.87a15.2,15.2,0,0,1,1.42-.8,22.32,22.32,0,0,1,3-1.25,75.75,75.75,0,0,1,15.08-2.86q8.49-1,17-1.4a257.09,257.09,0,0,1,38.45,1A2.26,2.26,0,0,0,314,23.44,2.3,2.3,0,0,0,311.74,21.19Z"/><path d="M126.19,142.26c2.9,0,2.9-4.5,0-4.5s-2.9,4.5,0,4.5Z"/><path d="M168.67,120.77h.16c2.89,0,2.9-4.5,0-4.5h-.16c-2.9,0-2.9,4.5,0,4.5h.16c2.89,0,2.9-4.5,0-4.5h-.16c-2.9,0-2.9,4.5,0,4.5Z"/><path d="M151.58,53.78V54a1.6,1.6,0,0,0,.19.86,1.81,1.81,0,0,0,.46.73,1.71,1.71,0,0,0,.73.46,1.74,1.74,0,0,0,.87.2l.59-.08a2.24,2.24,0,0,0,1-.58l.35-.46a2.37,2.37,0,0,0,.31-1.13v-.26a1.74,1.74,0,0,0-.2-.87,1.62,1.62,0,0,0-.46-.72,1.73,1.73,0,0,0-.73-.47,1.7,1.7,0,0,0-.86-.19l-.6.08a2.35,2.35,0,0,0-1,.58l-.35.45a2.29,2.29,0,0,0-.3,1.14Z"/><path d="M91.9,203.42h.26a1.74,1.74,0,0,0,.87-.2,1.62,1.62,0,0,0,.72-.46,2.48,2.48,0,0,0,.66-1.59l-.08-.6a2.3,2.3,0,0,0-.58-1l-.45-.35a2.29,2.29,0,0,0-1.14-.3H91.9a1.58,1.58,0,0,0-.86.19,1.95,1.95,0,0,0-1.19,1.19,1.74,1.74,0,0,0-.2.87l.08.59a2.3,2.3,0,0,0,.58,1l.46.35a2.37,2.37,0,0,0,1.13.31Z"/><path d="M133.1,197c2.9,0,2.9-4.5,0-4.5s-2.9,4.5,0,4.5Z"/><path d="M55.37,250.29v.26a2.42,2.42,0,0,0,.66,1.59,2.42,2.42,0,0,0,1.59.66l.59-.08a2.24,2.24,0,0,0,1-.58l.35-.46a2.23,2.23,0,0,0,.31-1.13v-.26a1.68,1.68,0,0,0-.2-.86,1.95,1.95,0,0,0-1.19-1.19,1.68,1.68,0,0,0-.86-.2l-.6.08a2.26,2.26,0,0,0-1,.58l-.36.46a2.25,2.25,0,0,0-.3,1.13Z"/><path d="M77.7,275.46l.25-.77a1.62,1.62,0,0,0,0-.9,1.69,1.69,0,0,0-.26-.84,1.85,1.85,0,0,0-.58-.63,1.73,1.73,0,0,0-.77-.4l-.6-.08a2.16,2.16,0,0,0-1.13.31l-.46.35a2.26,2.26,0,0,0-.58,1l-.25.77a1.62,1.62,0,0,0,0,.9,1.65,1.65,0,0,0,.26.83,1.68,1.68,0,0,0,.58.63,1.75,1.75,0,0,0,.77.41l.6.08a2.26,2.26,0,0,0,1.13-.31l.46-.35a2.26,2.26,0,0,0,.58-1Z"/><path d="M76.35,234.94v.77a1.73,1.73,0,0,0,.19.87,1.7,1.7,0,0,0,.47.72,1.62,1.62,0,0,0,.72.46,1.64,1.64,0,0,0,.87.2l.6-.08a2.26,2.26,0,0,0,1-.58l.35-.46a2.26,2.26,0,0,0,.31-1.13v-.77a1.64,1.64,0,0,0-.2-.87,1.68,1.68,0,0,0-.46-.72,1.8,1.8,0,0,0-.72-.47,1.73,1.73,0,0,0-.87-.19l-.6.08a2.26,2.26,0,0,0-1,.58l-.35.46a2.14,2.14,0,0,0-.31,1.13Z"/><path d="M99.58,276.34c2.9,0,2.9-4.5,0-4.5s-2.9,4.5,0,4.5Z"/><path d="M123.12,280.69c2.9,0,2.9-4.5,0-4.5s-2.9,4.5,0,4.5Z"/><path d="M83,317.54c2.89,0,2.9-4.5,0-4.5s-2.9,4.5,0,4.5Z"/><path d="M172.76,162c2.9,0,2.9-4.5,0-4.5s-2.9,4.5,0,4.5Z"/><path d="M207.05,181.41c2.89,0,2.9-4.5,0-4.5s-2.9,4.5,0,4.5Z"/><path d="M170.46,65.24c2.89,0,2.9-4.5,0-4.5s-2.9,4.5,0,4.5Z"/><path d="M155,15.69c3-4.67,7.25-9,12.69-10.63A19.63,19.63,0,0,1,177,5c3.61.67,7.22,1.37,10.83,2.06l-1.57-1.58c.27,1.33-2.64,3.23-3.42,3.91-1.77,1.52-3.58,3-5.41,4.45a2.25,2.25,0,0,0,0,3.18,2.31,2.31,0,0,0,3.18,0c2.34-1.84,4.64-3.74,6.87-5.72s3.72-4.1,3.12-7A2.19,2.19,0,0,0,189,2.75c-4-.76-8-1.58-12-2.26a22.75,22.75,0,0,0-10.88.34c-6.43,2-11.47,7-15,12.58-1.56,2.45,2.33,4.71,3.88,2.28Z"/></g></g></svg>