<svg xmlns="http://www.w3.org/2000/svg" viewBox="0 0 284.36 225.1"><defs><style>.cls-1{fill:#d85d47;}</style></defs><g id="Capa_2" data-name="Capa 2"><g id="Layer_1" data-name="Layer 1"><path d="M50.48,22.79c3.22-1.07,6.63.13,9.1,2.33,2.83,2.51,4.4,6.08,5.58,9.6,2.91,8.73,5.22,17.7,7.8,26.53C76.81,74.44,80.85,90.64,94,97.65c2.11,1.12,4.51,1.9,6.81.83,2-1,3.1-3,3.89-5a102.43,102.43,0,0,0,4.46-14.83l-4.42-.6c.14,7.28,1.08,16.3,7.54,20.88,8.26,5.85,18.2-.9,24-7,14-14.81,17.1-36,16.08-55.55-.29-5.54-1.11-11-1.29-16.58-.15-4.68.21-9.85,3.26-13.65a2.3,2.3,0,0,0-.46-3.54c-6.44-4.14-15-3-21.27.81-6.79,4.1-11.32,10.92-15.58,17.41l2.54-1a47.53,47.53,0,0,0-20.1-2c-1.57.19-3.13.43-4.67.76-.88.18-1.75.42-2.62.64-.39.09-1.27.36-1.53.19s-.4-.95-.48-1.25c-.16-.56-.31-1.11-.52-1.65a13.69,13.69,0,0,0-2.11-3.67C84.27,8.74,79,6.78,74,6.19A32.74,32.74,0,0,0,57.34,9,35,35,0,0,0,42.64,21c-1.34,1.92,1.23,4.13,3.08,3.08l3.16-1.79c2.52-1.43.25-5.32-2.27-3.89l-3.16,1.8,3.08,3.08c5.91-8.45,16.75-13.81,27.1-12.66,4.08.45,8.74,2.2,11,5.82,1.36,2.17,1.23,5.15,3.55,6.68,2.68,1.76,6.33,0,9.15-.52a43.5,43.5,0,0,1,21,1.51,2.29,2.29,0,0,0,2.54-1c3.69-5.62,7.56-11.64,13.31-15.38,5.09-3.31,12-4.67,17.38-1.22L151.14,3c-5.69,7.1-4.77,16.32-3.94,24.81,1,10.16,1.41,20.54-.23,30.66a61.62,61.62,0,0,1-9.18,24.39,44.3,44.3,0,0,1-8.45,9.47c-3,2.49-7.13,4.89-11.18,4.28-8-1.22-8.77-12.2-8.89-18.5,0-2.47-3.84-3.14-4.42-.6a116.6,116.6,0,0,1-3.77,13c-.4,1.12-.92,3.49-2.2,4s-3.14-1-4.12-1.58c-5.54-3.5-9.07-9.31-11.64-15.19-3-6.87-4.84-14.25-6.93-21.43L72.31,42.94c-1.17-4-2.19-8.09-3.74-12-1.62-4-3.85-7.76-7.44-10.34a13.41,13.41,0,0,0-11.85-2.19c-2.73.91-1.56,5.26,1.2,4.34Z"/><path d="M100,69.39a64.43,64.43,0,0,0,8.1-.53c.77-.1,1.24-.18,2-.24a7.87,7.87,0,0,1,.84,0h.56c-.21,0,.06,0,.13,0l.44.11s.35.13.16,0,.13.07.14.07.26.15.38.24c-.28-.22.23.21,0,0,.11.09.18.29.08.08a1.78,1.78,0,0,1,.13.45c-.07-.34,0,.34,0,.45,0,.28,0,0,0,0a3.45,3.45,0,0,1-.12.46.78.78,0,0,1-.17.37l-.27.43s-.21.31-.09.15A9.91,9.91,0,0,1,111,72.74a10.53,10.53,0,0,1-1.09.93,8.72,8.72,0,0,1-1.5.89,5,5,0,0,1-1.22.27s-.49,0-.14,0a1.87,1.87,0,0,1-.34-.08l-.34-.1c.1,0,.29.16-.11-.06a4.54,4.54,0,0,1-1.08-.76,8.84,8.84,0,0,1-.68-.69c-.11-.12-.22-.24-.32-.37s-.24-.3-.11-.12a12.5,12.5,0,0,1-1-1.67,6.62,6.62,0,0,1-.56-1.39,13,13,0,0,1-.45-2A2.27,2.27,0,0,0,99.29,66a2.32,2.32,0,0,0-1.57,2.77,14.25,14.25,0,0,0,4.13,8.1,8.38,8.38,0,0,0,4,2.32,7.82,7.82,0,0,0,5.38-1c2.58-1.43,5.49-4.14,6-7.15a5.75,5.75,0,0,0-1.4-5.1,6.85,6.85,0,0,0-4.68-1.83,40.5,40.5,0,0,0-5.39.54q-2.89.27-5.8.27a2.25,2.25,0,0,0,0,4.5Z"/><path d="M97.17,98.51c1.26,1.26,2.18,2.8,3.45,4a9.21,9.21,0,0,0,5.64,2.57A8.93,8.93,0,0,0,115.35,99a2.25,2.25,0,0,0-4.34-1.2c-.14.38,0-.07-.05.15s-.16.32-.25.47-.15.24-.22.37c-.32.54.14-.14-.09.14a7.12,7.12,0,0,1-.66.69s-.45.35-.27.22l-.29.19c-.15.09-.31.17-.47.25s-.42.18-.21.11-.3.09-.35.1l-.55.13c-.39.08.49,0-.2,0l-.45,0a5.44,5.44,0,0,1-.57,0c-.39,0,.48.12-.19,0a6.6,6.6,0,0,1-1-.28c-.36-.14.41.23-.19-.09l-.4-.23s-.47-.31-.34-.21-.26-.23-.3-.26a10.09,10.09,0,0,1-.72-.74c-1-1.12-1.83-2.38-2.89-3.45a2.25,2.25,0,0,0-3.19,3.18Z"/><path d="M93.09,51.21c2.9,0,2.9-4.5,0-4.5s-2.9,4.5,0,4.5Z"/><path d="M122.65,50V49.7a1.73,1.73,0,0,0-.19-.87,1.7,1.7,0,0,0-.47-.72,2.42,2.42,0,0,0-1.59-.66l-.6.08a2.26,2.26,0,0,0-1,.58l-.35.46a2.23,2.23,0,0,0-.31,1.13V50a1.68,1.68,0,0,0,.2.86A1.95,1.95,0,0,0,119.54,52a1.68,1.68,0,0,0,.86.2l.6-.08a2.26,2.26,0,0,0,1-.58l.36-.46a2.25,2.25,0,0,0,.3-1.13Z"/><path d="M81.88,86.26c-2.35,8.64-8.75,15.26-14.68,21.64-6.1,6.56-12.43,13.81-14.52,22.77-1.12,4.82-1.09,10,2.53,13.72,3.31,3.44,8,5.26,12.52,6.55a78.38,78.38,0,0,0,15.5,2.78c4.8.38,10.18.55,14.32-2.33,4.49-3.12,5.6-8.45,3.42-13.34s-6.85-7.42-11.34-9.51a2.32,2.32,0,0,0-3.08.81,2.27,2.27,0,0,0,.81,3.08c3.37,1.57,7.16,3.36,9.11,6.7,1.74,3,1.56,6.6-1.5,8.59-3.6,2.33-8.39,1.8-12.45,1.44a72.33,72.33,0,0,1-13.6-2.56C65,145.48,60.67,144,58,140.77c-2.51-3-1.46-7.67-.37-11.05C60.11,122,66,115.86,71.35,110c6.16-6.63,12.44-13.65,14.87-22.58.76-2.8-3.58-4-4.34-1.2Z"/><path d="M121.51,131.71a14.11,14.11,0,0,0-16.09,3.62c-2.1,2.43-3.8,6.07-2.78,9.31s4,4.67,7,5.3c3.75.79,7.66,1,11.46,1.44,4.16.48,8.32,1,12.49,1.4a60,60,0,0,0,22.28-1.87,57.54,57.54,0,0,0,21.53-11.69c2.2-1.9-1-5.07-3.18-3.19a52.43,52.43,0,0,1-34,12.6c-7.21,0-14.44-1.2-21.59-2-3.06-.35-6.34-.42-9.29-1.37a4.21,4.21,0,0,1-2.21-1.33c-.67-1-.29-2.29.12-3.29,1.76-4.3,7.57-6.89,11.9-5a2.32,2.32,0,0,0,3.08-.8,2.26,2.26,0,0,0-.8-3.08Z"/><path d="M190.84,97.63a10.17,10.17,0,0,0-9.78.91,11.32,11.32,0,0,0-5,9.39c-.11,8.32,6.92,14,14.26,16.15l-1-3.76c-4.1,4.18-8.29,8.48-11.07,13.68a26.75,26.75,0,0,0-2.88,8.05c-.44,2.6-1,6.24,1.2,8.23,1.94,1.77,4.71,1.45,7.06.92a33.6,33.6,0,0,0,6.82-2.37,35.39,35.39,0,0,0,11.45-8.59,35,35,0,0,0,7.72-14.33c.73-2.81-3.61-4-4.34-1.2a31,31,0,0,1-13.94,18.54,28.9,28.9,0,0,1-5.28,2.56,16.76,16.76,0,0,1-5.55,1.33c-.24,0-.47,0-.71-.06s-.33-.39-.1,0a1,1,0,0,1-.17-.49,10.36,10.36,0,0,1,.14-3.14,22.06,22.06,0,0,1,2.26-6.8c2.61-5.06,6.62-9.13,10.57-13.16a2.27,2.27,0,0,0-1-3.76c-5-1.51-10.31-5-10.91-10.66a7.15,7.15,0,0,1,2.35-6.4,5.8,5.8,0,0,1,5.59-1.16,2.34,2.34,0,0,0,3.08-.81,2.27,2.27,0,0,0-.81-3.08Z"/><path d="M144.06,78.48c2.25,1.25,4.76,1.46,7.27,1.72,2.76.28,5.53.47,8.3.59,5.54.24,11.09.19,16.63,0,11-.38,22.06-1.31,33.11-1.62,9.1-.26,20.32-1.39,27.08,6,2.65,2.9,4.93,7.5,4.15,11.53-.46,2.34-1.89,4.36-3.16,6.32s-2.68,4.12-4.11,6.13c-5.63,7.94-14.58,16.54-25.25,14.34-2.83-.59-4,3.75-1.2,4.34,10.4,2.15,20.07-3.8,26.56-11.5a104.55,104.55,0,0,0,9-12.85A16.48,16.48,0,0,0,245.19,96a17,17,0,0,0-1.38-7.4,21.86,21.86,0,0,0-8.94-10.49c-4.57-2.73-10-3.4-15.2-3.53-11.7-.31-23.41.7-35.08,1.32-6.52.34-13.05.6-19.59.53-3.34,0-6.68-.17-10-.42-1.63-.12-3.25-.27-4.88-.45a10.06,10.06,0,0,1-3.78-1c-2.53-1.4-4.81,2.48-2.27,3.88Z"/><path d="M220.62,77.84A90,90,0,0,0,243.3,35.7H239c3,14.08,6.44,32.55-6.5,43a2.26,2.26,0,0,0,0,3.18,2.3,2.3,0,0,0,3.18,0c6-4.85,9.26-12.35,10.28-19.86,1.27-9.24-.68-18.49-2.62-27.49-.46-2.16-3.85-2.13-4.34,0a85.56,85.56,0,0,1-21.52,40.16c-2,2.09,1.18,5.28,3.18,3.18Z"/><path class="cls-1" d="M239.58,85.5c8.73-4.62,27.33,4.28,34.89,9,8.37,5.25,7,20.61,7.63,30.47s-2,19.71-5.93,28.76a97.71,97.71,0,0,1-32.52,40c-9,6.43-19,11.27-29.09,15.84-8.53,3.87-17.19,7.59-26.28,9.84-10.32,2.56-21,3.18-31.65,3.34a381.77,381.77,0,0,1-76.86-6.61C65.85,213.55,52,210.1,39.29,203.74S15.2,187.91,8.48,175.44C-2,156,1,130.1,15.56,113.49S55.45,90.66,76.1,98.59l-1.37,2.24a39.49,39.49,0,0,0-38.85,15.48c-7.5,10.51-8.73,26.28,0,35.8a38.18,38.18,0,0,0,9,6.78c22.58,13.26,48.75,19,74.72,22.34,23.09,2.94,46.66,4.07,69.55-.16s45.2-14.17,61.39-30.9c5.41-5.59,10.16-12,12.66-19.38s2.54-15.8-1.07-22.69-11.23-11.84-19-11.15Z"/><path d="M240.71,87.45c2.22-1.14,5.16-1.13,7.76-.83a45.41,45.41,0,0,1,10,2.6,80.6,80.6,0,0,1,9.28,4.08c2.35,1.21,5.15,2.43,7,4.32,2.09,2.09,3.06,5,3.68,7.85a57.55,57.55,0,0,1,1.07,10.23c.13,3.51.25,7,.38,10.53a51.79,51.79,0,0,1-1.56,14.3c-4.23,17.22-14.7,33-27.78,44.82A109.68,109.68,0,0,1,227.7,200.8a260.79,260.79,0,0,1-26.91,12.27,105.89,105.89,0,0,1-29.26,6.8,274,274,0,0,1-31,.59,378.55,378.55,0,0,1-61.9-6.77c-18.22-3.55-36.85-8.74-51.72-20.33a61.27,61.27,0,0,1-16.38-18.87,51,51,0,0,1-6-22.37C3.93,136.43,10,120.68,22,110.31a54.44,54.44,0,0,1,42.58-12.4,51.33,51.33,0,0,1,11,2.85l-1.35-3.31-1.37,2.24,2.54-1a41.91,41.91,0,0,0-33,7.89c-9.13,7-15,17.76-14.77,29.4a27.17,27.17,0,0,0,4.92,15.5c4,5.4,10,8.79,15.76,11.89a164.81,164.81,0,0,0,38.54,14.29A311,311,0,0,0,128,184.46a239.84,239.84,0,0,0,44.91,1c26-2.14,51.95-10.24,72.17-27.17,9.64-8.07,19-18.63,21.45-31.34a30.94,30.94,0,0,0-2.07-19.17A23.79,23.79,0,0,0,251.7,96a19.47,19.47,0,0,0-8.54-1.28l2.17,1.65-3.58-11.44c-.86-2.76-5.21-1.58-4.34,1.19L241,97.55a2.27,2.27,0,0,0,2.17,1.65A17.54,17.54,0,0,1,257.22,105c4,4.25,5.63,10.12,5.51,15.85-.26,12.19-8.14,22.5-16.64,30.54-17.55,16.58-41.18,25.48-64.83,28.66a207.53,207.53,0,0,1-42.14.88,335.33,335.33,0,0,1-39.69-5.17A191.37,191.37,0,0,1,62,164.93a127.5,127.5,0,0,1-17.22-8.71c-4.68-2.84-8.87-6.32-11-11.5-3.9-9.43-1.2-21,5.15-28.75a37.61,37.61,0,0,1,27.53-13.54,34.39,34.39,0,0,1,7.65.57,2.34,2.34,0,0,0,2.54-1l1.38-2.24a2.28,2.28,0,0,0-1.35-3.3C61.29,90.57,43.5,92.27,29.06,100A55.38,55.38,0,0,0,1,139a59.94,59.94,0,0,0,.67,25,56.55,56.55,0,0,0,11.77,22.7c12.28,14.68,30.3,23,48.43,27.84a282.55,282.55,0,0,0,31.06,6.21q16.21,2.46,32.59,3.56t32.68.76c10.63-.21,21.35-1,31.67-3.64,10.06-2.62,19.61-6.94,29-11.28,9.24-4.27,18.37-8.89,26.62-14.89a100.4,100.4,0,0,0,33.62-42.72,71.49,71.49,0,0,0,4.44-14.94,64.45,64.45,0,0,0,.69-14.15c-.32-7.22.1-14.8-2.16-21.76a16.81,16.81,0,0,0-5.74-8.55,49.08,49.08,0,0,0-7.71-4.35c-6.59-3.24-13.77-6.14-21.16-6.71a16.85,16.85,0,0,0-9.05,1.53C235.86,84.88,238.14,88.76,240.71,87.45Z"/></g></g></svg>