<svg xmlns="http://www.w3.org/2000/svg" viewBox="0 0 120.68 144.1"><defs><style>.cls-1{fill:#fff;}.cls-2{fill:#d85d47;}</style></defs><g id="Capa_2" data-name="Capa 2"><g id="Layer_1" data-name="Layer 1"><path class="cls-1" d="M66.93,135.52a53.84,53.84,0,0,0-7.93-.21l-8.29,0a1.51,1.51,0,0,1-1.05-2.55,21.6,21.6,0,0,0,6-15.88c-.21-4.68-2.14-9.93-6.4-12.39-4.62-2.67-10.76-.89-15.18,1.4-8.33,4.32-14.73,13-15.54,22.43,1.61,4.53,5.59,7.32,10.05,8.7a56.7,56.7,0,0,0,15.45,2,159.12,159.12,0,0,0,16.2-.22,32.85,32.85,0,0,0,7.62-1.36c.33-.11,1.8-.47,1.68-.93C69.35,135.74,67.53,135.61,66.93,135.52Z"/><path class="cls-1" d="M67.61,9s0,0,0,.06c-3.43,5.32-6.88,10.65-9.84,16.24a31,31,0,0,0-3,7.2c-.49,2-.69,4.43.44,6.29s3.35,2.11,5.2,1.66A9.21,9.21,0,0,0,65.23,37c3.08-4,3-9.48,3-14.25l.1-8.7a16.07,16.07,0,0,0-.13-3.8A3.25,3.25,0,0,0,67.61,9Z"/><path class="cls-1" d="M112.61,13.83c0,.14.07.28.12.43a.41.41,0,0,0,0,.08,2.44,2.44,0,0,1,.2.36c.07.07.14.15.22.22h0c.15.07.32.08.06,0l.19,0h.17l.25-.08.13-.07.18-.12.15-.13a6.57,6.57,0,0,0-1.22-.83H113a2.1,2.1,0,0,1-.42-.15.57.57,0,0,0,0,.13S112.6,13.82,112.61,13.83Z"/><path class="cls-1" d="M113.6,15h0Z"/><path class="cls-1" d="M7,91.27a28.36,28.36,0,0,1,1.36-8.86c.5-1.5,1.23-2.88,1.84-4.33a6.74,6.74,0,0,0,.72-3.4,7.2,7.2,0,0,0-3.62,3.63,34.25,34.25,0,0,0-2.2,7.33c-2.15,8.89-3.6,18.44.54,27,2.39,4.94,6.48,8.71,10.11,12.9.23-2.66.51-5.32.86-8a39.29,39.29,0,0,1-5.2-8A41.57,41.57,0,0,1,7,91.27Z"/><path class="cls-1" d="M78.65,16.9h0v0C78.65,16.81,78.65,16.85,78.65,16.9Z"/><path class="cls-1" d="M109.85,17.7a4.16,4.16,0,0,1-1.51-2.06,1.27,1.27,0,0,1-1.11-.71,5.43,5.43,0,0,1-.44-2.55c-3.67-.34-7.4-.26-11.06-.51A53.4,53.4,0,0,1,88.81,11,14.19,14.19,0,0,1,82.9,8.3C79.77,5.94,76.28,3.11,72.18,3s-7.47,2.39-10.12,5.1a39,39,0,0,0-6.67,9.83c-2.79,5.57-4.83,11.53-7.75,17,0,0,0,0,0,0a.41.41,0,0,1,0,.09c-.31.59-.64,1.17-1,1.75-3,5.31-6,10.19-8.46,15.88a266.44,266.44,0,0,0-13,37.77A226.59,226.59,0,0,0,20,115.17a36.2,36.2,0,0,1,2.32-3.34,32,32,0,0,1,13-9.74c5.68-2.31,12.52-3,17.47,1.27,4.39,3.76,6.15,10,5.87,15.63a24.65,24.65,0,0,1-4.74,13.34l7.31,0a48.18,48.18,0,0,1,5.1.14,9.72,9.72,0,0,1,4.52,1.21,4,4,0,0,1,1.62,2.19,32.29,32.29,0,0,1,3.54-.44l-.3-1.83L75.6,133l-4.42-1.09a1.53,1.53,0,0,1-1-1.84A35.56,35.56,0,0,0,70.9,124c.48-8.55-.32-17.12-.88-25.65v0c-.55-3.39-1.12-6.77-1.73-10.15a1.54,1.54,0,0,1,1-1.84,1.51,1.51,0,0,1,1.84,1c.57,3.14,1.08,6.29,1.6,9.43q2.07,12.7,4.09,25.41c1,6.22,2,12.45,3.07,18.66.74-.14,1.48-.26,2.22-.41-.18-.7-.45-1.38-.62-2.08a19.54,19.54,0,0,1-.28-3.9c-.08-2.55-.2-5.11-.36-7.66-.49-7.72-1.52-15.39-1.73-23.12A165,165,0,0,1,80.32,81.9a1.51,1.51,0,0,1,1.3-1.47,1.49,1.49,0,0,1,1.64,1.07,125.55,125.55,0,0,1,2.85,13.42c1.16,7.39,1.74,14.84,2.45,22.28a180.66,180.66,0,0,0,3.24,22,20.9,20.9,0,0,0,2.64-.18,16.07,16.07,0,0,0,2-.41l.37-.1c-.38-1-1-1.89-1.42-2.85a16.42,16.42,0,0,1-1.08-4.91q-.78-5.66-1.62-11.31c-2-13.43-4.06-26.85-5.59-40.34C86,68.88,85.14,58.65,85,48.41h0v-.66q0-3.12,0-6.22v-.93c0-.65,0-1.15,0-1.55h0c.11-1.45.47-1.73,1.19-3.83a6.46,6.46,0,0,1,2.38-3.7,4.53,4.53,0,0,1,2.31-.73c1.25-.05,2.51-.05,3.77-.07l6.77-.12c0-.48,0-1-.07-1.42s0-1-.06-1.47c-3,.16-6-.06-8.94.11-1.93.11-1.92-2.88,0-3,2.17-.13,4.35,0,6.53,0a28.27,28.27,0,0,0,6.11-.6,37,37,0,0,0,6.93-2c1.45-.62,3.16-1.54,3.84-3.06a3.3,3.3,0,0,0,.21-.79,20.18,20.18,0,0,1-3.11.14A5.62,5.62,0,0,1,109.85,17.7ZM71.37,13.05c0,3.61-.07,7.22-.12,10.83-.07,5.73-.54,12-4.8,16.27a11.26,11.26,0,0,1-6.77,3.37,7.4,7.4,0,0,1-7.13-3.27c-1.46-2.4-1.41-5.42-.85-8.08a32.23,32.23,0,0,1,3.39-8.3c3-5.62,6.41-11,9.86-16.29l.36-1a1.53,1.53,0,0,1,1.44-1.1A4.65,4.65,0,0,1,70.56,8,10.38,10.38,0,0,1,71.37,13.05Zm7.88,5.17A1.06,1.06,0,0,1,78,19l0,0a1.63,1.63,0,0,1-.31,0,1.93,1.93,0,0,1-1.45-2.79,1,1,0,0,1,.85-.5,1.78,1.78,0,0,1,.58-.51,1.06,1.06,0,0,1,1.53.62,3.27,3.27,0,0,1,.14,2A1.07,1.07,0,0,1,79.25,18.22Zm6-2a1.57,1.57,0,0,1,0-3.14A1.57,1.57,0,0,1,85.2,16.2Z"/><path class="cls-1" d="M78.66,16.93a.43.43,0,0,1,0-.05h0Z"/><path class="cls-1" d="M75.08,129.8c-.38-2.3-.75-4.59-1.12-6.89a46.48,46.48,0,0,1-.63,6.46Z"/><path class="cls-2" d="M104.26,27.49l.06,1.52c0,.51.06,1,.1,1.53,0,.14,0,.56.07.67s-.06-.41,0-.17c0,0,0,.07,0,.11a2.23,2.23,0,0,0,0,.23,1.55,1.55,0,0,1,.06.23v0l0,0a3.18,3.18,0,0,0,.23.4.35.35,0,0,0,.05.08l.07.08.19.17.16.1.08,0h.12l.19,0,.07,0,.19-.1.18-.11h0v0c.08-.1.19-.2.28-.3s.16-.22.18-.26.19-.33.27-.5L107,31l0-.07a8.81,8.81,0,0,0,.33-1.11c0-.2.09-.41.13-.62a.88.88,0,0,0,0-.16.93.93,0,0,0,0-.14c0-.37,0-.74,0-1.11s0-.57,0-.81Z"/><path class="cls-2" d="M105.23,32.48h0l0,0Z"/><path d="M79.12,15.75a1.06,1.06,0,0,0-1.53-.62,1.78,1.78,0,0,0-.58.51,1,1,0,0,0-.85.5,1.93,1.93,0,0,0,1.45,2.79,1.63,1.63,0,0,0,.31,0l0,0a1.06,1.06,0,0,0,1.29-.73,1.07,1.07,0,0,0,0-.47A3.27,3.27,0,0,0,79.12,15.75Zm-.45,1.13h0Zm0,.1Zm0-.08s0-.09,0,0v0Zm0,0v0h0A.43.43,0,0,0,78.66,16.93Z"/><path d="M66.75,5.47a1.53,1.53,0,0,0-1.44,1.1l-.36,1c-3.45,5.33-6.89,10.67-9.86,16.29a32.23,32.23,0,0,0-3.39,8.3c-.56,2.66-.61,5.68.85,8.08a7.4,7.4,0,0,0,7.13,3.27,11.26,11.26,0,0,0,6.77-3.37c4.26-4.3,4.73-10.54,4.8-16.27,0-3.61.08-7.22.12-10.83A10.38,10.38,0,0,0,70.56,8,4.65,4.65,0,0,0,66.75,5.47Zm1.62,8.61-.1,8.7c0,4.77,0,10.28-3,14.25a9.21,9.21,0,0,1-4.89,3.37c-1.85.45-4.15.08-5.2-1.66s-.93-4.27-.44-6.29a31,31,0,0,1,3-7.2c3-5.59,6.41-10.92,9.84-16.24,0,0,0,0,0-.06a3.25,3.25,0,0,1,.63,1.33A16.07,16.07,0,0,1,68.37,14.08Z"/><path d="M116.5,8.61a8,8,0,0,0-4.93-1.21,5.28,5.28,0,0,0-3.69,2.12c-1.75-.17-3.51-.26-5.26-.33-2.49-.1-5-.16-7.47-.35A33.61,33.61,0,0,1,88,7.74c-2.18-.65-3.88-2.27-5.7-3.58A25.6,25.6,0,0,0,76.45.85c-9.09-3.46-17,4.29-21.36,11.41s-6.56,15-10.54,22.1c-.93,1.65-2,3.18-3,4.71h0a40.75,40.75,0,0,0-2.76,4.47C34.8,51.24,32,59.27,29,67.77A260,260,0,0,0,18.33,107c-.4,2.15-.75,4.31-1.09,6.47a39.67,39.67,0,0,1-6.06-13.25c-1.44-5.6-1.74-11.7.16-17.23,1.2-3.47,4-7.1,1.88-10.81a1.47,1.47,0,0,0-1.29-.74,8.44,8.44,0,0,0-5.76,3.17,16.94,16.94,0,0,0-3,6.52,89.86,89.86,0,0,0-3,15.49A34,34,0,0,0,1.77,111a32.61,32.61,0,0,0,6.42,10.5c1.42,1.64,2.88,3.24,4.31,4.86a53.86,53.86,0,0,1,3.5,4.22,2.08,2.08,0,0,0,.45.44c4.67,9.39,17,10.68,26.58,11,3,.09,6,.07,9,0s6,0,9-.31a30.93,30.93,0,0,0,8.83-1.82,5.73,5.73,0,0,0,1.6-.9,1.59,1.59,0,0,0,.48,0c.5-.11,1-.21,1.51-.3l.7-.11.33,0,.16,0c.63-.07,1.27-.12,1.91-.16.26,1.55.52,3.1.8,4.65a1.52,1.52,0,0,0,1.84,1c1.7-.4,3.43-.6,5.12-1a1.52,1.52,0,0,0,1.1-1.45,11.59,11.59,0,0,0-.68-3.17,11.1,11.1,0,0,1-.39-3.09c-.06-2.26-.16-4.52-.28-6.78-.25-4.38-.67-8.74-1.07-13.11a149.49,149.49,0,0,1-.69-20.18c.06-1.29.14-2.58.22-3.87.87,4.56,1.5,9.16,2,13.78.78,7.39,1.28,14.81,2.27,22.18.62,4.58,1.4,9.13,2.44,13.63a1.55,1.55,0,0,0,1.45,1.1,18.19,18.19,0,0,0,4.54-.22,9.79,9.79,0,0,0,4.23-1.31,1.58,1.58,0,0,0,.69-1.69,12.14,12.14,0,0,0-1.59-3.81,9.55,9.55,0,0,1-.69-1.53,14.84,14.84,0,0,1-.38-2.31c-.45-3.34-.93-6.67-1.41-10-1-6.68-2-13.36-3-20C91.12,88,89.38,74.72,88.5,61.38,88,54,87.8,46.67,88,39.31c.29-.89.57-1.79.87-2.69s.55-2.3,1.61-2.75c.08,0,.36-.08.39-.1h.44l1.89,0,9.09-.16a3.86,3.86,0,0,0,3.84,1.89c2-.29,3.27-2.19,3.87-4a11.4,11.4,0,0,0,.36-5.56l1.09-.35a15.35,15.35,0,0,0,5.17-2.75A6.58,6.58,0,0,0,119,17.71l.53-.14a1.5,1.5,0,0,0,1-1.05C121.17,13.27,119.26,10.25,116.5,8.61ZM15.78,125.55c-3.63-4.19-7.72-8-10.11-12.9-4.14-8.57-2.69-18.12-.54-27a34.25,34.25,0,0,1,2.2-7.33A7.2,7.2,0,0,1,11,74.68a6.74,6.74,0,0,1-.72,3.4c-.61,1.45-1.34,2.83-1.84,4.33A28.36,28.36,0,0,0,7,91.27a41.57,41.57,0,0,0,4.41,18.27,39.29,39.29,0,0,0,5.2,8C16.29,120.23,16,122.89,15.78,125.55ZM113,13.79h.09a6.57,6.57,0,0,1,1.22.83l-.15.13-.18.12-.13.07-.25.08h-.17l-.19,0c.26,0,.09,0-.06,0h0c-.08-.07-.15-.15-.22-.22a2.44,2.44,0,0,0-.2-.36.41.41,0,0,1,0-.08c0-.15-.08-.29-.12-.43s0,0,0-.06a.57.57,0,0,1,0-.13A2.1,2.1,0,0,0,113,13.79ZM113.6,15h0Zm-.8-.61,0,0ZM67.86,137.47a32.85,32.85,0,0,1-7.62,1.36,159.12,159.12,0,0,1-16.2.22,56.7,56.7,0,0,1-15.45-2c-4.46-1.38-8.44-4.17-10-8.7.81-9.46,7.21-18.11,15.54-22.43,4.42-2.29,10.56-4.07,15.18-1.4,4.26,2.46,6.19,7.71,6.4,12.39a21.6,21.6,0,0,1-6,15.88,1.51,1.51,0,0,0,1.05,2.55l8.29,0a53.84,53.84,0,0,1,7.93.21c.6.09,2.42.22,2.61,1C69.66,137,68.19,137.36,67.86,137.47ZM108.54,31.06a5.26,5.26,0,0,1-1.26,2.19,2.5,2.5,0,0,1-2.23.73,2.94,2.94,0,0,1-1.88-1.91c-.34-.9-.4-4.88-.46-5.85l6-.91A10.05,10.05,0,0,1,108.54,31.06Zm7.21-11.94c-.68,1.52-2.39,2.44-3.84,3.06a37,37,0,0,1-6.93,2,28.27,28.27,0,0,1-6.11.6c-2.18,0-4.36-.13-6.53,0-1.92.11-1.93,3.1,0,3,3-.17,6,.05,8.94-.11,0,.49,0,1,.06,1.47s0,.94.07,1.42l-6.77.12c-1.26,0-2.52,0-3.77.07a4.53,4.53,0,0,0-2.31.73,6.46,6.46,0,0,0-2.38,3.7C85.46,37.31,85.1,37.59,85,39h0c0,.4,0,.9,0,1.55v.93q0,3.1,0,6.22v.66h0c.18,10.24,1,20.47,2.16,30.66,1.53,13.49,3.62,26.91,5.59,40.34q.84,5.66,1.62,11.31a16.42,16.42,0,0,0,1.08,4.91c.44,1,1,1.86,1.42,2.85l-.37.1a16.07,16.07,0,0,1-2,.41,20.9,20.9,0,0,1-2.64.18,180.66,180.66,0,0,1-3.24-22c-.71-7.44-1.29-14.89-2.45-22.28A125.55,125.55,0,0,0,83.26,81.5a1.49,1.49,0,0,0-1.64-1.07,1.51,1.51,0,0,0-1.3,1.47,165,165,0,0,0-1.16,21.78c.21,7.73,1.24,15.4,1.73,23.12.16,2.55.28,5.11.36,7.66a19.54,19.54,0,0,0,.28,3.9c.17.7.44,1.38.62,2.08-.74.15-1.48.27-2.22.41-1.11-6.21-2.07-12.44-3.07-18.66q-2-12.7-4.09-25.41c-.52-3.14-1-6.29-1.6-9.43a1.51,1.51,0,0,0-1.84-1,1.54,1.54,0,0,0-1,1.84c.61,3.38,1.18,6.76,1.73,10.15v0c.56,8.53,1.36,17.1.88,25.65a35.56,35.56,0,0,1-.76,6.12,1.53,1.53,0,0,0,1,1.84L75.6,133l.09.57.3,1.83a32.29,32.29,0,0,0-3.54.44,4,4,0,0,0-1.62-2.19,9.72,9.72,0,0,0-4.52-1.21,48.18,48.18,0,0,0-5.1-.14l-7.31,0A24.65,24.65,0,0,0,58.64,119c.28-5.6-1.48-11.87-5.87-15.63-5-4.22-11.79-3.58-17.47-1.27a32,32,0,0,0-13,9.74A36.2,36.2,0,0,0,20,115.17a226.59,226.59,0,0,1,5.15-24.73,266.44,266.44,0,0,1,13-37.77C40.59,47,43.59,42.1,46.59,36.79c.34-.58.67-1.16,1-1.75a.41.41,0,0,0,0-.09s0,0,0,0c2.92-5.49,5-11.45,7.75-17a39,39,0,0,1,6.67-9.83C64.71,5.35,68.21,2.82,72.18,3s7.59,3,10.72,5.34A14.19,14.19,0,0,0,88.81,11a53.4,53.4,0,0,0,6.92.86c3.66.25,7.39.17,11.06.51a5.43,5.43,0,0,0,.44,2.55,1.27,1.27,0,0,0,1.11.71,4.16,4.16,0,0,0,1.51,2.06,5.62,5.62,0,0,0,3,.77,20.18,20.18,0,0,0,3.11-.14A3.3,3.3,0,0,1,115.75,19.12ZM75.08,129.8l-1.75-.43a46.48,46.48,0,0,0,.63-6.46C74.33,125.21,74.7,127.5,75.08,129.8Z"/><path d="M102.71,26.22c.06,1,.12,5,.46,5.85A2.94,2.94,0,0,0,105.05,34a2.5,2.5,0,0,0,2.23-.73,5.26,5.26,0,0,0,1.26-2.19,10.05,10.05,0,0,0,.15-5.75Zm2.52,6.26,0,0,0,0Zm0,0Zm2.26-3.57a.93.93,0,0,1,0,.14.88.88,0,0,1,0,.16c0,.21-.08.42-.13.62a8.81,8.81,0,0,1-.33,1.11l0,.07-.08.17c-.08.17-.17.33-.27.5s-.16.23-.18.26-.2.2-.28.3v0h0l-.18.11-.19.1-.07,0-.19,0h-.12l-.08,0-.16-.1-.19-.17-.07-.08a.35.35,0,0,1-.05-.08,3.18,3.18,0,0,1-.23-.4l0,0v0a1.55,1.55,0,0,0-.06-.23,2.23,2.23,0,0,1,0-.23s0-.07,0-.11c0-.24,0,.17,0,.17s0-.53-.07-.67c0-.5-.07-1-.1-1.53l-.06-1.52,3.24-.5c0,.24,0,.49,0,.81S107.52,28.54,107.5,28.91Z"/><path d="M85.2,13.06a1.57,1.57,0,0,0,0,3.14A1.57,1.57,0,0,0,85.2,13.06Z"/></g></g></svg>