<svg xmlns="http://www.w3.org/2000/svg" viewBox="0 0 88.94 91.64"><defs><style>.cls-1{fill:#fff;}</style></defs><g id="Capa_2" data-name="Capa 2"><g id="Layer_1" data-name="Layer 1"><path class="cls-1" d="M15.43,7.72l.11,0h.51a.32.32,0,0,1,.09,0l.31-.1h0a4.5,4.5,0,0,0,.43-.23l.05,0,.17-.13c.14-.13.26-.26.39-.4h0l0,0,.12-.19a1.34,1.34,0,0,0,.11-.21,0,0,0,0,0,0,0,2.8,2.8,0,0,0,.12-.46s0,0,0-.07,0-.2,0-.29V5.45c0-.1-.05-.19-.07-.29s0-.08,0-.13,0,0,0-.12-.18-.34-.28-.5a.13.13,0,0,1,0,0l-.18-.21L17,3.9l-.16-.12-.36-.23-.14-.07-.08,0h0l-.57-.15h-.07c-.12,0-.24,0-.36,0H15c.38,0,0,0-.07,0a4.91,4.91,0,0,0-.51.15l-.13.06h0l.11-.06-.21.11a4.85,4.85,0,0,0-.57.35h0l-.27.25a4.4,4.4,0,0,0-.35.39l0,0-.17.25c-.07.12-.13.24-.19.37h0a4.48,4.48,0,0,0-.16.52.4.4,0,0,0,0,.15c0-.11,0,.23,0,.26v.08l0,.09c.06.06.15.2.07.12l.07.07s.2.17.17.15l.08,0a6.28,6.28,0,0,0,.81.43l1.27.39Z"/><path class="cls-1" d="M3.13,21a.15.15,0,0,1,.05.06h0l1.36.42a12.32,12.32,0,0,0,1.89-.53l.09,0,0,0,.07,0a5.7,5.7,0,0,0,.54-.3l.17-.1,0,0A4.78,4.78,0,0,0,7.77,20l.08-.12a1,1,0,0,0,.1-.17c0-.09,0-.14,0-.14l.06-.18s0-.15,0-.23v-.11a.43.43,0,0,0,0-.16v-.1c0-.09,0-.17-.07-.26l0-.07,0,0,0,0a.24.24,0,0,1-.08-.06l-.06,0-.21-.06H7l-.21,0-.22,0q-.51.11-1,.24c-.33.09-.66.19-1,.31h0l-.07,0-.09,0-.4.22-.25.16c-.06.07-.1.1-.11.1l-.23.21h0s0,0-.09.11-.08.16-.13.23L3,20.23s0,.06,0,.09,0,.2,0,.31,0,0,0,.06H3a1.09,1.09,0,0,0,.05.17.21.21,0,0,0,0,.06Z"/><path class="cls-1" d="M83.07,67.13,82.88,67A.5.5,0,0,0,83.07,67.13Z"/><path class="cls-1" d="M3.24,19.75h0l.08-.09S3.27,19.69,3.24,19.75Z"/><path class="cls-1" d="M4.45,18.91a.27.27,0,0,0-.12.05Z"/><path class="cls-1" d="M3.62,19.38c-.06,0-.08.07-.07.07l.09-.09Z"/><path class="cls-1" d="M7.94,18.42H8C7.9,18.35,7.9,18.37,7.94,18.42Z"/><path class="cls-1" d="M3.11,21l0,0h0v0l0,0h0Z"/><path class="cls-1" d="M3.18,19.81l0,0v0S3.2,19.8,3.18,19.81Z"/><path class="cls-1" d="M83.15,83.89l.08.1-.06-.09,0,0Z"/><path class="cls-1" d="M84.66,66.5l0-.09v0Z"/><path class="cls-1" d="M83.11,83.84l0,0,0,0C83,83.69,83.06,83.78,83.11,83.84Z"/><path class="cls-1" d="M17.73,4.92h0l0,.12S17.75,5,17.73,4.92Z"/><path class="cls-1" d="M84.38,84.64a.57.57,0,0,0,.25,0Z"/><polygon class="cls-1" points="3.15 21.03 3.15 21.03 3.15 21.04 3.16 21.04 3.15 21.03"/><path class="cls-1" d="M84.56,66.68l-.09.1A.27.27,0,0,0,84.56,66.68Z"/><path class="cls-1" d="M84.69,66.41h0a.34.34,0,0,0,0-.15.13.13,0,0,0,0,.06Z"/><path class="cls-1" d="M83.51,84.24c-.13-.12-.09-.07,0,0Z"/><path class="cls-1" d="M3.1,20.93s0,0,0,0v0a0,0,0,0,1,0,0v0l0,0Z"/><path class="cls-1" d="M8,18.46l0,0v0l0,0h0Z"/><path class="cls-1" d="M7.94,18.43h0v0Z"/><path class="cls-1" d="M82.35,66s0,0,0,0v0Z"/><path class="cls-1" d="M8,18.51H8l0,0H8Z"/><path class="cls-1" d="M82.36,65.94h0a.06.06,0,0,1,0,0h0Z"/><path class="cls-1" d="M3.21,21.08h0v0h0Z"/><path class="cls-1" d="M7.85,18.37l.07,0,0-.05s0,0,0,0h0Z"/><path class="cls-1" d="M82.35,65.93l-.08.11c-.06.07,0,.08.07,0v-.06Z"/><polygon class="cls-1" points="3.15 21.03 3.15 21.03 3.16 21.04 3.15 21.03"/><path class="cls-1" d="M44.15,14.16a1.29,1.29,0,0,0-.06.21.76.76,0,0,1,0,.15l.06.18.12.22h0c.12.11.23.24.36.35l.23.15a2,2,0,0,0,.25.14l.09,0,.17.06.29.08.26.06.47,0,.17,0h.05l.24-.06.12-.05.14-.06.25-.15.1-.07.14-.12.24-.24L47.9,15a1,1,0,0,0,.1-.16,2.07,2.07,0,0,0,.15-.25l0,0a2.58,2.58,0,0,1,.08-.26v0a1.76,1.76,0,0,0,0-.19s0,0,0-.06L48,13.89l-.38-.08h-.06l-.83-.05-.87,0-.4,0-.12,0a7.08,7.08,0,0,0-.77.17l-.29.1,0,0Z"/><path class="cls-1" d="M8,19.69c0-.05,0-.1,0-.09a.56.56,0,0,0,0,.12Z"/><path class="cls-1" d="M7.92,19.82l0-.1v0A.34.34,0,0,0,7.92,19.82Z"/><path class="cls-1" d="M17.72,4.89v0h0Z"/><path class="cls-1" d="M6.57,20.89l-.11.05Z"/><path class="cls-1" d="M8,18.44H8Z"/><path class="cls-1" d="M3.17,21h0Z"/><path class="cls-1" d="M83.1,64.93l-.32.43-.39.52v.23c0,.06,0,.12,0,.19s0,.07,0,.11.13.22.2.33a.27.27,0,0,0,.07.08l.14.16.11.08.18.1,0,0h0l.18,0h.29l.19,0h0l.07,0,.18-.11,0,0,0,0,.15-.14s0,0,.06-.06l0,0c.07-.11.13-.22.19-.33s0-.18.06-.18l0-.11c0-.12,0-.24,0-.35s0-.13,0-.19l0-.09-.06-.09-.24-.24-.1-.06-.13-.07L84,65l-.17,0a.8.8,0,0,0-.15,0,2.26,2.26,0,0,0-.45,0Z"/><path class="cls-1" d="M3.68,19.32l0,0h0Z"/><path class="cls-1" d="M56.92,56v0Z"/><path class="cls-1" d="M56.17,56.69l0,0-.08,0C56.08,56.72,56.06,56.76,56.17,56.69Z"/><path class="cls-1" d="M56.24,56.67h0Z"/><path class="cls-1" d="M69.9,54.85v0a1.88,1.88,0,0,0,.14.24.21.21,0,0,0,0,.06l.15.17.2.17,0,0c.14.09.3.17.45.25l.26.08.29.07h0c.15,0,.31,0,.47,0l.22,0h0c.14,0,.31-.11.46-.13h0l.22-.13.06,0,.14-.12c.08-.07.15-.16.23-.24a4.87,4.87,0,0,0,.27-.45.25.25,0,0,1,0-.07,1.72,1.72,0,0,1,.07-.21c.05-.17.08-.34.12-.52h0c0-.11,0-.21,0-.31s0-.17,0-.26a1.54,1.54,0,0,0,0-.19s0-.08,0-.1,0-.2-.08-.3a2.25,2.25,0,0,0-.08-.24h0a5.5,5.5,0,0,0-.28-.48v0h0a1.8,1.8,0,0,0-.19-.2L73,51.67c-.17-.11-.33-.21-.5-.3l-.14-.07-.18-.06a3.83,3.83,0,0,0-.58-.16h-.09l-.24,0a4,4,0,0,0-.6,0h-.08l-.25,0-.57.17,0,0-.25.13s-.2.14-.28.18l0,0h0a.31.31,0,0,1,0,.1v0a.6.6,0,0,1,0,.12,2.08,2.08,0,0,0,0,.25c0,.07,0,.13,0,.2a2.21,2.21,0,0,0,0,.25c0,.22.1.45.16.67.2.48.39.95.58,1.43Z"/><path class="cls-1" d="M56.92,56.07V56s0,0,0,0S56.91,56.07,56.92,56.07Z"/><path class="cls-1" d="M12.57,5.24c0,.07-.06.16,0,0Z"/><path class="cls-1" d="M31.51,3.81a.64.64,0,0,1,0,.07c.1.38.19.76.29,1.14a.08.08,0,0,0,0,0,2.26,2.26,0,0,0,.26.16l.36.1h.42a2.85,2.85,0,0,0,.39-.11l.21-.12L33.6,5l.1-.16c0-.11.06-.22.08-.33a2,2,0,0,0,0-.35,3.25,3.25,0,0,0-.11-.42,2.48,2.48,0,0,0-.18-.31l-.2-.2-.16-.1L32.93,3h-.31a2.24,2.24,0,0,0-.37.1,3.35,3.35,0,0,0-.36.21l-.24.24C31.6,3.66,31.55,3.73,31.51,3.81Z"/><path class="cls-1" d="M42.67,74.13c.4,3.45,3.21,5.14,6.32,5.84a41.66,41.66,0,0,1,8.41,2.48,82.94,82.94,0,0,1,7.76,4.33c.73.43,1.46.86,2.2,1.27.18.1.89.62,1.1.57s.43-.48.56-.69a12.18,12.18,0,0,0,1.52-4.09,31.19,31.19,0,0,0,.58-8.24,10.65,10.65,0,0,0-2.72-7c-1.85-1.83-4.46-2.56-7-3a49.79,49.79,0,0,0-8.27-.58,13.21,13.21,0,0,0-7.62,2C43.62,69.05,42.33,71.27,42.67,74.13Z"/><path class="cls-1" d="M55.67,56.84c.07,0,.13,0,.14,0Z"/><path class="cls-1" d="M51.89,53.79h0Z"/><path class="cls-1" d="M69.87,54.8s0-.06,0-.07Z"/><path class="cls-1" d="M51.89,53.8h0s0,0,0,0Z"/><path class="cls-1" d="M51.88,53.85v0h0a.39.39,0,0,0,0,.11l.51,1.27.3.23v0s0,0,.05,0l.21.16c.29.2.58.4.89.58l.51.27c.07,0,.34.12.06,0l.18.06a2.75,2.75,0,0,0,.49.14l.15,0,.13,0h.26l.08,0,.15,0s.16-.06.25-.09l.09,0,.14-.08.18-.11.05,0,.16-.17,0,0h0l.09-.17h0v0a.18.18,0,0,1,0-.12v-.08h0a2,2,0,0,1-.07-.23c.08.27,0,0-.1-.12s-.22-.26,0,0l-.13-.14c-.09-.11-.2-.21-.3-.31l-.38-.34s-.18-.14-.24-.18l-.18-.14-.16-.12L55,53.94a8.21,8.21,0,0,0-.81-.48L54,53.37l-.12,0-.44-.13-.19,0s-.28,0-.39,0h0a.9.9,0,0,0-.22.06H52.5l-.06,0-.24.15h0l-.16.15,0,0a.83.83,0,0,1-.08.12l0,.07h0S51.88,53.81,51.88,53.85Z"/><path class="cls-1" d="M72.6,55.86Z"/><polygon class="cls-1" points="56.9 56.04 56.9 56.04 56.9 56.04 56.9 56.04"/><path class="cls-1" d="M56.94,55.9h0Z"/><path class="cls-1" d="M48.41,14.07h0Z"/><path class="cls-1" d="M56.92,55.92v0h0s0,0,0,0v0Z"/><polygon class="cls-1" points="3.16 21.06 3.17 21.07 3.17 21.07 3.17 21.06 3.16 21.06"/><polygon class="cls-1" points="56.9 56.05 56.91 56.05 56.9 56.04 56.9 56.05"/><path class="cls-1" d="M82.9,81.38l-.1.1-.09.17a1.59,1.59,0,0,0-.07.2l0,.16a4.17,4.17,0,0,0,0,.5c0,.07,0,.2,0,.24a3.24,3.24,0,0,0,.16.53h0s0,.11.08.16a3.85,3.85,0,0,0,.23.38l0,.07.11.13.23.22.08,0,.22.13.07,0,.16,0,.34.12h.77l.46-.13h0l.2-.12a.23.23,0,0,1,.07-.07s0,0,0-.07a.36.36,0,0,0,0-.09c0-.1-.09-.2-.14-.3-.15-.25-.31-.5-.48-.74L85.13,83h0c-.09-.12-.19-.24-.29-.35s-.45-.48-.69-.7l-.35-.31,0,0h0a4.65,4.65,0,0,0-.56-.34l-.19,0Z"/><path class="cls-1" d="M13.62,3.89Z"/><path class="cls-1" d="M16.23,3.44l.08,0Z"/><path class="cls-1" d="M12.5,40.64c2.45,1.91,5.54,1.56,8-.1s4.36-3.62,6.91-5a58.58,58.58,0,0,1,8.14-3.41c1.46-.53,3-1,4.37-1.64.74-.32.72-.28.48-1.09a9.59,9.59,0,0,0-.87-1.9A26.43,26.43,0,0,0,33.63,21C31.51,19.25,28.9,17.6,26,17.53S20.75,19,18.7,20.73a51.34,51.34,0,0,0-5.87,6.11C11.06,29,9.51,31.47,9.36,34.31A8.51,8.51,0,0,0,12.5,40.64Z"/><path class="cls-1" d="M16.18,3.42l.05,0h0Z"/><path class="cls-1" d="M54.07,50.27a7.77,7.77,0,0,1,3,1.47,8.16,8.16,0,0,1,2.41,2.38,3.6,3.6,0,0,1,.05,3.46,4.45,4.45,0,0,1-2.45,2c-2.14.79-4.32-.31-6-1.59-.28-.21-.57-.41-.82-.64a2,2,0,0,1-.51-.78c-.07-.18-.14-.36-.22-.54s-.25-.63-.38-.94a1.39,1.39,0,0,1-.12-.28.92.92,0,0,1-.07-.36,3.51,3.51,0,0,1,1.22-3.2A4.49,4.49,0,0,1,54.07,50.27Zm-12.78-37,0-.08c.41-1.68,2.47-2.18,4-2.36a8,8,0,0,1,4.4.54,2.63,2.63,0,0,1,1.45,1.91A4.44,4.44,0,0,1,50.11,17a5,5,0,0,1-2.84,1.74,5.78,5.78,0,0,1-3.38-.43C42,17.48,40.51,15.36,41.29,13.27ZM28.5,3.46A4.12,4.12,0,0,1,30.21.85,4.24,4.24,0,0,1,33,0a3.91,3.91,0,0,1,2.6,1.16,4.37,4.37,0,0,1,1.17,2.25,4.53,4.53,0,0,1-.38,2.81,4,4,0,0,1-2.16,1.85,4.36,4.36,0,0,1-4.74-1.14,2.39,2.39,0,0,1-.52-1c-.05-.21-.11-.42-.16-.64s-.18-.7-.26-1.06a1.57,1.57,0,0,1,0-.68S28.49,3.5,28.5,3.46ZM10.41,3A6,6,0,0,1,16.67.43a5.71,5.71,0,0,1,4.22,5.2,5.24,5.24,0,0,1-3.95,5A7.71,7.71,0,0,1,12.68,10a1.36,1.36,0,0,1-.3-.13l-.06,0A4.59,4.59,0,0,1,9.48,7.12,5.17,5.17,0,0,1,10.41,3ZM4.09,24.46a5.16,5.16,0,0,1-.52-.16l-1.33-.4a1.76,1.76,0,0,1-.39-.19A3.3,3.3,0,0,1,.57,22.58,3.87,3.87,0,0,1,0,20.83a4.28,4.28,0,0,1,1.14-3.25,6.68,6.68,0,0,1,3-1.72,10.27,10.27,0,0,1,3.28-.6A3.69,3.69,0,0,1,10.61,17,4.28,4.28,0,0,1,11,20.18c-.58,2.31-2.78,3.48-4.93,4A4.47,4.47,0,0,1,4.09,24.46ZM26.42,39.68c-2.71,1.94-5,4.6-8.48,5.15a9.63,9.63,0,0,1-8.68-3.16,11.55,11.55,0,0,1-2.84-6.86,1.56,1.56,0,0,1-.06-.5,1.64,1.64,0,0,1,.07-.64c.4-3.69,2.41-6.79,4.81-9.58s5.21-5.89,8.51-7.81a11.74,11.74,0,0,1,9.6-1.18,22.57,22.57,0,0,1,8.53,5.78c2.38,2.35,5.29,5.39,5.65,8.9a3.17,3.17,0,0,1-2.25,3.37c-1.69.71-3.42,1.32-5.14,1.94A39.15,39.15,0,0,0,26.42,39.68Zm47.7,39.16c-.18,3.45-.55,7.2-2.3,10.25-.8,1.42-2,2.82-3.79,2.5S64.7,90,63.28,89.15c-3.14-1.86-6.27-3.88-9.76-5-3.31-1.1-7.11-1-10-3.16a9.39,9.39,0,0,1-3.84-8.3,11.89,11.89,0,0,1,3.85-7.77,1.72,1.72,0,0,1,.31-.24C47,62.34,51,62,54.76,62.08a37.83,37.83,0,0,1,10.75,1.45,11.88,11.88,0,0,1,7.13,5.94A19.15,19.15,0,0,1,74.12,78.84Zm.87-21A4.94,4.94,0,0,1,71.73,59a5.37,5.37,0,0,1-3-1,4.87,4.87,0,0,1-1.27-1.33A7,7,0,0,1,67,55.53c-.15-.39-.31-.78-.47-1.17a1.48,1.48,0,0,1-.12-.29,1.09,1.09,0,0,1-.07-.3c-.37-1.5-.44-3.17.79-4.31A5.79,5.79,0,0,1,70.94,48a5.88,5.88,0,0,1,5.62,3.74A5.6,5.6,0,0,1,75,57.87ZM79.49,65a3.24,3.24,0,0,1,.71-1.18l.63-.85.07-.07a1.51,1.51,0,0,1,.47-.47,4.38,4.38,0,0,1,5.36.85,3.93,3.93,0,0,1,1.06,2.6A4.19,4.19,0,0,1,87,68.41a4.45,4.45,0,0,1-2.37,1.72,4,4,0,0,1-2.9-.34A4.4,4.4,0,0,1,79.49,65Zm7.78,22a5,5,0,0,1-3.51.5,5.18,5.18,0,0,1-4-4.08,4.89,4.89,0,0,1,.15-2.81,3.76,3.76,0,0,1,2-2.07l0,0a2.68,2.68,0,0,1,2.77.1,7.67,7.67,0,0,1,2,1.56,7,7,0,0,1,2.28,4.19A3.15,3.15,0,0,1,87.27,87Z"/><path class="cls-1" d="M83.94,64.94,84,65h0Z"/><path class="cls-1" d="M84.06,65h0l.13.07C84.26,65.1,84.15,65,84.06,65Z"/><path class="cls-1" d="M52.42,53.27h0Z"/><path class="cls-1" d="M56.92,56s0,0,0,0Z"/><path d="M6.36,34.31c0-.21,0-.42.07-.64A1.64,1.64,0,0,0,6.36,34.31Z"/><path d="M43.53,29.78c-.36-3.51-3.27-6.55-5.65-8.9a22.57,22.57,0,0,0-8.53-5.78,11.74,11.74,0,0,0-9.6,1.18c-3.3,1.92-6,4.94-8.51,7.81S6.83,30,6.43,33.67c.47-1.24,2.77-1,2.93.64.15-2.84,1.7-5.32,3.47-7.47a51.34,51.34,0,0,1,5.87-6.11c2.05-1.78,4.54-3.27,7.34-3.2s5.47,1.72,7.59,3.51a26.43,26.43,0,0,1,5.89,6.46,9.59,9.59,0,0,1,.87,1.9c.24.81.26.77-.48,1.09-1.42.62-2.91,1.11-4.37,1.64a58.58,58.58,0,0,0-8.14,3.41c-2.55,1.38-4.53,3.4-6.91,5s-5.54,2-8,.1a8.51,8.51,0,0,1-3.14-6.33,1.53,1.53,0,0,1-2.94.5,11.55,11.55,0,0,0,2.84,6.86,9.63,9.63,0,0,0,8.68,3.16c3.46-.55,5.77-3.21,8.48-5.15a39.15,39.15,0,0,1,9.72-4.59c1.72-.62,3.45-1.23,5.14-1.94A3.17,3.17,0,0,0,43.53,29.78Z"/><path d="M6.42,34.81l-.06-.5A1.56,1.56,0,0,0,6.42,34.81Z"/><path d="M9.36,34.31c-.16-1.66-2.46-1.88-2.93-.64,0,.22-.06.43-.07.64l.06.5A1.53,1.53,0,0,0,9.36,34.31Z"/><path d="M3.17,21l0,0h0l0,0Z"/><path d="M3.17,21h0v0h0Z"/><path d="M3.18,21.05A.15.15,0,0,0,3.13,21l0,0h0Z"/><polygon points="3.16 21.04 3.15 21.03 3.16 21.04 3.17 21.05 3.16 21.04"/><path d="M3.16,21.06h0Z"/><path d="M7.93,18.43l0,0,0,0Z"/><path d="M7.82,18.33h0Z"/><path d="M7.82,18.33h0c.17,0-.23-.13-.08,0h.05Z"/><path d="M4.89,21.57l-.34-.1-.45.1Z"/><path d="M3.21,21.07c.13.06.06,0,0,0h0Z"/><path d="M3.66,19.35h0l-.09.09S3.6,19.42,3.66,19.35Z"/><path d="M7.82,18.33h0l.06,0Z"/><path d="M7.93,18.43v0l-.07,0A.24.24,0,0,0,7.93,18.43Z"/><path d="M8,18.51s0,0,0,0a.05.05,0,0,0,0,0c.14.24-.08-.29,0-.11v0H8Z"/><path d="M8,18.49l0,.07s0,0,0,0Z"/><path d="M8,18.43Z"/><polygon points="3.18 21.05 3.19 21.05 3.18 21.05 3.18 21.05"/><path d="M8,18.52H8Z"/><path d="M8,18.49H8l0,0Z"/><path d="M3.08,21h0v0Z"/><path d="M3.08,21s0,0,0,0Z"/><path d="M3.31,19.67l-.08.09v0C3.31,19.71,3.33,19.67,3.31,19.67Z"/><path d="M3.08,21h0s0-.06,0-.05v0l0-.06c-.08-.13.06.22.06.18S3.06,21,3.08,21Z"/><path d="M3.1,20.93a.21.21,0,0,1,0-.06v0S3.09,20.92,3.1,20.93Z"/><path d="M3,20.67c0,.21,0,.11,0,0S3,20.39,3,20.67Z"/><path d="M3.12,19.92l-.06.14,0,0h0Z"/><path d="M3,20.39s0-.05,0-.07v-.05C3,20.07,2.93,20.67,3,20.39Z"/><path d="M2.24,23.9l-.39-.19A1.76,1.76,0,0,0,2.24,23.9Z"/><path d="M3.16,21.06,3,21l.13.06Z"/><path d="M3.4,23.75a1.52,1.52,0,0,0,.69-.9,1.49,1.49,0,0,0-.15-1.15,1.62,1.62,0,0,0-.72-.61l0,0s0,0,0,0h0s0,0,0,0,0,0,0,0L3,21a1.5,1.5,0,0,0-1.84,1,1.52,1.52,0,0,0,.65,1.66l.39.19A1.52,1.52,0,0,0,3.4,23.75Z"/><path d="M11,20.18A4.28,4.28,0,0,0,10.61,17a3.69,3.69,0,0,0-3.22-1.76,10.27,10.27,0,0,0-3.28.6,6.68,6.68,0,0,0-2.95,1.72A4.28,4.28,0,0,0,0,20.83a3.87,3.87,0,0,0,.55,1.75,3.3,3.3,0,0,0,1.28,1.13,1.52,1.52,0,0,1-.65-1.66A1.5,1.5,0,0,1,3,21l.12,0h0l0,0s-.14-.31-.06-.18l0,.06A1.09,1.09,0,0,1,3,20.7H3c0,.09,0,.19,0,0s0,0,0,0,0-.05,0-.06,0-.21,0-.31,0,0,0,.07c-.07.28,0-.32,0-.12v.05s0-.06,0-.09L3.09,20l0,0,.06-.14,0,.08h0c.05-.07.09-.16.13-.23l0,0s0,0,0,0h0c0-.06,0-.08.07-.08h0l.23-.21s0,0,.07-.07l0,0,0,0,0,0,.25-.16.4-.22.09,0,.07,0h0L4.33,19a.27.27,0,0,1,.12-.05h.07c.32-.12.65-.22,1-.31s.68-.17,1-.24l.22,0,.21,0c-.1,0-.27,0-.07,0h.69c-.29-.1.25,0,0,0h0l.21.06h0c-.15-.11.25.05.08,0,0,0,0,0,0,0l0,.05h0c0-.05,0-.07,0,0H8l0,0v0l0,0v0c0-.18.18.35,0,.11a.05.05,0,0,1,0,0c0,.09.05.17.07.26v-.07c0-.3.08.37,0,.08h0v.1a.43.43,0,0,1,0,.16v.11c0-.08,0-.13,0,0s0,.09,0,0c0,.08,0,.19,0,.23L8,19.6s0,0,0,.09v0l0,.1a.34.34,0,0,1,0-.08,1,1,0,0,1-.1.17L7.77,20l0,0c.19-.19-.18.29,0,0v0a4.78,4.78,0,0,1-.39.39l0,0s.07-.05.08-.08-.15.15-.08.08l-.17.1a5.7,5.7,0,0,1-.54.3l-.07,0c.06,0,.07,0,0,0l-.11.05.11-.05h0l0,0-.09,0a12.32,12.32,0,0,1-1.89.53l.34.1H4.1l.45-.1-1.36-.42c.08,0,.15.08,0,0v0a1.62,1.62,0,0,1,.72.61,1.49,1.49,0,0,1,.15,1.15,1.5,1.5,0,0,1-1.85,1l1.33.4a5.16,5.16,0,0,0,.52.16A4.47,4.47,0,0,0,6,24.21C8.18,23.66,10.38,22.49,11,20.18Z"/><path d="M3.16,21,3,21l.12,0Z"/><path d="M3.16,21.06v0h0v0Z"/><polygon points="3.15 21.03 3.15 21.03 3.15 21.03 3.15 21.03 3.15 21.03"/><path d="M7.57,18.27h0C7.82,18.27,7.28,18.17,7.57,18.27Z"/><path d="M7.44,20.37s-.05.05-.08.08S7.39,20.48,7.44,20.37Z"/><path d="M6.58,20.89h0C6.65,20.86,6.64,20.86,6.58,20.89Z"/><path d="M7.79,20l0,0v0C7.61,20.3,8,19.82,7.79,20Z"/><path d="M3.09,21l0,0,0,0s0,0,0,0Z"/><path d="M8,19.72a.56.56,0,0,1,0-.12s0,0,0,.14Z"/><path d="M3.13,21l0-.06,0,.06Z"/><path d="M3.07,20.9s0,0,0,.05a0,0,0,0,0,0,0Z"/><path d="M3.25,21.12l0,0h0S3.24,21.11,3.25,21.12Z"/><path d="M3.13,21s0,0,0,0h0l0,0Z"/><path d="M6.88,18.28c-.2,0,0,0,.07,0Z"/><path d="M3.18,21.1s0,0,0,0h0S3.18,21.09,3.18,21.1Z"/><path d="M4.45,18.91h0Z"/><path d="M8.11,19.21c0-.15,0-.1,0,0S8.09,19.41,8.11,19.21Z"/><path d="M8.11,18.75v.07h0C8.19,19.12,8.1,18.45,8.11,18.75Z"/><path d="M15.65,7.77l-.11,0h0C15.4,7.74,15.45,7.74,15.65,7.77Z"/><path d="M15.61,3.27c.18,0-.23-.06,0,0Z"/><path d="M16.23,3.44h0l.08,0Z"/><path d="M13.55,3.93a.05.05,0,0,0,0,0l0,0Z"/><path d="M17.72,4.91h0c0,.1,0,.13,0,.12Z"/><path d="M13,4.56h0C13.09,4.33,12.81,4.73,13,4.56Z"/><path d="M17.41,4.36v0C17.56,4.54,17.28,4.15,17.41,4.36Z"/><path d="M16.81,3.78l.09.06Z"/><path d="M12.57,5.24h0a.08.08,0,0,0,0,0Z"/><path d="M12.32,9.86l.06,0a1.53,1.53,0,0,1-.74-1.71,1.5,1.5,0,0,1,1.84-1l.1,0a6.28,6.28,0,0,1-.81-.43l-.08,0-.12-.08.12.08s-.14-.11-.17-.15l-.07-.07,0,0,0,0,0,0,0,0,0,0c0-.08,0-.07,0,0l0-.09c0,.07,0,.12,0,0l0,0V6.16s.05-.37,0-.26a.29.29,0,0,0,0,.09.17.17,0,0,1,0-.09.4.4,0,0,1,0-.15,4.48,4.48,0,0,1,.16-.52h0c-.06.16,0,.07,0,0v0a.08.08,0,0,1,0,0h0c.06-.13.12-.25.19-.37l.17-.25,0,0h0c-.14.17.14-.23,0,0a4.4,4.4,0,0,1,.35-.39l.27-.25h0a.05.05,0,0,1,0,0l.07,0h0l0,0a4.85,4.85,0,0,1,.57-.35l.21-.11-.11.06.13-.06a4.91,4.91,0,0,1,.51-.15c.09,0,.45,0,.07,0h.24c.12,0,.24,0,.36,0h0c-.23-.06.18,0,0,0h0l.57.15h0l-.05,0,.05,0,.08,0,.14.07.36.23.09.06-.09-.06L17,3.9l.26.25.18.21c-.13-.21.15.18,0,0v0a.13.13,0,0,0,0,0c.1.16.19.33.28.5v0h0s0,.11,0,.11,0,.09,0,.13,0,.19.07.29v0c0-.24.07.25,0,0v0c0,.09,0,.19,0,.29s0,.05,0,.07,0,0,0-.07c0,.27,0,.19,0,.07a2.8,2.8,0,0,1-.12.46,0,0,0,0,1,0,0,.2.2,0,0,0,0-.08c0,.23-.05.18,0,.08a1.34,1.34,0,0,1-.11.21l-.12.19,0,0c.16-.17-.09.17,0,0h0c-.13.14-.25.27-.39.4l-.17.13c.08,0,.22-.14.07,0l-.07,0-.05,0a4.5,4.5,0,0,1-.43.23c.24-.07,0,0-.06,0l.06,0h0l-.31.1a.32.32,0,0,0-.09,0h.06c-.26.11-.17.06-.06,0h-.51l.11,0c-.2,0-.25,0-.13,0h0l-.11,0-.58-.18-1.27-.39.26.12a1.5,1.5,0,0,1-1.46,2.61,1.36,1.36,0,0,0,.3.13,7.71,7.71,0,0,0,4.26.59,5.24,5.24,0,0,0,3.95-5A5.71,5.71,0,0,0,16.67.43,6,6,0,0,0,10.41,3a5.17,5.17,0,0,0-.93,4.14A4.59,4.59,0,0,0,12.32,9.86Z"/><path d="M12.41,6.41l0,0Z"/><path d="M12.69,6.67l-.12-.08Z"/><path d="M12.38,5.9a.17.17,0,0,0,0,.09A.29.29,0,0,1,12.38,5.9Z"/><path d="M17.88,5.48c.07.25,0-.24,0,0Z"/><path d="M12.35,6.24l0,0C12.37,6.36,12.36,6.31,12.35,6.24Z"/><path d="M12.36,6.36l0,0h0Z"/><path d="M12.39,6.39h0l0,0h0Z"/><path d="M17.9,5.81s0,.05,0,.07S17.94,6.08,17.9,5.81Z"/><path d="M14.26,3.51Z"/><path d="M12.41,6.41l0,0,0,0Z"/><path d="M12.38,6.33s0,.06,0,.08l0,0C12.53,6.53,12.44,6.39,12.38,6.33Z"/><path d="M14.38,9.32a1.53,1.53,0,0,0-.54-2.05l-.26-.12-.1,0a1.5,1.5,0,0,0-1.84,1,1.5,1.5,0,0,0,2.74,1.15Z"/><path d="M12.38,6.33s0,0,0,0l0,0,0,0S12.4,6.37,12.38,6.33Z"/><path d="M16.46,7.61l-.06,0C16.45,7.62,16.7,7.54,16.46,7.61Z"/><path d="M17,7.31c.15-.1,0,0-.07,0Z"/><path d="M17.51,6.81c-.09.17.16-.17,0,0Z"/><path d="M17.8,6.29a.2.2,0,0,1,0,.08C17.75,6.47,17.77,6.52,17.8,6.29Z"/><path d="M16.11,7.73h-.06C15.94,7.79,15.85,7.84,16.11,7.73Z"/><path d="M33.06,3l0,0h0l0,0Z"/><path d="M33.43,3.26h0Z"/><path d="M32.93,3H33l0,0-.21,0h0Z"/><path d="M32.79,3h0Z"/><path d="M33.13,3.08l.09,0,0,0L33.06,3h0Z"/><path d="M33.29,3.18l.13.07h0l-.16-.12h0A.46.46,0,0,1,33.29,3.18Z"/><path d="M33.25,3.12l0,0h0l0,0Z"/><path d="M31.51,3.81s0-.08,0-.13l0,0-.05.12v0S31.5,3.83,31.51,3.81Z"/><path d="M31.55,3.67l0,0h0l0,0Z"/><path d="M32.76,3l-.35,0h.21l.15,0Z"/><path d="M33.49,3.38a1.06,1.06,0,0,1,.15.15l-.21-.27h0A.83.83,0,0,1,33.49,3.38Z"/><polygon points="31.74 3.43 31.74 3.43 31.73 3.43 31.74 3.43 31.74 3.43"/><path d="M31.65,3.58a1.19,1.19,0,0,1,.09-.15h0l-.18.24h0A.94.94,0,0,0,31.65,3.58Z"/><path d="M31.89,3.34c.05,0,.09-.1.14-.14l-.29.23h0Z"/><path d="M32.77,3l-.15,0h.31Z"/><path d="M31.65,3.58l.24-.24-.15.09A1.19,1.19,0,0,0,31.65,3.58Z"/><path d="M32,5.2h0Z"/><path d="M33.5,5.11,33.56,5l0,0S33.52,5.1,33.5,5.11Z"/><path d="M33.79,4.65h0Z"/><path d="M33.65,5l0-.09,0,0A.13.13,0,0,0,33.65,5Z"/><path d="M33.63,5l-.05,0,0,0Z"/><path d="M33.74,4.81s0,0,0,0v0A.18.18,0,0,1,33.74,4.81Z"/><path d="M33.84,4.26a0,0,0,0,0,0,0h0Z"/><path d="M33.8,4.62h0Z"/><polygon points="33.84 4.3 33.83 4.29 33.83 4.3 33.84 4.3"/><path d="M33.62,3.52a1.09,1.09,0,0,1,.05.17c0,.07.08.12.11.18C33.73,3.76,33.67,3.64,33.62,3.52Z"/><path d="M32.23,5.31h0Z"/><path d="M31.49,3.86v0a.64.64,0,0,0,0-.07S31.49,3.84,31.49,3.86Z"/><path d="M31.89,5.17h0Z"/><path d="M31.55,3.68s0,.09,0,.13.09-.15.14-.23A.94.94,0,0,1,31.55,3.68Z"/><path d="M33.05,5.32h-.19l-.21,0Z"/><polygon points="32.25 5.32 32.25 5.32 32.25 5.32 32.25 5.32"/><path d="M33.33,5.22l0,0h0S33.34,5.22,33.33,5.22Z"/><path d="M33.44,5.16h0l0,0Z"/><path d="M28.65,4.62a1.53,1.53,0,0,0,.89.69,1.51,1.51,0,0,0,1.16-.15,1.45,1.45,0,0,0,.69-.9c0-.13.07-.25.1-.38v0a.5.5,0,0,0-.08.12s.05-.1.07-.16l-.09-.36a1.51,1.51,0,0,0-1.85-1,1.54,1.54,0,0,0-1.06,1.16A1.59,1.59,0,0,0,28.65,4.62Z"/><polygon points="31.73 3.44 31.73 3.43 31.74 3.43 31.73 3.44"/><path d="M31.56,3.62l0,.07,0,0A.09.09,0,0,0,31.56,3.62Z"/><path d="M32.05,3.19l.2-.06.16-.1Z"/><path d="M31.52,3.71h0Z"/><path d="M31.75,3.41v0h0Z"/><path d="M33.29,3.18l.2.2a.83.83,0,0,0-.07-.13Z"/><path d="M31.49,3.86v0c0,.06-.05.11-.07.16A.5.5,0,0,1,31.49,3.86Z"/><path d="M28.5,4.26c.08.36.17.71.26,1.06s.11.43.16.64a2.39,2.39,0,0,0,.52,1,4.36,4.36,0,0,0,4.74,1.14,4,4,0,0,0,2.16-1.85,4.53,4.53,0,0,0,.38-2.81,4.37,4.37,0,0,0-1.17-2.25A3.91,3.91,0,0,0,33,0a4.24,4.24,0,0,0-2.74.84A4.12,4.12,0,0,0,28.5,3.46s0,.08,0,.12a1.54,1.54,0,0,1,1.06-1.16,1.51,1.51,0,0,1,1.85,1l.09.36.05-.12h0v0l0-.07a.09.09,0,0,1,0,0l.18-.24h0v0L32,3.2c-.05,0-.09.1-.14.14a3.35,3.35,0,0,1,.36-.21l-.2.06L32.41,3l-.16.1a2.24,2.24,0,0,1,.37-.1h-.21l.35,0h0L33,3l0,0L33,3l.1,0h-.07l.14.06s0,0-.05,0l.08.06.09,0-.07,0,.16.12a0,0,0,0,0,0,0l0,0,0,0,0,0,.21.27a1.06,1.06,0,0,0-.15-.15,2.48,2.48,0,0,1,.18.31,1.09,1.09,0,0,0-.05-.17c.05.12.11.24.16.35,0-.06-.08-.11-.11-.18a3.25,3.25,0,0,1,.11.42,1.47,1.47,0,0,0,0-.21c0,.13,0,.26,0,.38a0,0,0,0,1,0,0v0h0c0,.11,0,.22,0,.33h0v0h0l-.09.21s0,0,0,0a.18.18,0,0,0-.05.07l0,.09a.13.13,0,0,1,0-.06L33.58,5l.05,0-.07,0-.06.07s0,0,0-.05l-.14.11h0l-.07,0,0,0s0,0,0,0l-.27.11.17-.1a2.85,2.85,0,0,1-.39.11h.19l-.4,0,.21,0h-.42l.19,0-.38,0h0l-.3-.12h0l0,0h0l-.13-.1c0,.1.05.19.07.29L31.71,5l-.06,0,.05,0-.16-.21a1.73,1.73,0,0,0,.24.23c-.1-.38-.19-.76-.29-1.14,0,.13-.08.25-.1.38a1.45,1.45,0,0,1-.69.9,1.51,1.51,0,0,1-1.16.15,1.53,1.53,0,0,1-.89-.69,1.59,1.59,0,0,1-.17-1A1.57,1.57,0,0,0,28.5,4.26Z"/><path d="M33.4,3.22a0,0,0,0,1,0,0h0Z"/><path d="M33.15,3s0,0,.05,0h0Z"/><path d="M33.32,3.14l-.09,0,0,0Z"/><path d="M32.73,3h0Z"/><path d="M33.46,3.28l0,0h0Z"/><path d="M32.81,3h0Z"/><path d="M33,3l0,0h0Z"/><path d="M33.13,3,33,3l0,0Z"/><path d="M32.08,5.22a2.26,2.26,0,0,1-.26-.16l.11.12Z"/><path d="M33.46,5.09l-.09.09h0l.14-.11,0,0Z"/><path d="M33.35,5.2h0l0,0h0Z"/><path d="M33.53,5.06l0,0,0,0,0,0Z"/><path d="M33.7,4.79,33.6,5a.46.46,0,0,1,.07-.07Z"/><path d="M33.25,5.21l-.17.1.27-.11,0,0Z"/><path d="M31.82,5.06a.08.08,0,0,1,0,0V5Z"/><path d="M33.46,5.09l-.21.12.12,0Z"/><path d="M33.66,4.91l0,0v0l0,0A0,0,0,0,1,33.66,4.91Z"/><path d="M33.6,5a.73.73,0,0,0-.05.09l0,0,.08-.11a0,0,0,0,0,0,0A.46.46,0,0,0,33.6,5Z"/><path d="M33.83,4.28c0-.12,0-.25,0-.38a1.47,1.47,0,0,1,0,.21c0,.06,0,.11,0,.18Z"/><path d="M33.83,4.29c0-.07,0-.12,0-.18a2,2,0,0,1,0,.35A1.09,1.09,0,0,0,33.83,4.29Z"/><path d="M32.93,3l.2.05L33,3Z"/><path d="M33.13,3.08l.16.1a.46.46,0,0,0-.07-.07Z"/><path d="M33.83,4.3h0Z"/><polygon points="33.79 4.64 33.79 4.63 33.79 4.63 33.79 4.63 33.79 4.64"/><path d="M33.78,4.46c0,.06,0,.12,0,.17h0c0-.11,0-.22,0-.33h0A1.09,1.09,0,0,1,33.78,4.46Z"/><path d="M33.7,4.79l0,.09,0,0,.09-.21h0C33.76,4.69,33.72,4.74,33.7,4.79Z"/><path d="M33.6,5l-.14.14.09,0A.73.73,0,0,1,33.6,5Z"/><path d="M31.7,5l-.05,0,.06,0h0Z"/><path d="M31.78,5.1,31.72,5h0l.15.34c0-.1-.05-.19-.07-.29l-.06,0Z"/><polygon points="31.71 5 31.7 5 31.71 5.01 31.71 5"/><path d="M31.71,5h0Z"/><path d="M31.71,5h0l.07,0V5a1.73,1.73,0,0,1-.24-.23L31.7,5Z"/><path d="M31.78,5.1,31.73,5h0Z"/><polygon points="31.71 5 31.71 5 31.71 5 31.71 5"/><path d="M31.71,5h0l0,0h0Z"/><path d="M31.82,5.06l0,0v0l.13.1h0Z"/><polygon points="32.24 5.31 32.25 5.32 32.25 5.32 32.24 5.31 32.24 5.31"/><path d="M32.25,5.32l.38,0-.19,0h-.19Z"/><path d="M32.25,5.31h.19l-.36-.1A1.4,1.4,0,0,0,32.25,5.31Z"/><polygon points="31.92 5.17 31.93 5.18 31.94 5.18 31.93 5.18 31.92 5.17"/><path d="M33.78,4.46c0,.11-.05.22-.08.33,0,0,.06-.1.09-.16S33.78,4.52,33.78,4.46Z"/><path d="M31.71,5l0,0,.06,0V5Z"/><path d="M32.08,5.22l-.15,0h0l.3.12h0A1.4,1.4,0,0,1,32.08,5.22Z"/><path d="M48.41,14l-.06,0h0l0,.05.09,0S48.4,14,48.33,14v0S48.41,14,48.41,14Z"/><path d="M48.26,13.88c0-.06,0-.05,0,0h0l0,.05c0-.08-.11-.29-.08-.16a1.8,1.8,0,0,0,0,.19A.08.08,0,0,1,48.26,13.88Z"/><path d="M48.28,14a.64.64,0,0,0,0-.07h0a.08.08,0,0,0,0,.07h0Z"/><path d="M48.26,13.89h0c0,.06,0,0,0,0l0-.05Z"/><path d="M46.51,15.82c.15,0,.11,0,0,0S46.28,15.86,46.51,15.82Z"/><path d="M48.27,13.9h0a.64.64,0,0,1,0,.07l0,0h0c-.06-.05,0,0,0,0l0-.05S48.3,14,48.27,13.9Z"/><path d="M48.26,14h0Z"/><path d="M48.32,14h0v0S48.26,13.93,48.32,14Z"/><path d="M47.47,15.4h0l-.09.07S47.61,15.32,47.47,15.4Z"/><path d="M48.35,14l-.07,0h0l.11.07,0,0Z"/><path d="M46.94,15.71c.13-.05.09,0,0,0S46.79,15.78,46.94,15.71Z"/><path d="M47.93,14.94c.1-.13,0,0,0,0S47.87,15,47.93,14.94Z"/><polygon points="48.27 13.98 48.26 13.98 48.26 13.98 48.27 13.99 48.27 13.98"/><path d="M48.17,14.53h0C48.1,14.75,48.27,14.33,48.17,14.53Z"/><path d="M48.26,14h0v0h0Z"/><path d="M48.27,14.14a.29.29,0,0,1,0,.09v.08S48.32,14,48.27,14.14Z"/><path d="M48.36,14l0,0h0Z"/><polygon points="48.26 13.86 48.26 13.87 48.26 13.87 48.26 13.86"/><path d="M48.41,14s0,0-.07,0h0Z"/><path d="M48.26,13.86v0h0v0Z"/><path d="M48.26,13.88v0S48.23,13.82,48.26,13.88Z"/><path d="M48.26,14h0v0C48.18,13.92,48.12,13.91,48.26,14Z"/><path d="M45.36,13.82h.13C45.74,13.76,45.11,13.85,45.36,13.82Z"/><path d="M47.38,13.78l.13,0h0C47.8,13.83,47.29,13.77,47.38,13.78Z"/><path d="M48.35,14l0,0,0,0v0Z"/><path d="M48.28,14v0h0v0Z"/><polygon points="48.28 13.99 48.27 13.98 48.27 13.99 48.27 13.99 48.28 13.99"/><path d="M48.27,14h0a.08.08,0,0,0,0,0c0,.07,0,0,0,0h0Z"/><polygon points="48.28 13.99 48.28 13.99 48.28 13.99 48.28 13.99"/><path d="M48.36,14h0Z"/><path d="M48.35,14h0l0,0Z"/><path d="M44.11,14.12h0l0,0,0,0h0l-.09.07c-.05.06-.07.1,0,.05h0l.09-.08S44.13,14.11,44.11,14.12Z"/><path d="M44.08,14.37h0s0,0,0,0,0,0,0,0h0s0,.09,0,.15v0A.29.29,0,0,0,44.08,14.37Z"/><path d="M44.08,14.62Z"/><path d="M44.09,14.37a1.29,1.29,0,0,1,.06-.21l0,0,0,.11s0,0,0,0S44.08,14.35,44.09,14.37Z"/><path d="M44.08,14.62V14.5l0,0a.17.17,0,0,1,0,.07.51.51,0,0,1,0-.09c0-.09,0,.2,0,.18Z"/><path d="M44.06,14.46l0,0v0a.76.76,0,0,0,0-.15h0A.29.29,0,0,1,44.06,14.46Z"/><path d="M44.13,14.14a.61.61,0,0,1,0-.13l0,.05s0,0,0,0a.15.15,0,0,1,0,0s0,0,0,0l-.09.08.11-.06a.06.06,0,0,1,0,0Z"/><path d="M44.16,14.14h0a.06.06,0,0,0,0,0l0,0Z"/><path d="M44.16,14.14v0l0,0,0,0-.06,0Z"/><path d="M44.13,14.14h0v0l0,0Z"/><path d="M44.08,14.62h0s.11.28.07.13V14.7h0C44.1,14.63,44.08,14.62,44.08,14.62Z"/><path d="M45.94,15.82h-.07C45.61,15.79,46.2,15.88,45.94,15.82Z"/><path d="M42.73,15.17a1.51,1.51,0,0,0,1.34-.88h0l0-.11-.11.06h0l-.08,0s0,0,.09-.1a.79.79,0,0,1,.12-.13l0-.05c0-.06,0-.12,0-.18s0-.26,0-.16a.9.9,0,0,1,0,.16.38.38,0,0,0,0,.1c0-.06,0-.08,0,0s0,0,0,0l0,.08a.61.61,0,0,0,0,.13l0,0,0,0a1.5,1.5,0,0,0-2.86-.88,3.16,3.16,0,0,0-.09.48A1.52,1.52,0,0,0,42.73,15.17Z"/><path d="M44.08,14.58v0s0,0,.05.07h0l-.06-.18Z"/><path d="M43.89,18.29a5.78,5.78,0,0,0,3.38.43A5,5,0,0,0,50.11,17a4.44,4.44,0,0,0,1.07-3.7,2.63,2.63,0,0,0-1.45-1.91,8,8,0,0,0-4.4-.54c-1.54.18-3.6.68-4,2.36a1.5,1.5,0,0,1,2.86.88l0,0c.09,0,.3-.12.17-.06l-.1,0,.29-.1a7.08,7.08,0,0,1,.77-.17l.12,0h0c-.25,0,.38-.06.13,0h-.08l.4,0,.87,0,.83.05-.13,0c-.09,0,.42.05.14,0h0l.38.08.31.09h0c-.14-.07-.08-.06,0,0h0a1.8,1.8,0,0,1,0-.19c0-.13.06.08.08.16l0,.05c.07,0,.21.16.16.14l-.09,0h0L48.28,14c0,.07,0,.11,0,0a.08.08,0,0,1,0,0h0s0,0,0,.06a1.76,1.76,0,0,1,0,.19.29.29,0,0,0,0-.09c0-.15,0,.16,0,.17v0a2.58,2.58,0,0,0-.08.26c.1-.2-.07.22,0,0h0l0,0a2.07,2.07,0,0,1-.15.25,1,1,0,0,1-.1.16c.06-.08.13-.16,0,0s-.06.06,0,0l-.07.08-.24.24-.14.12h0c.14-.08-.1.08-.11.08l.09-.07-.1.07-.25.15-.14.06c.07,0,.11,0,0,0s-.07,0,0,0l-.12.05-.24.06h-.05c.07,0,.11,0,0,0s-.06,0,0,0l-.17,0-.47,0h0c.26.06-.33,0-.07,0h0l-.26-.06-.29-.08-.17-.06c.1,0,.2.09,0,0l0,0-.09,0a2,2,0,0,1-.25-.14l-.23-.15h0c.24.21-.21-.14,0,0h0c-.13-.11-.24-.24-.36-.35a.94.94,0,0,1,.09.12s-.22-.25-.12-.15l0,0h0l-.12-.22v.05c0,.15-.07-.09-.07-.13s-.06-.27,0-.18,0-.12,0-.15a1.51,1.51,0,0,1-1.34.88,1.52,1.52,0,0,1-1.5-1.5,3.16,3.16,0,0,1,.09-.48l0,.08C40.51,15.36,42,17.48,43.89,18.29Z"/><path d="M44.17,14.13l.06,0,.1,0c.13-.06-.08,0-.17.06v0Z"/><path d="M44.2,13.83c0,.06,0,.12,0,.18l0-.08A.38.38,0,0,1,44.2,13.83Z"/><path d="M44.2,13.83a.9.9,0,0,0,0-.16C44.24,13.57,44.21,13.71,44.2,13.83Z"/><path d="M44.07,14.29Z"/><polygon points="44.01 14.24 44.01 14.24 44.01 14.24 44.01 14.24"/><path d="M45.23,15.63c.16.07.06,0,0,0Z"/><path d="M44.35,15a.94.94,0,0,0-.09-.12l0,0C44.13,14.79,44.35,15.05,44.35,15Z"/><path d="M44.62,15.28h0C44.41,15.14,44.86,15.49,44.62,15.28Z"/><path d="M44,14.19c-.06.05-.12.11-.09.1l.08,0C44,14.29,44,14.25,44,14.19Z"/><path d="M44.11,14.12a.15.15,0,0,0,0,0s0,0,0,0a.16.16,0,0,1,0,.06Z"/><path d="M44.11,14.13h0Z"/><path d="M44.14,14.06a.79.79,0,0,0-.12.13l.09-.07A.16.16,0,0,0,44.14,14.06Z"/><path d="M44.11,14.13l0,0Z"/><path d="M44.13,14.14Z"/><path d="M44.2,13.93c0-.08,0-.06,0,0S44.18,14,44.2,13.93Z"/><path d="M44.06,14.46v0a.51.51,0,0,0,0,.09A.17.17,0,0,0,44.06,14.46Z"/><path d="M65.51,63.53a37.83,37.83,0,0,0-10.75-1.45C51,62,47,62.34,43.83,64.64A1.51,1.51,0,0,1,45.64,67l-.09.09a13.21,13.21,0,0,1,7.62-2,49.79,49.79,0,0,1,8.27.58c2.5.41,5.11,1.14,7,3a10.65,10.65,0,0,1,2.72,7,31.19,31.19,0,0,1-.58,8.24A12.18,12.18,0,0,1,69,87.93c-.13.21-.29.63-.56.69s-.92-.47-1.1-.57c-.74-.41-1.47-.84-2.2-1.27a82.94,82.94,0,0,0-7.76-4.33A41.66,41.66,0,0,0,49,80c-3.11-.7-5.92-2.39-6.32-5.84-.34-2.86.95-5.08,2.88-7l-.21.14c-1.56,1.15-3.06-1.46-1.52-2.59h0a1.72,1.72,0,0,0-.31.24,11.89,11.89,0,0,0-3.85,7.77A9.39,9.39,0,0,0,43.51,81c2.9,2.12,6.7,2.06,10,3.16,3.49,1.16,6.62,3.18,9.76,5,1.42.85,3.1,2.15,4.75,2.44s3-1.08,3.79-2.5c1.75-3,2.12-6.8,2.3-10.25a19.15,19.15,0,0,0-1.48-9.37A11.88,11.88,0,0,0,65.51,63.53Z"/><path d="M45.34,67.24l.21-.14.09-.09a1.51,1.51,0,0,0-1.81-2.37h0C42.28,65.78,43.78,68.39,45.34,67.24Z"/><path d="M56.89,56.07c0,.1,0,.11,0,0v0Z"/><path d="M56.9,56v0A.1.1,0,0,0,56.9,56Z"/><path d="M56.91,56v0h0s0,0,0,0h0Z"/><path d="M51.87,53.84h0v0h0Z"/><path d="M51.87,53.91c0,.1,0,0,0,0v0a.56.56,0,0,0,0,.08.39.39,0,0,1,0-.11Z"/><path d="M56.9,56v0h0v0Z"/><path d="M51.86,53.85h0s0,0,0,0l0,.05Z"/><path d="M51.87,53.87v0s0,0,0-.05l0,0Z"/><path d="M51.86,53.85h0Z"/><path d="M51.86,53.87v0h0v0Z"/><path d="M51.86,53.86l0,0h0v0Z"/><path d="M56.9,56h0a.1.1,0,0,1,0,0v-.08A.18.18,0,0,0,56.9,56Z"/><path d="M51.86,53.85v0h0Z"/><path d="M51.86,53.86h0s0,0,0,0h0Z"/><path d="M51.88,53.8v0c0-.06,0,0,0,0v0Z"/><path d="M50.85,55.84a1.54,1.54,0,0,0,1-1.85.56.56,0,0,1,0-.08s0,0,0,0h0v0A1.5,1.5,0,0,0,50.05,53a1.62,1.62,0,0,0-1.12,1.48c0,.12,0,.24.07.36l.12.28A1.5,1.5,0,0,0,50.85,55.84Z"/><path d="M51.84,53.89h0v0Z"/><path d="M56.94,55.9v0c0-.12,0-.09,0,0s0,0,0,.06Z"/><path d="M56.94,55.92h0Z"/><path d="M56.93,55.9s0,0,0-.06v.06Z"/><path d="M51.88,53.8h0Z"/><polygon points="51.88 53.8 51.89 53.79 51.89 53.79 51.88 53.8"/><path d="M49.12,55.07,49,54.79A1.39,1.39,0,0,0,49.12,55.07Z"/><path d="M53.14,53.14l.07,0h0C53.38,53.15,53.17,53.15,53.14,53.14Z"/><path d="M52.77,53.15h0l.07,0Z"/><path d="M54,53.37Z"/><path d="M52.42,53.27a.15.15,0,0,1,.08,0Z"/><path d="M55.68,54.46h0S55.73,54.49,55.68,54.46Z"/><path d="M52,53.6v0C52.1,53.45,51.87,53.71,52,53.6Z"/><path d="M49,54.79c0-.12,0-.24-.07-.36A.92.92,0,0,0,49,54.79Z"/><path d="M48.93,54.43A1.62,1.62,0,0,1,50.05,53a1.5,1.5,0,0,1,1.79.93s0,0,0,0a.32.32,0,0,1,0-.07s0,0,0,0,0-.11,0,0h0l0-.07A.83.83,0,0,0,52,53.6c-.14.11.09-.15,0,0v0l0,0,.16-.15h0s0,0,0,0,0,0,0,0l.24-.15.06,0a.15.15,0,0,0-.08,0h0l.08,0h.06a.9.9,0,0,1,.22-.06h0l.12,0-.07,0c.11,0,.37,0,.39,0l-.07,0s.24,0,.07,0h0l.19,0,.44.13.12,0h0l.19.09a8.21,8.21,0,0,1,.81.48l.39.27.16.12.18.14h0s0,0,0,0,.2.16.24.18l.38.34c.1.1.21.2.3.31l.13.14c-.21-.22,0,0,0,0s.18.39.1.12a2,2,0,0,0,.07.23h0c0-.07,0-.1,0,0v0h0s0,0,0,0h0v0s0,0,0,0v.06s0,0,0,0h0v0c0,.11,0,.1,0,0l-.09.17h0l.06-.08s-.15.24-.06.08l0,0-.16.17c.07,0,0,.06-.1.07s.06,0,.1-.07l-.05,0-.18.11-.14.08h0l0,0c-.11.07-.09,0,0,0s-.22.09-.25.09l-.15,0-.08,0h0l.14,0s-.07,0-.14,0-.09,0,0,0h-.26l-.13,0h0l-.15,0a2.75,2.75,0,0,1-.49-.14l-.18-.06c.28.09,0,0-.06,0l-.51-.27c-.31-.18-.6-.38-.89-.58l-.21-.16s0,0-.05,0h0v0l-.3-.23.22.53c-.13-.22-.26-.44-.38-.67l.16.14L51.9,54a1.54,1.54,0,0,1-1,1.85,1.5,1.5,0,0,1-1.73-.77c.13.31.25.63.38.94s.15.36.22.54a2,2,0,0,0,.51.78c.25.23.54.43.82.64,1.67,1.28,3.85,2.38,6,1.59a4.45,4.45,0,0,0,2.45-2,3.6,3.6,0,0,0-.05-3.46A8.16,8.16,0,0,0,57,51.74a7.77,7.77,0,0,0-3-1.47,4.49,4.49,0,0,0-3.92,1A3.51,3.51,0,0,0,48.93,54.43Z"/><path d="M56.94,55.91h0Z"/><path d="M51.84,53.78a.32.32,0,0,0,0,.07v0S51.85,53.78,51.84,53.78Z"/><path d="M51.87,53.88h0Z"/><path d="M52.21,53.4c-.05,0,0,0,0,0S52.36,53.3,52.21,53.4Z"/><path d="M51.85,53.91h0C51.83,54,51.84,53.94,51.85,53.91Z"/><path d="M56.85,56.17l-.06.08C56.7,56.41,56.85,56.16,56.85,56.17Z"/><path d="M51.86,53.85v0Z"/><path d="M51.86,53.89c0,.06,0,.12,0,0v0h0Z"/><path d="M52.72,55.51Z"/><path d="M52.63,55.79l-.22-.53-.16-.14C52.37,55.35,52.5,55.57,52.63,55.79Z"/><path d="M55.26,56.81h0Z"/><path d="M56.59,56.46s-.07.07-.1.07S56.66,56.44,56.59,56.46Z"/><path d="M56.21,56.67h0l-.09,0Z"/><path d="M55.67,56.84h0C55.58,56.86,55.62,56.85,55.67,56.84Z"/><path d="M73.39,52.11c.17.19-.16-.25,0,0Z"/><path d="M69.06,51.76h0l0,0v.1a.6.6,0,0,0,0-.12Z"/><path d="M69,51.8h0S69,52,69,52s0,0,0-.08v-.1Z"/><path d="M69,51.8l0,0h0c0-.16-.1.14,0,0Z"/><path d="M69,51.8Z"/><path d="M73.07,55.59l-.08,0,0,0S73.2,55.52,73.07,55.59Z"/><path d="M70.94,48a5.79,5.79,0,0,0-3.86,1.42c-1.23,1.14-1.16,2.81-.79,4.31a1.6,1.6,0,0,1,1.12-1.54,1.49,1.49,0,0,1,1.15.15,1.61,1.61,0,0,1,.69.89c-.06-.22-.12-.45-.16-.67a2.21,2.21,0,0,1,0-.25h0c0,.21-.05-.29,0-.08a.17.17,0,0,0,0,.07c0-.07,0-.13,0-.2a2.08,2.08,0,0,1,0-.25S69,52,69,52s0-.14,0-.18,0-.2,0,0a.31.31,0,0,0,0-.1c-.16.14.09-.17,0,0l0,0h0l0,0h0s.2-.19.1-.07l-.07.06c.08,0,.24-.16.28-.18l.25-.13,0,0h0c-.23.08.23-.11,0,0l.57-.17.25,0h-.1l.17,0h0a4,4,0,0,1,.6,0l.24,0-.09,0,.17,0h0a3.83,3.83,0,0,1,.58.16l.18.06h0c-.17-.09.29.11.11,0l-.08,0,.14.07c.17.09.33.19.5.3h0c-.2-.18.24.16,0,0h0l.25.24a1.8,1.8,0,0,1,.19.2h0c-.16-.25.17.19,0,0v0a5.5,5.5,0,0,1,.28.48c-.1-.29.12.22,0,0h0a2.25,2.25,0,0,1,.08.24c0,.1,0,.2.08.3s0,.06,0,.1,0-.09,0,0,0,.07,0,0a1.54,1.54,0,0,1,0,.19c0,.09,0,.17,0,.26s0,.2,0,.31h0v0c0-.24,0,.31,0,0,0,.18-.07.35-.12.52a1.72,1.72,0,0,0-.07.21l0-.08c.09-.17-.1.3,0,.12l0,0a.25.25,0,0,0,0,.07,4.87,4.87,0,0,1-.27.45h0c.18-.19-.17.25,0,0l0,0c-.08.08-.15.17-.23.24l-.14.12.08,0c.13-.07-.13.1-.13.1l0,0-.06,0-.22.13h0l-.14,0h0l.09,0c-.15,0-.32.1-.46.13h0s-.34.06-.19,0l.13,0L72,56c-.16,0-.32,0-.47,0l.13,0c.15,0-.21,0-.2,0h0l-.29-.07-.26-.08,0,0c.14.08-.17-.07-.17-.07l.12,0h0c-.15-.08-.31-.16-.45-.25l0,0,0,0s-.28-.2-.11-.09l.07,0-.2-.17-.15-.17a.35.35,0,0,0,0,.08c.09.15-.22-.24-.09-.12l0,0a.21.21,0,0,1,0-.06,1.88,1.88,0,0,1-.14-.24v0h0c0,.14,0,0,0-.06l0-.07s0,0,0,.07l0,.05-.07-.15c-.19-.48-.38-1-.58-1.43a1.52,1.52,0,0,1-1,1.85,1.5,1.5,0,0,1-1.73-.76c.16.39.32.78.47,1.17a7,7,0,0,0,.51,1.11A4.87,4.87,0,0,0,68.73,58a5.37,5.37,0,0,0,3,1A4.94,4.94,0,0,0,75,57.87a5.6,5.6,0,0,0,1.57-6.09A5.88,5.88,0,0,0,70.94,48Z"/><path d="M68.21,55.12a1.52,1.52,0,0,0,1-1.85,1.61,1.61,0,0,0-.69-.89,1.49,1.49,0,0,0-1.15-.15,1.6,1.6,0,0,0-1.12,1.54c0,.1,0,.2.07.3l.12.29A1.5,1.5,0,0,0,68.21,55.12Z"/><path d="M70.48,55.57l0,0-.07,0C70.2,55.37,70.46,55.53,70.48,55.57Z"/><path d="M71.64,56l-.13,0h-.07S71.79,56,71.64,56Z"/><path d="M72.26,56H72.2l-.13,0C71.92,56,72.27,56,72.26,56Z"/><path d="M69.9,54.86h0l0-.05C69.91,54.89,70,55,69.9,54.86Z"/><path d="M70.8,55.75s.31.15.17.07l0,0h0Z"/><path d="M70.14,55.26a.35.35,0,0,1,0-.08l0,0C69.92,55,70.23,55.41,70.14,55.26Z"/><path d="M73.37,55.28h0l0,0C73.2,55.53,73.55,55.09,73.37,55.28Z"/><path d="M73.87,53.3c0-.13,0-.11,0,0S73.89,53.5,73.87,53.3Z"/><path d="M69.72,51.28h0C70,51.17,69.49,51.36,69.72,51.28Z"/><path d="M69.14,51.62h0l.07-.06C69.34,51.43,69.16,51.63,69.14,51.62Z"/><path d="M71.37,51.05l.09,0h.08Z"/><path d="M70.44,51.07h.17Z"/><path d="M73.7,54.68l0,.08,0,0C73.6,55,73.79,54.51,73.7,54.68Z"/><path d="M66.48,54.36l-.12-.29A1.48,1.48,0,0,0,66.48,54.36Z"/><path d="M69.11,51.66l0,0C69.2,51.49,69,51.8,69.11,51.66Z"/><path d="M66.36,54.07c0-.1,0-.2-.07-.3A1.09,1.09,0,0,0,66.36,54.07Z"/><path d="M72.6,55.86l.14,0h0l-.09,0Z"/><path d="M73.87,54v0C73.85,54.32,73.92,53.77,73.87,54Z"/><path d="M73.68,52.61h0C73.8,52.83,73.58,52.32,73.68,52.61Z"/><path d="M72.28,51.29h0l.08,0C72.57,51.4,72.11,51.2,72.28,51.29Z"/><path d="M69,52.36h0a.17.17,0,0,1,0-.07C69,52.07,69,52.57,69,52.36Z"/><path d="M72.94,51.66h0C73.18,51.82,72.74,51.48,72.94,51.66Z"/><path d="M84.82,65.9v0h0Z"/><path d="M83.44,64.84h0Z"/><path d="M82.67,66.75h0l-.07-.07C82.5,66.56,82.83,67,82.67,66.75Z"/><path d="M84.47,66.78v0l0,.07Z"/><polygon points="82.88 66.98 82.88 66.98 82.88 66.98 82.88 66.98"/><path d="M83.47,67.3h0Z"/><path d="M84.69,66.41l0-.1a.13.13,0,0,1,0-.06s0,.06-.06.18Z"/><path d="M84,67.2c.25-.11,0,0,0,0S83.75,67.28,84,67.2Z"/><path d="M84.21,67c.18-.14.08-.06,0,0S84,67.19,84.21,67Z"/><path d="M84.82,66a.22.22,0,0,0,0-.08v0S84.82,66,84.82,66Z"/><path d="M84,65h0l.13.07Z"/><path d="M83.48,64.84h0Z"/><path d="M84.36,65.16l0,0,.06,0C84.66,65.36,84.14,65,84.36,65.16Z"/><path d="M84.78,65.66v0S84.8,65.72,84.78,65.66Z"/><path d="M84.57,65.35l.05.07,0,0C84.82,65.63,84.44,65.14,84.57,65.35Z"/><path d="M84.77,65.62v0h0Z"/><path d="M83.25,64.9a2.26,2.26,0,0,1,.45,0l-.24-.05Z"/><path d="M83.11,64.91,83,65l.06,0,0,0Z"/><path d="M83.12,64.9h0s0,0,0,0-.26.1-.07,0h0l.07,0Z"/><path d="M83.13,64.89h0s0,0,0,0Z"/><path d="M83.13,64.9h0Z"/><path d="M83.56,67.29h0Z"/><path d="M82.37,65.9h0a.06.06,0,0,0,0,0l0,.16v-.23Z"/><path d="M82.36,66l0,.28a.75.75,0,0,0,0-.15l0-.16Z"/><path d="M83.32,67.25h0s0,0,.06,0S83.33,67.25,83.32,67.25Z"/><path d="M83.43,67.25a.41.41,0,0,0-.11,0s0,0,0,0,0,0-.06,0,0,0,0,0l.31.05h0Z"/><path d="M83.22,67.19c-.18,0,0,0,.07,0h0A.27.27,0,0,1,83.22,67.19Z"/><path d="M83.13,64.9h0l0,0,.15,0A.48.48,0,0,0,83.13,64.9Z"/><path d="M83.43,67.25l-.18,0h0a.27.27,0,0,0,.1.06A.41.41,0,0,1,83.43,67.25Z"/><path d="M83.08,64.9h0Z"/><path d="M82.35,65.93h0v0Z"/><path d="M82.36,65.92h0a.52.52,0,0,0,0-.14A.8.8,0,0,1,82.36,65.92Z"/><path d="M81.71,69.79a4,4,0,0,0,2.9.34A4.45,4.45,0,0,0,87,68.41a4.19,4.19,0,0,0,.81-2.52,3.93,3.93,0,0,0-1.06-2.6,4.38,4.38,0,0,0-5.36-.85,1.51,1.51,0,0,0-.47.47,1.71,1.71,0,0,1,.83-.62,1.56,1.56,0,0,1,1.16.15,1.51,1.51,0,0,1,.68.9,1.48,1.48,0,0,1-.15,1.16l-.28.38s0,0,0,0l.31,0h0l.38.06a.66.66,0,0,0-.14,0,.8.8,0,0,1,.15,0L84,65l-.08,0L84,65h0c.09,0,.2.11.09.06l.13.07.1.06,0,0c-.22-.21.3.2.08.06l-.06,0,.24.24-.05-.07c-.13-.21.25.28.08.11l0,0,.06.09,0,.09a.06.06,0,0,0,0,0c0-.13,0,0,.06.09v0c0,.06,0,.09,0,0l0,.22v0a.22.22,0,0,1,0,.08s0,0,0-.06,0,.23,0,.34c0,0,0-.11,0-.16l0,.11a.34.34,0,0,1,0,.15h0l0,.09,0-.07c-.06.11-.12.22-.19.33l0,0v0l.09-.1a.27.27,0,0,1-.09.1l-.06.09,0-.07s0,0-.06.06l-.15.14,0,0c.08,0,.18-.13,0,0s-.06,0,0,0l0,0-.18.11-.07,0c.08,0,.28-.11,0,0s-.11,0,0,0h0l-.19,0a.75.75,0,0,0,.15,0l-.27,0h0l-.31-.05s0,0,0,0-.25-.1-.07,0l0,0-.18-.1L82.88,67h0l.19.15a.5.5,0,0,1-.19-.15h0l-.14-.16a.27.27,0,0,1-.07-.08h0c.16.26-.17-.19-.07-.08l.07.07c-.07-.11-.14-.22-.2-.33l0,.08c0,.15-.19-.37,0-.1v0s0-.08,0-.11,0-.13,0-.19a.75.75,0,0,1,0,.15l0-.28s0,0,0,0a.06.06,0,0,0,0,0v0c0,.12-.13.11-.07,0l.08-.11s0-.05,0-.07,0,0,0,.06a2.36,2.36,0,0,0,0-.28,1.92,1.92,0,0,0,0,.24l.39-.52.32-.43L83,65l-.15.08a1.53,1.53,0,0,1-2.06-.53,1.48,1.48,0,0,1,.07-1.59l-.07.07-.63.85A3.24,3.24,0,0,0,79.49,65,4.4,4.4,0,0,0,81.71,69.79Z"/><path d="M82.34,66a.06.06,0,0,1,0,0h0Z"/><path d="M82.36,65.94v0Z"/><path d="M82.5,66.49l0-.08v0C82.31,66.12,82.54,66.64,82.5,66.49Z"/><path d="M82.35,65.93Z"/><path d="M82.35,65.94V66h0v-.06Z"/><path d="M82.36,65.92a.8.8,0,0,0,0-.15.52.52,0,0,1,0,.14h0l0,0a1.92,1.92,0,0,1,0-.24,2.36,2.36,0,0,1,0,.28h0Z"/><path d="M82.35,65.92s0,0,0-.06,0,0,0,.07h0Z"/><polygon points="82.35 65.93 82.35 65.92 82.35 65.93 82.35 65.93"/><path d="M82.35,65.93h0v0Z"/><path d="M84.77,65.69v0c0-.1-.1-.22-.06-.09a.06.06,0,0,1,0,0l0,.08Z"/><polygon points="83.46 64.84 83.46 64.84 83.46 64.84 83.46 64.85 83.46 64.84"/><path d="M83.7,64.9a.66.66,0,0,1,.14,0l-.38-.06h0Z"/><path d="M83.65,67.3h0Z"/><path d="M84.77,65.69h0l0-.08c0,.06,0,.13,0,.19Z"/><path d="M83.6,67.29l.27,0a.75.75,0,0,1-.15,0l-.14,0Z"/><path d="M83.12,64.9h0Z"/><path d="M83.13,64.89h0Z"/><path d="M80.83,64.5a1.53,1.53,0,0,0,2.06.53L83,65h0c-.19,0,0,0,.07,0h0l.28-.38a1.48,1.48,0,0,0,.15-1.16,1.51,1.51,0,0,0-.68-.9,1.56,1.56,0,0,0-1.16-.15,1.71,1.71,0,0,0-.83.62A1.48,1.48,0,0,0,80.83,64.5Z"/><path d="M83.15,64.89s0,0,0,0h0Z"/><path d="M83.25,64.9l.21-.05h0l-.31,0h0A.48.48,0,0,1,83.25,64.9Z"/><path d="M84.81,66v0h0v0Z"/><path d="M84.77,65.79l0,.16v0l0-.22v.08Z"/><path d="M84.78,65.71v0h0v.06Z"/><path d="M84.77,66.14s0,.11,0,.16c0-.11,0-.22,0-.34h0C84.8,66,84.78,66.07,84.77,66.14Z"/><path d="M84.77,65.79c0,.11,0,.23,0,.35,0-.07,0-.13,0-.19Z"/><path d="M83.58,67.28l.14,0h-.29Z"/><path d="M83,81.32s0,0,0,0,0,0-.12.06h.07Z"/><path d="M83,81.29l-.05,0,.19,0,0,0Z"/><path d="M84.66,78.65a2.68,2.68,0,0,0-2.77-.1l0,0a3.7,3.7,0,0,1,.4-.18,1.52,1.52,0,0,1,1.84,1,1.46,1.46,0,0,1-.61,1.61s.06,0,0,0l-.1.06a.72.72,0,0,1-.19.11c.05,0,.07,0,0,0h0l0,0a4.65,4.65,0,0,1,.56.34h0c.21.16.07.06,0,0l0,0,.35.31c.24.22.47.46.69.7s.2.23.29.35h0a.86.86,0,0,1-.07-.1s.26.33.12.16L85.13,83l.09.12c.17.24.33.49.48.74,0,.1.1.2.14.3l0-.1c-.08-.2.18.39.06.15l0,0a.36.36,0,0,1,0,.09s0,0,0,.07l.07-.08,0-.06c.08-.12,0-.07,0,0s0,0,0,.08h0a.74.74,0,0,1,0,.12c0,.12,0,.27,0,.16s0,0,0-.07a.37.37,0,0,0,0,.08s0-.06,0-.07v0a.36.36,0,0,0,0-.1h0c-.06,0-.23.18-.08,0h0l-.2.12h0c.23-.08-.27.15-.13,0a.2.2,0,0,0,.08,0l-.46.13h0c.34,0-.36.08,0,0h-.76l.25,0a.57.57,0,0,1-.25,0h0L84,84.52l-.16,0h0c.21.11-.15-.06-.15-.06l.12,0-.07,0-.22-.13-.08,0a.39.39,0,0,1,.1.08l-.1-.09c-.09-.07-.13-.12,0,0h0L83.28,84l-.11-.13.06.09-.08-.1h0l0,0c0-.06-.09-.15,0,0a3.85,3.85,0,0,1-.23-.38s0-.11-.08-.16c.11.29-.15-.3,0,0l0,0h0a3.24,3.24,0,0,1-.16-.53s0-.17,0-.24,0,0,0,0,0,.08,0,.13c0,.21,0-.22,0-.22s0,0,0,0a4.17,4.17,0,0,1,0-.5s0,0,0,.07c0,.17,0-.42,0-.19,0,0,0,.08,0,.12h0l0-.16a1.59,1.59,0,0,1,.07-.2l0,0c-.08.13,0,0,0-.12h0l0,0,.08-.11s0,0,.05-.06a1.67,1.67,0,0,1-1.52-.75,1.49,1.49,0,0,1-.15-1.15,1.62,1.62,0,0,1,.65-.87,3.76,3.76,0,0,0-2,2.07,4.89,4.89,0,0,0-.15,2.81,5.18,5.18,0,0,0,4,4.08,5,5,0,0,0,3.51-.5,3.15,3.15,0,0,0,1.66-2.64,7,7,0,0,0-2.28-4.19A7.67,7.67,0,0,0,84.66,78.65Z"/><path d="M81.2,79.45a1.49,1.49,0,0,0,.15,1.15,1.67,1.67,0,0,0,1.52.75c.08-.06.18-.12.12-.06l.14-.05,0,0H83s0,0,0,0l-.08,0c-.14,0,.07,0,.19,0l.15,0,.2-.09a1.46,1.46,0,0,0,.61-1.61,1.52,1.52,0,0,0-1.84-1,3.7,3.7,0,0,0-.4.18A1.62,1.62,0,0,0,81.2,79.45Z"/><path d="M83.27,81.18c-.07,0,0,0,0,0l-.15,0c.07,0,.1,0,0,0h0l.06,0a1.11,1.11,0,0,0,.3-.17l-.2.09C83.34,81.15,83.36,81.15,83.27,81.18Z"/><path d="M82.74,81.52l0,0h0Z"/><path d="M83.21,81.25a.72.72,0,0,0,.19-.11l.1-.06s0,0,0,0a1.11,1.11,0,0,1-.3.17Z"/><path d="M82.74,81.55s0,0,0,0l.06-.06v0l0-.06h0l-.08.11Z"/><path d="M82.74,81.55h0c0,.09-.1.25,0,.12l0,0a.09.09,0,0,1,0-.05S82.73,81.56,82.74,81.55Z"/><path d="M83.15,81.25l0,0,0,0h0Z"/><path d="M82.74,81.54s0,0,0,0,0,0,0,0a.09.09,0,0,0,0,.05l.09-.17Z"/><path d="M82.86,81.39h0l0,0,0,0,0,0h-.07s-.07.07-.05.06S82.89,81.34,82.86,81.39Z"/><path d="M83.16,81.24h0l0,0Z"/><path d="M82.86,81.39s0,0,0,0h0Z"/><path d="M83,81.32l.07,0h0l.08,0h0l-.14.05h0Z"/><path d="M85.91,84.37a.36.36,0,0,1,0,.1v-.12Z"/><path d="M85.66,84.51h0a.2.2,0,0,1-.08,0C85.39,84.66,85.89,84.43,85.66,84.51Z"/><path d="M85.93,84.35v0h0s0,0,0,0,0,0,0,0h0l0,0Z"/><path d="M85.9,84.37h0Z"/><path d="M85.9,84.36h0l0,0,0,0h0c-.15.14,0,0,.08,0Z"/><polygon points="85.91 84.36 85.9 84.37 85.91 84.36 85.91 84.36"/><path d="M86,84.41a.74.74,0,0,0,0-.12l0,.07Z"/><path d="M85.91,84.35s0,0,0,0h0s0,0,0,0l0-.06-.07.08v0Z"/><polygon points="85.91 84.35 85.9 84.35 85.91 84.36 85.91 84.35"/><path d="M85.94,84.33l0,0a0,0,0,0,1,0,0s0,0,0,0h0a.3.3,0,0,0,0-.08h0l0,0,0,.06Z"/><path d="M86,84.31v0h0l0-.07h0Z"/><path d="M85.87,84.37l0,0v0a.23.23,0,0,0-.07.07Z"/><path d="M86,84.2c0-.08.07-.13,0,0l0,.06,0,0Z"/><polygon points="85.98 84.29 85.98 84.28 85.98 84.28 85.98 84.29"/><path d="M85.94,84.39a.06.06,0,0,1,0,0v.15l0-.09v0A0,0,0,0,0,85.94,84.39Z"/><path d="M85.81,84.07l0,.1,0,0C86,84.46,85.73,83.87,85.81,84.07Z"/><path d="M85.91,84.36s0,0,0,0h0Z"/><path d="M86,84.2a.3.3,0,0,1,0,.08S86.05,84.19,86,84.2Z"/><path d="M83.77,81.62c-.22-.17-.07-.05,0,0Z"/><path d="M83.22,81.26c.06,0,0,0,0,0h0Z"/><path d="M86,84.57c0,.11,0,0,0-.16l0,.09S86,84.55,86,84.57Z"/><path d="M85.06,82.91a.86.86,0,0,0,.07.1l.05.06C85.32,83.24,85.05,82.9,85.06,82.91Z"/><path d="M85.93,84.51s0,.06,0,.07a.37.37,0,0,1,0-.08v0Z"/><path d="M86,84.36h0a.06.06,0,0,0,0,0A0,0,0,0,1,86,84.36Z"/><path d="M85.93,84.35v0h0v0Z"/><path d="M86,84.31l0,0v0Z"/><path d="M86,84.28a0,0,0,0,0,0,0l0,0S86,84.25,86,84.28Z"/><path d="M85.93,84.31h0S85.93,84.3,85.93,84.31Z"/><path d="M85.17,84.65h0C84.81,84.73,85.51,84.64,85.17,84.65Z"/><path d="M83.05,81.19h0C83,81.16,83,81.15,83.05,81.19Z"/><path d="M83.14,81.23Z"/><path d="M83.12,81.21h0c.07,0,0,0,0,0h-.06Z"/><path d="M83,81.32l0,0,0,0,.05,0h0Z"/><path d="M83.06,81.28h0l.11,0h0Z"/><path d="M83.14,81.24h0Z"/><path d="M83.05,81.19h.07l-.05,0Z"/><path d="M83.11,81.22l0,0h0Z"/><path d="M83.14,81.23h0l-.06,0h0Z"/><path d="M83.14,81.23Z"/><path d="M83.06,81.2h0Z"/><path d="M83.05,81.21h0Z"/><path d="M83.07,81.19h.06c-.12,0-.33,0-.19,0l.08,0h0C83,81.15,83,81.16,83.07,81.19Z"/><path d="M83.61,84.33a.39.39,0,0,0-.1-.08h0Z"/><path d="M83,81.32v0h0S82.93,81.33,83,81.32Z"/><path d="M83.15,83.88l0,0,0-.07Z"/><path d="M82.63,82.69s0-.09,0-.13,0,0,0,0,0,0,0,0S82.65,82.9,82.63,82.69Z"/><path d="M82.81,83.29l0,0C82.66,83,82.92,83.58,82.81,83.29Z"/><path d="M83.91,84.48h0l-.12,0S84.12,84.59,83.91,84.48Z"/><path d="M84.38,84.64Z"/><path d="M82.71,81.56h0Z"/><path d="M83.27,81.18c.09,0,.07,0,0,0S83.2,81.2,83.27,81.18Z"/><path d="M82.85,81.4l0,.06v0l.1-.1,0,0Z"/><path d="M83,81.21h0S83,81.21,83,81.21Z"/><path d="M82.92,81.36l0,0,.09-.06,0,0Z"/><path d="M82.72,81.55l0,0Z"/><path d="M82.62,81.89c0-.23-.06.36,0,.19,0,0,0,0,0-.07h0S82.62,81.93,82.62,81.89Z"/></g></g></svg>