<svg xmlns="http://www.w3.org/2000/svg" viewBox="0 0 152.55 157.23"><defs><style>.cls-1{fill:#fff;}.cls-2{fill:#f1f1f1;}</style></defs><g id="Capa_2" data-name="Capa 2"><g id="Layer_1" data-name="Layer 1"><g id="Grupo_113" data-name="Grupo 113"><g id="Grupo_98" data-name="Grupo 98"><rect id="Rectángulo_74" data-name="Rectángulo 74" class="cls-1" x="9.04" y="2.17" width="83.69" height="128.96"/><g id="Grupo_97" data-name="Grupo 97"><path id="Trazado_607" data-name="Trazado 607" d="M92.73,129H9l2.14,2.15V7.44a32.74,32.74,0,0,0,0-5.05.81.81,0,0,1,0-.22L9,4.31H92.73L90.59,2.17v113c0,5.22-.24,10.5,0,15.71v.21a2.15,2.15,0,1,0,4.29,0h0v-113c0-5.21.23-10.49,0-15.7V2.16A2.18,2.18,0,0,0,92.73,0H9.05A2.18,2.18,0,0,0,6.9,2.16v113c0,5.21-.24,10.49,0,15.7v.22a2.17,2.17,0,0,0,2.15,2.14H92.73a2.15,2.15,0,0,0,0-4.28Z"/></g></g><g id="Grupo_100" data-name="Grupo 100"><path id="Trazado_608" data-name="Trazado 608" class="cls-2" d="M9,131.13l-6.87-6.87L9,2.17H9Z"/><g id="Grupo_99" data-name="Grupo 99"><path id="Trazado_609" data-name="Trazado 609" d="M10.55,129.6l-6.87-6.86.63,1.52L5,112.07,6.63,83l2-35.34,1.71-30.41.58-10.13a36.32,36.32,0,0,0,.26-4.77.74.74,0,0,1,0-.21H6.88v113c0,5.22-.24,10.5,0,15.71v.22a2.15,2.15,0,0,0,4.29,0h0v-113c0-5.21.24-10.5,0-15.71V2.14a2.15,2.15,0,0,0-4.29,0l-.8,14.15L4.22,49.41,2.08,87.35.43,116.56l-.38,6.9a2.82,2.82,0,0,0,.58,2.29c1.62,1.79,3.34,3.5,5.13,5.12l1.75,1.74a2.14,2.14,0,0,0,3-3Z"/></g></g><g id="Grupo_101" data-name="Grupo 101"><path id="Trazado_610" data-name="Trazado 610" d="M27.85,62.19c.16-.61.8-3.69,1.89-9.24.19-1,.61-1.45,1.26-1.45.8,0,1.31.8,1.09,1.8-.51,2.86-.74,4.33-.74,4.43a.41.41,0,0,0,.39.42.43.43,0,0,0,.27-.1l.68-.64a6.08,6.08,0,0,1,1-.8,1.38,1.38,0,0,1,1.94.33,1.25,1.25,0,0,1,.15.28c.32.58.42,2.66.93,2.6.25,0,.51-.2,1-1.09.26-.46.45-.84.61-1.16l.84-1.74c.22-.48.64-1.34.8-1.73l.35-.71a9.6,9.6,0,0,1,.65-1.12,1.17,1.17,0,0,1,1.52-.55A1.23,1.23,0,0,1,43,53.14c-.17.48-1.06,2.41-2.74,5.78s-2.6,5.2-2.85,5.56a1.41,1.41,0,0,1-2.57-.29,18.59,18.59,0,0,1-.68-2.86c-.15-1.06-.64-1.19-1.41-.38-2.47,2.82-2.7,3.11-2.89,3.31a1.36,1.36,0,0,1-1.52.29C27.66,64.19,27.5,63.42,27.85,62.19Z"/><path id="Trazado_611" data-name="Trazado 611" d="M45.38,63.68a6.82,6.82,0,0,1-.45-5.11,12.09,12.09,0,0,1,2.76-5.11,5.78,5.78,0,0,1,1.48-1.12,1.51,1.51,0,0,1,1.89.45,2.17,2.17,0,0,0,.77.61c.94.5,1.29,2.21,1,3.75a11.86,11.86,0,0,1-3.41,7.11,2.57,2.57,0,0,1-3.63,0A2.73,2.73,0,0,1,45.38,63.68ZM49.08,61a12.17,12.17,0,0,0,1.16-3.15,5.34,5.34,0,0,0,.19-2.54c-.23-.58-.61-.58-1.23,0A8.49,8.49,0,0,0,47,60.76c0,1,.22,1.47.71,1.52S48.6,62,49.08,61Z"/><path id="Trazado_612" data-name="Trazado 612" d="M56.88,63.68a6.82,6.82,0,0,1-.45-5.11,12,12,0,0,1,2.76-5.11,5.78,5.78,0,0,1,1.48-1.12,1.51,1.51,0,0,1,1.89.45,2.09,2.09,0,0,0,.77.61c.93.5,1.28,2.21,1,3.75a11.92,11.92,0,0,1-3.41,7.11,2.57,2.57,0,0,1-3.64,0A2.62,2.62,0,0,1,56.88,63.68ZM60.57,61a11.48,11.48,0,0,0,1.16-3.15,5.21,5.21,0,0,0,.19-2.54c-.22-.58-.61-.58-1.22,0a8.51,8.51,0,0,0-2.19,5.4c0,1,.22,1.47.71,1.52S60.09,62,60.56,61Z"/><path id="Trazado_613" data-name="Trazado 613" d="M67,64a6.72,6.72,0,0,1,.58-2.16c.29-.74.71-2,1.26-3.95s.86-3.24,1-4c.17-1.32.78-2.06,1.83-2.21A25.56,25.56,0,0,1,76.44,51c1,0,1.63.42,1.73,1.12-.1,1-.55,1.07-1.7,1.29-.16,0-1.64.35-3.31.51a1,1,0,0,0-.9.51,12.81,12.81,0,0,0-.54,2.11c-.16.74,0,1,.77,1a4.35,4.35,0,0,1,1.44.13.76.76,0,0,1,.75.78v0c.25,1.47-1.32,1.37-3.15,1.57a1,1,0,0,0-1,.83A11.49,11.49,0,0,1,69,64.71,1.1,1.1,0,0,1,67.06,64Z"/></g><g id="Grupo_112" data-name="Grupo 112"><g id="Grupo_103" data-name="Grupo 103"><path id="Trazado_614" data-name="Trazado 614" class="cls-2" d="M150.38,145.69c0,5.15-25.57,9.33-57.12,9.33s-57.11-4.18-57.11-9.33l6.35-30.3H143.05Z"/><g id="Grupo_102" data-name="Grupo 102"><path id="Trazado_615" data-name="Trazado 615" d="M148.23,145.7c0-.18.09-.21,0-.16s-.69.63-.29.31a6.25,6.25,0,0,1-.82.51,19.52,19.52,0,0,1-4.51,1.78,97.66,97.66,0,0,1-16.18,3,302,302,0,0,1-48.39,1.4c-7.19-.32-14.4-.85-21.53-1.86a72.65,72.65,0,0,1-14.73-3.21,14,14,0,0,1-1.87-.79c-.32-.16-.62-.34-.92-.51a2.2,2.2,0,0,1-.32-.21c-.48-.35.31.27-.11-.1-.08-.07-.59-.53-.33-.33l0,.06c0-.24-.19,1.16,0,.36.64-2.74,1.15-5.51,1.73-8.26L44.6,116l-2.06,1.58H143.1L141,116l6.41,26.51.92,3.8c.64,2.67,4.77,1.52,4.12-1.14l-6.4-26.51-.92-3.8a2.16,2.16,0,0,0-2.06-1.57H42.54a2.18,2.18,0,0,0-2.07,1.57L36.2,135.25c-.66,3.12-1.36,6.24-2,9.37a5.33,5.33,0,0,0,3.59,5.77,46.63,46.63,0,0,0,13.4,3.77,200,200,0,0,0,21.84,2.4,306.09,306.09,0,0,0,51.82-1,102.34,102.34,0,0,0,19.57-3.51c3-.94,8-2.54,8.1-6.39C152.62,142.94,148.34,143,148.23,145.7Z"/></g></g><g id="Grupo_105" data-name="Grupo 105"><ellipse id="Elipse_41" data-name="Elipse 41" class="cls-2" cx="92.49" cy="115.4" rx="51.85" ry="9.32"/><g id="Grupo_104" data-name="Grupo 104"><path id="Trazado_616" data-name="Trazado 616" d="M142.2,115.4s0-.11,0-.09c-.39.2.33-.28,0,0a2.61,2.61,0,0,0-.23.24,1.91,1.91,0,0,1-.63.5,12.33,12.33,0,0,1-1.23.68,32.8,32.8,0,0,1-7,2.24,144,144,0,0,1-23.94,3.09,277.47,277.47,0,0,1-30.11.17A163.59,163.59,0,0,1,54,119.48a46.25,46.25,0,0,1-8.09-2.26,13.89,13.89,0,0,1-2.21-1.12,2.34,2.34,0,0,1-.51-.36c-.13-.11-.24-.25-.36-.36s.27,0-.05-.12c.05,0,0,.19,0,.16,0-.19,0,.24-.07.21.05,0,0-.14.32-.42a2.05,2.05,0,0,1,.63-.5,22.79,22.79,0,0,1,6-2.36A119.55,119.55,0,0,1,72.17,109a273.3,273.3,0,0,1,29.88-.59,174.45,174.45,0,0,1,28.56,2.88,45.52,45.52,0,0,1,8.79,2.45,14.28,14.28,0,0,1,1.36.67c.25.14,1.16.77,1,.59.14.12.78.86.44.41.24.32.08,0,.08,0,.1,2.75,4.38,2.76,4.28,0-.16-4.59-6.71-6.27-10.2-7.21a130.89,130.89,0,0,0-25-3.62,274.3,274.3,0,0,0-33.56-.25A155.59,155.59,0,0,0,51,107.62a38.6,38.6,0,0,0-8.12,2.66,7.34,7.34,0,0,0-4.13,3.87c-1.45,4.51,4.57,6.77,7.79,7.82a105.85,105.85,0,0,0,23.57,4,266.58,266.58,0,0,0,33,.72,181.26,181.26,0,0,0,28.27-2.91,51.26,51.26,0,0,0,8.95-2.43,11.65,11.65,0,0,0,5.33-3.4,4.42,4.42,0,0,0,.91-2.54C146.59,112.64,142.28,112.64,142.2,115.4Z"/></g></g><g id="Grupo_107" data-name="Grupo 107"><circle id="Elipse_42" data-name="Elipse 42" class="cls-2" cx="88.42" cy="106.07" r="10.49"/><g id="Grupo_106" data-name="Grupo 106"><path id="Trazado_617" data-name="Trazado 617" d="M96.76,106.07a8.35,8.35,0,1,1-8.33-8.35,8.54,8.54,0,0,1,1.43.12,8.42,8.42,0,0,1,6.9,8.23,2.15,2.15,0,1,0,4.29,0,12.83,12.83,0,0,0-8.3-11.86,12.63,12.63,0,1,0,8.3,11.87,2.15,2.15,0,1,0-4.29,0Z"/></g></g><g id="Grupo_109" data-name="Grupo 109"><circle id="Elipse_43" data-name="Elipse 43" class="cls-2" cx="110.57" cy="86.26" r="10.49"/><g id="Grupo_108" data-name="Grupo 108"><path id="Trazado_618" data-name="Trazado 618" d="M118.92,86.26a8.35,8.35,0,1,1-8.34-8.36A8.54,8.54,0,0,1,112,78a8.44,8.44,0,0,1,6.91,8.24,2.14,2.14,0,0,0,4.28,0,12.82,12.82,0,0,0-8.31-11.86,12.62,12.62,0,1,0,8.31,11.86,2.14,2.14,0,0,0-4.28,0Z"/></g></g><g id="Grupo_111" data-name="Grupo 111"><circle id="Elipse_44" data-name="Elipse 44" class="cls-2" cx="70.94" cy="106.07" r="10.49"/><g id="Grupo_110" data-name="Grupo 110"><path id="Trazado_619" data-name="Trazado 619" d="M79.28,106.07A8.35,8.35,0,1,1,71,97.72a8.54,8.54,0,0,1,1.43.12,8.42,8.42,0,0,1,6.9,8.23,2.15,2.15,0,1,0,4.29,0,12.83,12.83,0,0,0-8.3-11.86,12.62,12.62,0,1,0,8.3,11.87,2.15,2.15,0,0,0-4.29,0Z"/></g></g></g></g></g></g></svg>