<svg xmlns="http://www.w3.org/2000/svg" viewBox="0 0 109.28 76.84"><defs><style>.cls-1{fill:#efefef;}.cls-2{fill:#fff;}</style></defs><g id="Capa_2" data-name="Capa 2"><g id="Layer_1" data-name="Layer 1"><path class="cls-1" d="M107.78,66.61c0,4.79-23.81,8.68-53.18,8.68S1.43,71.4,1.43,66.61l5.9-28.22H101Z"/><path d="M106.28,66.61c0-.17.13-.07-.06.16.33-.4-.31.31,0,0a2.68,2.68,0,0,1-1,.82,17.66,17.66,0,0,1-4.11,1.68,87.44,87.44,0,0,1-14.9,2.83,278.73,278.73,0,0,1-45.31,1.39C34,73.2,27.18,72.7,20.41,71.75a68.49,68.49,0,0,1-13.8-3,13.84,13.84,0,0,1-2-.84,8.46,8.46,0,0,1-.77-.44,1.94,1.94,0,0,1-.46-.33c-.1-.09-.48-.47-.37-.35s0-.06-.07-.12.06,0,0,0a1.4,1.4,0,0,1-.06-.24c0,.11.09.5,0,.54s0-.19,0-.21c.57-2.48,1-5,1.57-7.49L7,47.29c.56-2.67,1.31-5.38,1.69-8.08,0-.14.06-.28.09-.42l-1.45,1.1H97.12a25.11,25.11,0,0,0,3.68,0H101l-1.45-1.1,6,24.72.85,3.5c.45,1.87,3.35,1.08,2.89-.8l-6-24.72L102.4,38a1.51,1.51,0,0,0-1.44-1.1h-82c-3.79,0-7.63-.17-11.42,0H7.33A1.51,1.51,0,0,0,5.89,38L2,56.79.09,65.68C-.4,68,1.22,69.54,3.19,70.55c3.82,2,8.27,2.76,12.46,3.48a187.61,187.61,0,0,0,20.08,2.2,286.87,286.87,0,0,0,48-.86,109.35,109.35,0,0,0,16.77-2.82c2.7-.72,6.77-1.69,8.33-4.31a3.46,3.46,0,0,0,.47-1.63C109.33,64.68,106.33,64.68,106.28,66.61Z"/><ellipse class="cls-2" cx="53.87" cy="38.39" rx="48.28" ry="8.68"/><path d="M100.65,38.39c0-.27-.11.32,0,.07a1,1,0,0,1-.19.3c.28-.3-.11.11-.17.16A7.78,7.78,0,0,1,98.57,40a30.09,30.09,0,0,1-6.49,2.13A130.64,130.64,0,0,1,70,45.08a257.27,257.27,0,0,1-28.86.19,151.94,151.94,0,0,1-23.3-2.64A43.64,43.64,0,0,1,10.2,40.5a14.57,14.57,0,0,1-2.15-1.11,1.85,1.85,0,0,1-.58-.47,2.54,2.54,0,0,1-.28-.29c.24.3-.05-.07-.08-.17.07.2,0-.3,0-.07,0-.26-.06.37,0,0s0,0,0-.11c.17-.36,0-.07.29-.38a2.72,2.72,0,0,1,.63-.51,21,21,0,0,1,5.65-2.26,110.41,110.41,0,0,1,20.85-3.2A254.25,254.25,0,0,1,63,31.36,174,174,0,0,1,87.61,33.7a60.4,60.4,0,0,1,8.3,2,19.11,19.11,0,0,1,2.74,1.1,7.19,7.19,0,0,1,1.67,1.11c.32.29.11,0,.3.38-.06-.12,0,.32,0,.11.06,1.93,3.06,1.94,3,0-.11-4-6.33-5.5-9.31-6.29-7.56-2-15.5-2.79-23.28-3.32a254,254,0,0,0-30.85-.22,145.9,145.9,0,0,0-24.65,3A36.83,36.83,0,0,0,8,34c-1.47.69-3.17,1.73-3.71,3.37C3,41.31,8.79,43.27,11.48,44.12c7,2.22,14.53,3,21.81,3.63a252,252,0,0,0,30.6.64,168.51,168.51,0,0,0,25.94-2.68,47.79,47.79,0,0,0,8.32-2.25c1.74-.68,3.71-1.52,4.83-3.1a3.49,3.49,0,0,0,.67-2C103.71,36.46,100.71,36.46,100.65,38.39Z"/><circle class="cls-2" cx="50.09" cy="29.71" r="9.77"/><path d="M58.35,29.71a8.27,8.27,0,1,1-6.79-8.14,8.34,8.34,0,0,1,6.79,8.14c0,1.93,3,1.93,3,0a11.27,11.27,0,1,0-9.12,11.06,11.43,11.43,0,0,0,9.12-11.06C61.38,27.78,58.38,27.78,58.35,29.71Z"/><circle class="cls-2" cx="70.71" cy="11.26" r="9.77"/><path d="M79,11.26a8.26,8.26,0,1,1-6.79-8.14A8.34,8.34,0,0,1,79,11.26c0,1.93,3,1.94,3,0A11.26,11.26,0,1,0,61,17,11.27,11.27,0,0,0,82,11.26C82,9.33,79,9.33,79,11.26Z"/><circle class="cls-2" cx="33.81" cy="29.71" r="9.77"/><path d="M42.08,29.71a8.27,8.27,0,1,1-6.8-8.14,8.34,8.34,0,0,1,6.8,8.14,1.5,1.5,0,0,0,3,0,11.45,11.45,0,0,0-7.37-10.57A11.27,11.27,0,0,0,24.12,35.47a11.27,11.27,0,0,0,21-5.76A1.5,1.5,0,0,0,42.08,29.71Z"/></g></g></svg>