<?xml version="1.0" standalone="no"?>
<!DOCTYPE svg PUBLIC "-//W3C//DTD SVG 20010904//EN"
 "http://www.w3.org/TR/2001/REC-SVG-20010904/DTD/svg10.dtd">
<svg version="1.0" xmlns="http://www.w3.org/2000/svg"
 width="363.000000pt" height="124.000000pt" viewBox="0 0 363.000000 124.000000"
 preserveAspectRatio="xMidYMid meet">

<g transform="translate(0.000000,124.000000) scale(0.100000,-0.100000)"
fill="#000000" stroke="none">
<path d="M2605 750 c-83 -13 -125 -57 -125 -132 0 -66 22 -105 73 -129 89 -40
219 -13 253 54 21 40 15 129 -12 158 -39 43 -109 61 -189 49z m125 -69 c45
-33 39 -120 -10 -146 -69 -36 -172 -6 -185 54 -20 93 109 155 195 92z"/>
<path d="M3056 728 c-37 -37 -76 -131 -76 -183 0 -47 32 -79 68 -71 31 8 86
62 77 76 -10 17 -30 11 -54 -14 -55 -58 -68 13 -21 112 30 64 44 74 65 45 13
-18 35 -10 35 13 0 17 -35 54 -51 54 -6 0 -26 -15 -43 -32z"/>
<path d="M292 618 c-34 -73 -62 -137 -62 -141 0 -5 12 -7 27 -5 17 2 32 13 43
33 15 28 21 30 83 33 l67 3 21 -36 c15 -24 28 -35 45 -35 13 0 24 3 24 8 0 4
-27 67 -61 140 -60 128 -63 132 -93 132 -31 0 -34 -4 -94 -132z m138 -25 c0
-9 -15 -13 -45 -13 -25 0 -45 3 -45 6 0 3 10 28 22 56 l21 50 23 -43 c13 -24
23 -50 24 -56z"/>
<path d="M590 610 l0 -141 118 3 c113 3 117 4 120 26 3 21 1 22 -92 22 l-96 0
0 115 0 115 -25 0 -25 0 0 -140z"/>
<path d="M890 610 l0 -140 25 0 25 0 0 140 0 140 -25 0 -25 0 0 -140z"/>
<path d="M1020 610 l0 -140 25 0 c24 0 24 2 27 88 l3 87 58 -87 c50 -77 61
-88 86 -88 25 0 36 11 85 86 l55 86 3 -84 c3 -82 3 -83 31 -86 l27 -3 0 140 0
141 -28 0 c-26 0 -36 -12 -98 -110 -38 -60 -71 -110 -74 -110 -3 0 -36 50 -75
110 -61 96 -73 110 -97 110 l-28 0 0 -140z"/>
<path d="M1490 610 l0 -141 133 3 c128 3 132 4 135 26 3 22 2 22 -107 22
l-111 0 0 35 0 35 90 0 c83 0 90 2 90 20 0 17 -8 19 -87 22 l-88 3 -3 32 -3
32 108 3 c103 3 108 4 111 26 3 22 3 22 -132 22 l-136 0 0 -140z"/>
<path d="M1820 610 l0 -140 25 0 25 0 0 101 0 102 105 -102 c76 -73 112 -101
130 -101 l25 0 0 140 0 140 -25 0 -25 0 0 -102 0 -103 -103 103 c-80 79 -108
102 -130 102 l-27 0 0 -140z"/>
<path d="M2172 728 c3 -20 10 -23 61 -26 l57 -3 0 -114 0 -115 30 0 30 0 0
115 0 115 55 0 c52 0 55 1 55 25 l0 25 -146 0 c-145 0 -145 0 -142 -22z"/>
<path d="M3212 732 c-15 -10 -57 -203 -49 -226 11 -29 26 -17 38 29 6 25 14
45 18 45 3 0 37 -18 75 -40 37 -22 74 -40 82 -40 30 0 12 30 -36 59 -27 17
-50 34 -50 38 0 4 10 17 21 29 28 30 19 68 -24 94 -34 21 -55 24 -75 12z m69
-58 c11 -14 10 -18 -6 -30 -30 -22 -45 -17 -45 16 0 23 5 30 19 30 10 0 25 -7
32 -16z"/>
<path d="M2872 486 c1 -10 8 -17 13 -17 15 1 12 24 -3 29 -9 3 -13 -2 -10 -12z"/>
</g>
</svg>
