<svg xmlns="http://www.w3.org/2000/svg" viewBox="0 0 36.44 65.2"><defs><style>.cls-1{fill:#f2f2f2;}</style></defs><g id="Capa_2" data-name="Capa 2"><g id="Layer_1" data-name="Layer 1"><path class="cls-1" d="M16.76,16.75A9.94,9.94,0,0,1,9.56,5.54a5,5,0,0,1,2.68-3.81,5.21,5.21,0,0,1,4.62.85,11.55,11.55,0,0,1,4.3,5.08,12.68,12.68,0,0,1,7.31-5.5A5,5,0,0,1,30.9,2c2.61.59,3.31,4.1,2.6,6.67a12.28,12.28,0,0,1-2.73,5c-1.38,1.54-3.19,2.79-3.94,4.71a10.16,10.16,0,0,0-.38,4.11q.64,14,1.45,28a3.22,3.22,0,0,0,.21,1.16,3.5,3.5,0,0,0,1.22,1.23,20.53,20.53,0,0,1,4.37,4.41c1,1.4,1.86,3.32.94,4.79a4.26,4.26,0,0,1-3.51,1.56,14.09,14.09,0,0,1-12.7-7c-1.16,3.11-4.43,4.85-7.55,6a9.67,9.67,0,0,1-4.29.75c-2.83-.35-5-3.13-5.12-6a9.1,9.1,0,0,1,3.75-7.32,16.67,16.67,0,0,1,7.91-3q1.23-14.65,2.72-29.28"/><path d="M17.16,15.3a8.48,8.48,0,0,1-6.23-8.88c.26-2.23,1.65-4.11,4.06-3.14a9.71,9.71,0,0,1,4.87,5.14,1.51,1.51,0,0,0,2.59,0,11.2,11.2,0,0,1,6.42-4.81c1.17-.32,2.22-.32,2.88.8a5,5,0,0,1,.47,3.06c-.39,3-2.45,5-4.44,7a10.06,10.06,0,0,0-2.32,3.27A11.22,11.22,0,0,0,25,22.44c.31,7.22.7,14.44,1.09,21.65L26.31,49c.1,1.7,0,3.27,1.4,4.49,2.05,1.86,4.81,3.56,5.68,6.37,1,3.34-5,2.18-6.62,1.68a12.66,12.66,0,0,1-7-5.65,1.52,1.52,0,0,0-2.74.35c-1,2.4-3.56,3.78-5.84,4.66C8.45,62,5.46,62.6,3.72,59.71c-1.47-2.44-.57-5.42,1.27-7.4,2.2-2.39,5.42-3.31,8.54-3.77a1.52,1.52,0,0,0,1.1-1.45q1.23-14.65,2.72-29.28c.2-1.92-2.81-1.9-3,0q-1.49,14.63-2.72,29.28l1.11-1.44c-4.1.6-8.2,2.16-10.74,5.59-2.28,3.08-2.83,7.34-.49,10.55a7.31,7.31,0,0,0,4.18,2.92,10.58,10.58,0,0,0,6.09-.84c3.47-1.31,6.66-3.25,8.1-6.82l-2.74.36a15.47,15.47,0,0,0,7.09,6.36c2.7,1.2,6.24,2,9.13,1,3.56-1.22,3.77-4.91,2-7.76a19.46,19.46,0,0,0-3.47-4c-.6-.54-1.26-1-1.88-1.51-.81-.66-.61-1.75-.66-2.72Q28.58,36.1,28,23.43c-.09-1.79-.37-3.77.65-5.36.91-1.41,2.37-2.41,3.45-3.69,2-2.35,3.44-5.48,3.1-8.61C34.83,2.26,32.3-.14,28.68.58a14,14,0,0,0-8.82,6.33h2.59a12,12,0,0,0-7-6.65C12-.76,9.14,1.38,8.24,4.63c-1.59,5.78,2.43,12.11,8.12,13.57,1.87.48,2.67-2.42.8-2.9Z"/></g></g></svg>