<svg xmlns="http://www.w3.org/2000/svg" viewBox="0 0 130.32 322.66"><defs><style>.cls-1{fill:#d85d47;}</style></defs><g id="Capa_2" data-name="Capa 2"><g id="Layer_1" data-name="Layer 1"><path d="M74.82,1.15a28.39,28.39,0,0,1-11.32-.1C59.72.31,55.91-.52,52.08.42,45.78,2,41.52,7.35,37,11.63a54.79,54.79,0,0,1-8.57,6.68c-3.05,1.93-6.23,3.35-8.33,6.42-4.2,6.12-2.53,14.09.37,20.36a37.23,37.23,0,0,0,14.73,16.2,2.26,2.26,0,0,0,3.08-.8,28,28,0,0,0,1.78-9.15c.22-3.21.45-6.41.68-9.62.21-2.89-4.29-2.88-4.5,0l-.62,8.66c-.18,2.59-.19,5.4-1.23,7.84l3.08-.81a33.12,33.12,0,0,1-12.06-12.5c-2.83-5.15-5.08-12.2-1.64-17.59,1.66-2.61,4.79-3.74,7.3-5.36a61.69,61.69,0,0,0,8.14-6.25C43.33,12,47.07,6.65,52.57,5c3.69-1.14,7.44,0,11.1.68A32.42,32.42,0,0,0,76,5.49c2.84-.58,1.64-4.92-1.19-4.34Z"/><path d="M31.55,57.5c-.34,12.18,1.8,24.27,1.78,36.45a55.94,55.94,0,0,1-2.23,17c-2,6.28-1.1,12.94-3,19.21a29.41,29.41,0,0,0-1.71,8.43,40,40,0,0,1-.63,8.67c-1.26,5.69-3.76,11-5.61,16.5-4.38,13.05-2.1,27-.16,40.27a498.17,498.17,0,0,1,5.26,85.24c-.19,7.19-.6,14.37-1.05,21.54-.18,2.94,0,5.94,2.05,8.26a10.94,10.94,0,0,0,6.82,3.2c4.79.68,11.65.89,14.78-3.55,1.71-2.43,1.41-5.64,1.37-8.46s-.11-5.61-.19-8.42c-.7-24.56-2.7-49.28-.61-73.83.23-2.68.51-5.37.88-8a2.31,2.31,0,0,0-1.57-2.76A2.27,2.27,0,0,0,45,218.8c-3.27,23.61-1.73,47.69-.83,71.41.22,5.82.43,11.63.54,17.45q0,1.9.06,3.81a10.94,10.94,0,0,1-.3,4.19c-.77,1.89-3.22,2.24-5,2.36a21.93,21.93,0,0,1-7.09-.45,4.45,4.45,0,0,1-3.7-4.58c-.09-3.24.37-6.55.55-9.79q.28-5.15.46-10.3a490.62,490.62,0,0,0-4.35-83.39c-1-7-2.14-13.95-2.75-21-.55-6.32-.88-12.92.65-19.13,1.36-5.55,3.8-10.75,5.57-16.16A43.92,43.92,0,0,0,30.7,145c.36-2.79-.08-5.63.34-8.39s1.54-5.24,2.12-7.91c.71-3.32.67-6.76,1-10.13a55.67,55.67,0,0,1,2-8.75,55.11,55.11,0,0,0,1.39-8.35c1.14-11.9-.75-23.84-1.33-35.71C36,63,36,60.26,36.05,57.5s-4.42-2.9-4.5,0Z"/><path d="M75.61,6.12C84.83,2.83,92.7,12.46,100,16.31a31.19,31.19,0,0,0,6.44,2.41,17.57,17.57,0,0,1,5.85,2.21c1.75,1.24,2.76,3.24,3.67,5.11,1.16,2.34,2.25,4.72,3.33,7.1,2.14,4.7,4.55,9.49,5.85,14.51a18.14,18.14,0,0,1-1.57,13.16,37.12,37.12,0,0,1-9.25,10.83c-1.81,1.53-3.67,3-5.57,4.44-1.42,1.07-3.56,2.75-5,.88-3-3.83-1.9-9.74-.7-14,1.59-5.65,4-11.09,3.94-17.08,0-2.89-4.54-2.9-4.5,0,.06,5.69-2.43,10.9-3.89,16.29-1.38,5.08-1.92,10.65.4,15.54,1.15,2.42,3.21,4.59,6.07,4.64s5-1.66,7.1-3.26c4.34-3.36,8.69-6.79,12.1-11.14a26.44,26.44,0,0,0,6-14.54c.35-5.76-2.08-11.16-4.31-16.32q-1.78-4.12-3.67-8.21a78,78,0,0,0-3.64-7.4,13.24,13.24,0,0,0-5.41-5.21A44.31,44.31,0,0,0,106.13,14c-5.55-1.63-9.83-5.67-14.6-8.74C86.56,2,80.26-.3,74.42,1.78c-2.71,1-1.54,5.32,1.19,4.34Z"/><path d="M108.74,77.94c-5.79,8.83-6.88,19.49-6.35,29.79.25,4.79.81,9.55,1.25,14.32.46,5,.45,10,.53,15,0,3,.12,6.08.26,9.12a36.29,36.29,0,0,0,.94,8c1.32,4.78,3.95,9.15,4.88,14a73.43,73.43,0,0,1,.73,8.52,84.59,84.59,0,0,1,.29,8.72c-.17,6.3-1.6,12.58-2.63,18.79-4.19,25.3-8.33,50.74-9.07,76.42-.19,6.46-.16,12.93.14,19.39.15,3.12.39,6.24.64,9.36.17,2.24.48,5.14-1,7-2.31,2.88-7.16,1-9.08-1.37-3.23-4-3.16-10.05-3.38-14.91C85.69,275,91,250,90.91,224.72c0-3.05-.11-6.09-.3-9.13-.17-2.87-4.68-2.89-4.5,0,1.59,25.93-4,51.57-3.93,77.46,0,5.89,0,12.13,1.32,17.9,1.18,5,4.2,9.55,9.36,11,4.89,1.41,10-.7,11.55-5.72.81-2.59.55-5.37.33-8-.28-3.34-.48-6.7-.61-10.06-1-26.33,2.4-52.56,6.54-78.51,1-6.5,2.12-13,3.2-19.5,1-6.29,2.11-12.46,1.88-18.87-.12-3.11-.4-6.2-.65-9.3a33.47,33.47,0,0,0-1.3-7.84c-1.54-4.72-4.33-9.32-4.67-14.35-.43-6.28-.48-12.59-.52-18.89,0-4.63-.5-9.23-1-13.84-1-9.95-1.9-20.37,1.51-30a32.38,32.38,0,0,1,3.46-6.88c1.6-2.42-2.3-4.68-3.88-2.27Z"/><path d="M46.55,304.84a21.6,21.6,0,0,0,11,.44c3.52-.69,7-1.8,10.61-1.75,5.31.08,12.66,3.74,17.13-.65,2.07-2-1.11-5.22-3.18-3.19a2.24,2.24,0,0,1-.89.51,4.65,4.65,0,0,1-1.31.21,18.77,18.77,0,0,1-3.89-.26c-2.79-.43-5.62-1.19-8.46-1.11a57.45,57.45,0,0,0-10.32,1.71,17.62,17.62,0,0,1-9.5-.25c-2.76-.9-3.94,3.44-1.19,4.34Z"/><path d="M22.17,221.69a9,9,0,0,1-1.92,5.65c-.88,1.24-2.17,2.15-2.71,3.61-.71,1.94-.56,4.27-.49,6.3.24,7,1.11,14,1.16,21a47,47,0,0,1-.74,10,54.31,54.31,0,0,1-3.55,10.62c-1.9,4.34-4.09,8.53-6.37,12.68a8.91,8.91,0,0,1-1.89,2.68,18.47,18.47,0,0,0-2.36,2.56,16.76,16.76,0,0,0-3,5.75c-.63,2.38-.19,5.11,2.16,6.35a10.19,10.19,0,0,0,3.89.81c1.38.12,2.75.17,4.13.16a45.83,45.83,0,0,0,16.49-3.23,2.33,2.33,0,0,0,1.58-2.77,2.28,2.28,0,0,0-2.77-1.57,42.42,42.42,0,0,1-13.69,3,33,33,0,0,1-6.88-.24,1.69,1.69,0,0,1-.73-.23c.27.2,0-.05,0-.34a5.39,5.39,0,0,1,.73-2.33,15.3,15.3,0,0,1,3.64-4.77,8.77,8.77,0,0,0,2-2.52c.62-1.12,1.24-2.25,1.84-3.38,2.13-4,4.14-8,5.89-12.18a53.61,53.61,0,0,0,3.29-10.19A52.72,52.72,0,0,0,22.72,259c0-6.82-.78-13.6-1.12-20.41-.06-1.35-.12-2.72-.07-4.07,0-.26,0-.52,0-.78s.09-.88,0-.56.07-.32.09-.43.11-.31.14-.47c-.12.56-.2.39-.1.24s.17-.1,0,0-.2.22-.06.1c.29-.27.57-.6.84-.9a21,21,0,0,0,2.21-2.93,12.62,12.62,0,0,0,2-7.06c-.11-2.89-4.61-2.9-4.5,0Z"/><path d="M106.19,233.4c.27.16-.47-.29,0,0-.29-.19-.17-.27,0,0s-.08-.36.08.18c.08.26.17.51.23.78s.11.45.15.68,0,.28.07.42c.06.37,0-.32,0,.06.08.65.13,1.3.16,1.95.16,2.91,0,5.84-.06,8.76a47.73,47.73,0,0,0,0,6.87,45.84,45.84,0,0,0,1.24,5.55c.43,1.81.86,3.63,1.26,5.46A94.38,94.38,0,0,1,111.24,283a29.26,29.26,0,0,0,.26,6.21,14,14,0,0,0,2.33,4.6c1.07,1.52,2.26,2.95,3.4,4.42,1,1.24,1.76,2.58,2.61,3.9.47.71,1.33,1.76,1.17,2.68-.12.76-.94,1.25-1.55,1.58a8.48,8.48,0,0,1-5.43.78c-4.13-.71-7.74-3.61-10.07-7-1.62-2.38-5.52-.13-3.88,2.27a22.14,22.14,0,0,0,10.16,8.33c4,1.57,9.09,1.47,12.64-1.24a6.1,6.1,0,0,0,2.48-6.21c-.44-2.06-1.89-3.91-3-5.64-1.93-3-4.93-5.55-6.27-8.89-.64-1.59-.31-4-.34-6s-.08-4-.18-6a81.13,81.13,0,0,0-1.09-9.84c-.67-3.87-1.61-7.69-2.54-11.5-.22-.87-.44-1.74-.63-2.61.15.68,0,.06,0-.14s0-.59,0-.89c0-1.3,0-2.61,0-3.91.1-3.5.3-7,.1-10.5-.14-2.63-.35-6.38-2.92-7.88s-4.76,2.42-2.27,3.88Z"/><path d="M63.57,58.34a4.94,4.94,0,0,1,2.28-5.6,8.66,8.66,0,0,1,7.88-.27,4.54,4.54,0,0,1,2,2.8,11.37,11.37,0,0,1,.91,4.37,3.81,3.81,0,0,1-.37,1.21,4.47,4.47,0,0,1-1.53,1.27,6.9,6.9,0,0,1-4,1.25c-1.39-.11-2.89-1.38-4.1-2.27a11.6,11.6,0,0,1-3.32-3.41C62,55.16,58.09,57.43,59.51,60a15.75,15.75,0,0,0,4.5,4.7c1.69,1.27,3.51,2.69,5.65,3.07a10.45,10.45,0,0,0,6.79-1.38,8.63,8.63,0,0,0,4.39-4.68,10.9,10.9,0,0,0-.4-6.58,11.59,11.59,0,0,0-3-5.48c-3.31-2.91-8.9-3-12.78-1.32-4.16,1.85-6.88,6.77-5.44,11.25A2.3,2.3,0,0,0,62,61.11a2.27,2.27,0,0,0,1.57-2.77Z"/><path d="M67.37,66.23A43.38,43.38,0,0,0,69.94,76a14.48,14.48,0,0,0,7.13,7.51c3.57,1.54,7.12.62,10-1.87,2.68-2.34,5.25-5.87,4.28-9.61-.72-2.8-5.06-1.61-4.34,1.2.52,2-2.06,4.46-3.49,5.53a4.71,4.71,0,0,1-5.92-.07c-4.33-3-5-8.92-5.88-13.67a2.25,2.25,0,0,0-4.34,1.2Z"/><path d="M67.29,65.63a8.38,8.38,0,0,1-2.13,5.17,7.45,7.45,0,0,1-5.72,2.39,6.25,6.25,0,0,1-5.62-2.29c-1.65-2.14-2.12-5-2.64-7.53a2.25,2.25,0,1,0-4.34,1.19c.69,3.42,1.54,6.83,3.82,9.55a10.72,10.72,0,0,0,9.14,3.56c3.33-.19,6.42-1.22,8.64-3.8a13.08,13.08,0,0,0,3.35-8.24c0-2.9-4.46-2.9-4.5,0Z"/><path d="M60.5,27.24l.13-.18-.35.45a2.5,2.5,0,0,1,.43-.43l-.46.36a3.06,3.06,0,0,1,.63-.37l-.54.23a2.91,2.91,0,0,1,.7-.19l-.6.08a2.48,2.48,0,0,1,.72,0l-.6-.08a2.83,2.83,0,0,1,.65.17L60.67,27a2.64,2.64,0,0,1,.46.27L60.68,27a3,3,0,0,1,.25.25l-.35-.45.12.2-.23-.54a2,2,0,0,1,.07.23l-.08-.6a1,1,0,0,1,0,.24l.09-.6a1.29,1.29,0,0,1-.08.28l.23-.54a1.35,1.35,0,0,1-.15.26l.35-.46a1.54,1.54,0,0,1-.25.26l.45-.35a1.51,1.51,0,0,1-.37.22l.54-.23a1.89,1.89,0,0,1-.41.1l.6-.08a2.89,2.89,0,0,1-.83,0l.6.08a5.76,5.76,0,0,1-1.29-.3l.54.23a1.35,1.35,0,0,1-.33-.19l.45.36c-.06-.05-.11-.11-.17-.17l.36.46a1,1,0,0,1-.13-.22l.23.54a1.05,1.05,0,0,1-.06-.24l.08.6a1,1,0,0,1,0-.25l-.08.6a1.37,1.37,0,0,1,.07-.29l-.22.53a1.13,1.13,0,0,1,.12-.21l-.36.45a1.45,1.45,0,0,1,.18-.17l-.46.35a.75.75,0,0,1,.17-.1l-.53.22.24-.06-.6.08a1.13,1.13,0,0,1,.26,0l-.6-.08.25.07-.54-.22a1.43,1.43,0,0,1,.27.15L58.62,27a1.62,1.62,0,0,1,.18.19l-.36-.46a1.74,1.74,0,0,1,.11.18l-.23-.54c0,.05,0,.1,0,.15l.57-2.19a.6.6,0,0,1-.08.08l.45-.36a.27.27,0,0,1-.1.06l.54-.23a.55.55,0,0,1-.17.05l.6-.08a.54.54,0,0,1-.18,0l.6.08a.27.27,0,0,1-.12,0l.54.23-.05,0a1.61,1.61,0,0,0-.84-.27,1.72,1.72,0,0,0-.9,0,2.3,2.3,0,0,0-1.34,1,2.26,2.26,0,0,0-.23,1.74,2.14,2.14,0,0,0,1,1.34,3.19,3.19,0,0,0,1.42.37A3,3,0,0,0,61.53,28a3.09,3.09,0,0,0,.57-.44,3,3,0,0,0,.38-.48,2,2,0,0,0,.26-.83,2.57,2.57,0,0,0-.35-1.67,3.19,3.19,0,0,0-.53-.68,3.29,3.29,0,0,0-.73-.54,3.32,3.32,0,0,0-2-.36,3,3,0,0,0-1.81.87,3,3,0,0,0-.51.67,3.13,3.13,0,0,0-.33.85,3.25,3.25,0,0,0,.16,2,3.1,3.1,0,0,0,.59.94,3.2,3.2,0,0,0,.73.59,4.26,4.26,0,0,0,.88.38,3.6,3.6,0,0,0,.44.12,11.76,11.76,0,0,0,1.56.24,2.68,2.68,0,0,0,.49,0,4.8,4.8,0,0,0,1.06-.18,3.91,3.91,0,0,0,.84-.37,4,4,0,0,0,.76-.61,3.94,3.94,0,0,0,.54-.73,3,3,0,0,0,.33-.87,3.26,3.26,0,0,0,0-1.49,2.71,2.71,0,0,0-.36-.86,3.91,3.91,0,0,0-1.33-1.29,7.7,7.7,0,0,0-.83-.36,2.64,2.64,0,0,0-.4-.12,5,5,0,0,0-1.4-.12,5,5,0,0,0-1.38.28,6.6,6.6,0,0,0-.86.38,5.58,5.58,0,0,0-.78.57A4.49,4.49,0,0,0,56.61,25a2.27,2.27,0,0,0,.81,3.08,2.33,2.33,0,0,0,1.73.23,2.46,2.46,0,0,0,1.35-1Z"/><path d="M88.86,34.06a5.9,5.9,0,0,0,1.45.09,4,4,0,0,1,.85,0l-.6-.08a1.82,1.82,0,0,1,.4.11l-.54-.23a1.14,1.14,0,0,1,.3.18l-.45-.36.13.14-.35-.46a1.13,1.13,0,0,1,.12.21L90,33.11a1.62,1.62,0,0,1,0,.19l-.08-.6a1.21,1.21,0,0,1,0,.19l.08-.6a.83.83,0,0,1-.06.21l.23-.54a2.12,2.12,0,0,1-.12.2l.35-.46a1.72,1.72,0,0,1-.27.27l.46-.35a2.5,2.5,0,0,1-.55.31l.54-.23a4.23,4.23,0,0,1-1,.25l.6-.08a3.09,3.09,0,0,1-.68,0l.6.08a1.64,1.64,0,0,1-.38-.1l.53.23a1.61,1.61,0,0,1-.28-.17l.45.36a1.79,1.79,0,0,1-.27-.28l.35.46-.13-.23.22.53a1,1,0,0,1-.06-.25l.08.6a.74.74,0,0,1,0-.21l-.08.59a1.33,1.33,0,0,1,0-.19l-.23.54a1.05,1.05,0,0,1,.12-.21l-.35.45a1.39,1.39,0,0,1,.21-.21l-.46.36a1.8,1.8,0,0,1,.35-.21l-.54.23a2.61,2.61,0,0,1,.61-.16l-.6.08a1.85,1.85,0,0,1,.47,0l-.6-.08a1.83,1.83,0,0,1,.46.12L89.49,34a1.71,1.71,0,0,1,.23.13l-.46-.35a.67.67,0,0,1,.15.14l-.35-.45a.59.59,0,0,1,.1.17l-.22-.53a.75.75,0,0,1,0,.16l-.08-.6a1,1,0,0,1,0,.17l.08-.6a.75.75,0,0,1,0,.16l.23-.54a.57.57,0,0,1-.08.13l.35-.45-.13.14.46-.35a2,2,0,0,1-.25.14l.53-.23a1.88,1.88,0,0,1-.53.14l.6-.08a3.53,3.53,0,0,1-.65,0,2.25,2.25,0,0,0-1.59,3.84l.45.35a2.17,2.17,0,0,0,1.14.31,5.85,5.85,0,0,0,1.25-.09,3.61,3.61,0,0,0,1.14-.4,2.9,2.9,0,0,0,.66-.49l.11-.11a3.74,3.74,0,0,0,.41-.55,3,3,0,0,0,.26-2.22,3.17,3.17,0,0,0-2.48-2.18,6.41,6.41,0,0,0-.88-.11,5.76,5.76,0,0,0-.93.11,2.37,2.37,0,0,0-.36.09,4.69,4.69,0,0,0-.86.38,3.58,3.58,0,0,0-.7.53,2.63,2.63,0,0,0-.56.72,3.2,3.2,0,0,0-.3,2.33,2.14,2.14,0,0,0,.16.42,3.75,3.75,0,0,0,.19.41,3.34,3.34,0,0,0,.57.73,3.61,3.61,0,0,0,1.67.91c2.07.42,4.76-.42,5.48-2.59A3.06,3.06,0,0,0,94,31.33a2.07,2.07,0,0,0-.28-.38,2.57,2.57,0,0,0-.29-.35,3,3,0,0,0-.78-.54,3.7,3.7,0,0,0-.91-.34,6,6,0,0,0-1-.1,7,7,0,0,1-1.21,0l.59.08h-.07a1.69,1.69,0,0,0-.89,0,1.61,1.61,0,0,0-.84.27A2.24,2.24,0,0,0,87.51,33a2.18,2.18,0,0,0,1.35,1Z"/><path d="M59.54,77.12A35.31,35.31,0,0,0,62,82.07a6.27,6.27,0,0,0,5.28,2.71,10.29,10.29,0,0,0,8.8-4.93,2.25,2.25,0,0,0-3.89-2.27c-.08.13-.16.27-.25.4s-.25.31,0,.07a8.3,8.3,0,0,1-.64.69c-.11.11-.24.2-.35.31s.41-.27-.07,0c-.26.18-.52.35-.8.51l-.33.17c-.52.27.25-.07-.07,0a9.43,9.43,0,0,1-.9.29l-.46.11c-.42.11.22,0,0,0s-.63.05-.94,0-.34,0-.5,0c.22,0,.21,0,0,0l-.48-.13c-.22,0,.23.15-.1-.06s.09.17-.09-.06-.23-.22-.33-.34c.21.24.06.07,0-.09s-.17-.28-.25-.42c-.77-1.39-1.41-2.86-2.1-4.29a2.25,2.25,0,0,0-3.07-.8,2.3,2.3,0,0,0-.81,3.07Z"/><path class="cls-1" d="M35.71,102.5c12,6.77,19.75,6.57,33.5,7.59a53.42,53.42,0,0,0,14.18-.56c9-1.76,13-3.57,20.76-8.47l1.11-11.18c-7,3.75-10.22,4.37-18,5.84-7.12,1.35-14.45.7-21.67,0-11.26-1-17.45,2-26.29-5.08Z"/><path d="M34.58,104.45a53.68,53.68,0,0,0,17.81,6.37c3.11.49,6.23.77,9.36,1,3.67.27,7.35.6,11,.71a55.18,55.18,0,0,0,20.86-3.41,52.7,52.7,0,0,0,8-3.88c.68-.4,1.35-.8,2-1.22a6.68,6.68,0,0,0,2.43-1.82,4.49,4.49,0,0,0,.38-1.86l1-10.46c.18-1.8-2-2.67-3.39-1.94a55.89,55.89,0,0,1-25,6.31c-5.29.09-10.51-.63-15.78-.9-3.83-.19-7.67.11-11.5-.1a19,19,0,0,1-11-4.16,2.29,2.29,0,0,0-3.76,1L33.54,101.9c-.84,2.78,3.51,4,4.34,1.2l3.56-11.82-3.76,1A23.62,23.62,0,0,0,49,97.46c3.94.57,7.9.26,11.86.32,5.38.07,10.72.89,16.11,1a70.93,70.93,0,0,0,16-1.87,51.37,51.37,0,0,0,13.44-5.06L103,89.88l-1.11,11.18L103,99.12a58.74,58.74,0,0,1-10.88,5.77,51.36,51.36,0,0,1-13.43,3c-5.26.4-10.53-.14-15.78-.51A86.27,86.27,0,0,1,50.73,106a49.53,49.53,0,0,1-13.88-5.39C34.32,99.15,32,103,34.58,104.45Z"/></g></g></svg>