<svg xmlns="http://www.w3.org/2000/svg" viewBox="0 0 136.79 323.33"><defs><style>.cls-1{fill:#d85d47;}</style></defs><g id="Capa_2" data-name="Capa 2"><g id="Layer_1" data-name="Layer 1"><path d="M74.79,1.15a28.39,28.39,0,0,1-11.32-.1C59.7.31,55.88-.52,52.06.42,45.75,2,41.49,7.35,37,11.63a54.33,54.33,0,0,1-8.57,6.68c-3.05,1.93-6.23,3.35-8.33,6.42-4.2,6.12-2.53,14.09.37,20.36A37.23,37.23,0,0,0,35.2,61.29a2.26,2.26,0,0,0,3.08-.8,27.75,27.75,0,0,0,1.78-9.15c.23-3.21.46-6.41.68-9.62.21-2.89-4.29-2.88-4.5,0l-.61,8.66c-.19,2.59-.2,5.4-1.23,7.84l3.07-.81a33.12,33.12,0,0,1-12.06-12.5c-2.83-5.15-5.07-12.2-1.64-17.59,1.67-2.61,4.79-3.74,7.31-5.36a62.35,62.35,0,0,0,8.14-6.25C43.3,12,47,6.65,52.54,5c3.69-1.14,7.44,0,11.11.68A32.37,32.37,0,0,0,76,5.49c2.84-.58,1.64-4.92-1.19-4.34Z"/><path d="M31.52,57.5C31.09,69.2,24.83,80,19.64,90.14a134.68,134.68,0,0,0-7.16,15.77c-2.22,6.22-4.69,12.46-4.58,19.17,0,3.37.58,6.71.89,10.07a59.45,59.45,0,0,1,0,10.42c-.54,6.66-2,13.21-3,19.8a93.92,93.92,0,0,0-1,20.58c.46,7.1,1.58,14.14,2.6,21.18,1.9,13.13,4.92,26,8,38.9s6.3,25.9,7.94,39.12a139.48,139.48,0,0,1,1.13,19.49c-.09,5.56-1.93,13,4,16.24,3.79,2.07,8.44,1.6,12.62,2,3.59.34,8.38,1.14,11.67-.78,2.31-1.36,2.67-4.26,2.69-6.71,0-3.5,0-7,0-10.5q.1-10.63.6-21.27,1-21,3.51-41.88c.41-3.4.85-6.81,1.33-10.21a2.31,2.31,0,0,0-1.57-2.76,2.27,2.27,0,0,0-2.77,1.57A578.43,578.43,0,0,0,51,312.66a31.25,31.25,0,0,1,0,4.22c-.07.46-.43,1-.45,1.44,0-.28.24-.15,0-.06a14.9,14.9,0,0,1-4.58.44c-2-.05-4-.26-6-.44-1.83-.17-3.68-.12-5.5-.31s-4.2-.66-5.2-2.43a6.45,6.45,0,0,1-.56-3.39c0-1.62.2-3.23.27-4.85a131,131,0,0,0-.7-19c-2.73-26-11.4-50.81-15.62-76.52-2.16-13.15-4.51-26.76-3.1-40.12.68-6.49,2.1-12.87,3-19.32A77.27,77.27,0,0,0,13,132.63a57.52,57.52,0,0,1-.58-10.07,36.56,36.56,0,0,1,2.22-9.27A138,138,0,0,1,21,97.55c5.07-10.41,11.36-20.6,14-32A42.93,42.93,0,0,0,36,57.5c.1-2.9-4.4-2.89-4.5,0Z"/><path d="M75.59,6.12C84.8,2.83,92.67,12.46,100,16.31a31.41,31.41,0,0,0,6.44,2.41,17.7,17.7,0,0,1,5.86,2.21c1.74,1.24,2.75,3.24,3.67,5.11,1.15,2.34,2.24,4.72,3.33,7.1,2.14,4.7,4.54,9.49,5.84,14.51a18.14,18.14,0,0,1-1.57,13.16,37,37,0,0,1-9.25,10.83c-1.8,1.53-3.66,3-5.56,4.44-1.43,1.07-3.57,2.75-5,.88-3-3.83-1.9-9.74-.7-14,1.59-5.65,4-11.09,3.94-17.08,0-2.89-4.53-2.9-4.5,0,.06,5.69-2.43,10.9-3.89,16.29-1.38,5.08-1.91,10.65.4,15.54,1.16,2.42,3.22,4.59,6.07,4.64s5-1.66,7.1-3.26c4.34-3.36,8.7-6.79,12.1-11.14a26.44,26.44,0,0,0,6-14.54c.36-5.76-2.08-11.16-4.31-16.32q-1.78-4.12-3.67-8.21a78,78,0,0,0-3.64-7.4,13.18,13.18,0,0,0-5.41-5.21A44.52,44.52,0,0,0,106.11,14c-5.56-1.63-9.84-5.67-14.61-8.74C86.54,2,80.23-.3,74.39,1.78c-2.71,1-1.54,5.32,1.2,4.34Z"/><path d="M108.48,78.48c-1.75,9.12,3.36,17.85,8,25.26,2.63,4.17,5.41,8.23,7.93,12.46a44.54,44.54,0,0,1,5.41,11.92,24.4,24.4,0,0,1,.54,6.66c-.08,3.58-.34,7.16-.46,10.74a73.55,73.55,0,0,0,.33,10.7c.4,3.54,1,7,1.5,10.57a78.39,78.39,0,0,1-.55,21.25,163.44,163.44,0,0,1-3.75,19c-6.42,23.9-18.3,46-24.21,70a114.76,114.76,0,0,0-3,17.84,85.84,85.84,0,0,0-.27,8.93c.07,2.94.54,5.89.43,8.82a6.79,6.79,0,0,1-.92,3.58,3.33,3.33,0,0,1-.67.73c.23-.18-.78.39-.66.34a12.19,12.19,0,0,1-5.8.56,15.24,15.24,0,0,1-5.43-1.49,4.38,4.38,0,0,1-1.58-1.14,10.35,10.35,0,0,1-1.91-3.53,33.17,33.17,0,0,1-1.38-8.63c-.24-3.61-.46-7.22-.68-10.83L80,270.39,77.27,226.7l-.69-10.93c-.18-2.87-4.68-2.89-4.5,0L74.92,261l1.41,22.34c.45,7.27.78,14.55,1.39,21.81.44,5.32,1.54,12,6.62,15a20.15,20.15,0,0,0,13.46,2,8.33,8.33,0,0,0,5.14-3c1.9-2.53,2.12-5.77,1.93-8.83a104.48,104.48,0,0,1,.17-18.21c1.4-12.38,5.28-24.39,9.57-36,4.38-11.91,9.36-23.6,13.45-35.62a165.71,165.71,0,0,0,8.41-38.81,69,69,0,0,0,.18-10.95c-.27-3.75-.91-7.47-1.45-11.18a71.55,71.55,0,0,1-.84-10.54c0-3.74.27-7.48.43-11.22a45,45,0,0,0-.19-8.76,28.78,28.78,0,0,0-1.76-6.12,79.06,79.06,0,0,0-7-12.86c-2.76-4.32-5.66-8.56-8.21-13-2.16-3.79-4.14-7.8-4.87-12.15a16.34,16.34,0,0,1,0-5.13,2.3,2.3,0,0,0-1.57-2.77,2.28,2.28,0,0,0-2.77,1.57Z"/><path d="M52.65,305.92c5,1.67,10.69,1.93,15.95,1.7a42.46,42.46,0,0,0,7.63-.95,10.6,10.6,0,0,0,5.15-2.42c2.05-2.05-1.13-5.24-3.18-3.19-.21.22-.23.22,0,0a3.62,3.62,0,0,1-.41.27l-.48.25c-.42.22.33-.11-.18.09a16.8,16.8,0,0,1-2.49.71,36.65,36.65,0,0,1-6.71.73,41,41,0,0,1-14.11-1.56c-2.75-.91-3.93,3.43-1.19,4.34Z"/><path d="M12,234a3.23,3.23,0,0,1,0,.44c0,.66.09-.38,0,.12s-.23,1.2-.36,1.8c-.39,1.71-.84,3.41-1.3,5.11-1.24,4.61-2.57,9.19-3.85,13.78s-2.57,9.22-3.64,13.89a37.8,37.8,0,0,0-1.11,12.49,16.49,16.49,0,0,0,1.9,6.07,15.14,15.14,0,0,1,1.08,2.46A34.83,34.83,0,0,1,6,295.67l.58-2.19A19.13,19.13,0,0,0,.5,301.75c-1.25,3.32-.19,7.1,3.68,7.73a43.84,43.84,0,0,0,22.73-2.83,2.31,2.31,0,0,0,1.57-2.77,2.27,2.27,0,0,0-2.77-1.57,42.43,42.43,0,0,1-17.82,3c-1-.05-2.66.13-3.48-.46.26.19,0,.18,0-.12s0-.32,0-.48a6,6,0,0,1,.43-1.43,15.41,15.41,0,0,1,4.87-6.18,2.28,2.28,0,0,0,.58-2.19A30.61,30.61,0,0,0,8,286.4c-.34-.71-.71-1.39-1.06-2.09,0-.07-.24-.54-.12-.26s-.08-.21-.1-.29a10,10,0,0,1-.36-1.3,25.37,25.37,0,0,1-.16-7l.06-.51c0,.39,0,.25,0,0s.13-.81.21-1.21c.16-.88.34-1.75.53-2.62,2-9.27,4.91-18.35,7.41-27.51.53-1.93,1.05-3.86,1.49-5.8a14.35,14.35,0,0,0,.6-3.79c-.14-2.88-4.64-2.9-4.5,0Z"/><path d="M119.56,235.94c.36.21-.16-.2.14.09s-.06-.16.18.26a3.56,3.56,0,0,1,.38,1.05,14.67,14.67,0,0,1,.38,3.41c.09,2.46-.09,4.93.16,7.38.17,1.57.62,3.09.86,4.65a28.21,28.21,0,0,1,.34,4.77,38,38,0,0,1-1.2,8.82c-1.5,6.25-3.51,12.31-4,18.77a40.7,40.7,0,0,0,.43,11.24,15.25,15.25,0,0,0,2.25,5.24c.61.93,1.92,2.39,1.35,3.56s-2.74,1.85-4,2a10.34,10.34,0,0,1-4.74-.55,16.79,16.79,0,0,1-8.15-6.51c-1.63-2.38-5.53-.13-3.89,2.27,4.1,6,11.55,11,19.09,8.89,3.78-1.06,7.42-4.24,6.06-8.55-.63-2-2.11-3.46-2.94-5.32a14.83,14.83,0,0,1-1-5.47,51.61,51.61,0,0,1,.74-11.84c.64-3.36,1.6-6.64,2.49-9.94a57.24,57.24,0,0,0,1.91-10,36.83,36.83,0,0,0-.92-11.36c0-.16-.17-.83-.15-.71s0-.55-.07-.74c0-.72,0-1.44-.06-2.16,0-1.65,0-3.31-.05-5-.14-2.92-.5-6.61-3.3-8.25-2.5-1.47-4.77,2.42-2.27,3.89Z"/><path d="M63.55,58.34a4.93,4.93,0,0,1,2.28-5.6,8.64,8.64,0,0,1,7.87-.27,4.47,4.47,0,0,1,2,2.8,11.58,11.58,0,0,1,.92,4.37,4.09,4.09,0,0,1-.38,1.21,4.29,4.29,0,0,1-1.53,1.27,6.87,6.87,0,0,1-4,1.25c-1.39-.11-2.89-1.38-4.1-2.27a11.6,11.6,0,0,1-3.32-3.41C62,55.16,58.06,57.43,59.48,60a15.87,15.87,0,0,0,4.5,4.7c1.7,1.27,3.51,2.69,5.65,3.07a10.43,10.43,0,0,0,6.79-1.38,8.63,8.63,0,0,0,4.39-4.68,10.9,10.9,0,0,0-.4-6.58,11.59,11.59,0,0,0-3-5.48c-3.31-2.91-8.9-3-12.77-1.32-4.17,1.85-6.88,6.77-5.44,11.25a2.25,2.25,0,0,0,4.34-1.2Z"/><path d="M67.34,66.23A42.88,42.88,0,0,0,69.92,76,14.5,14.5,0,0,0,77,83.52c3.57,1.54,7.12.62,10-1.87,2.69-2.34,5.25-5.87,4.29-9.61-.73-2.8-5.07-1.61-4.34,1.2.51,2-2.07,4.46-3.5,5.53a4.7,4.7,0,0,1-5.91-.07c-4.34-3-5-8.92-5.89-13.67a2.25,2.25,0,1,0-4.34,1.2Z"/><path d="M67.26,65.63a8.38,8.38,0,0,1-2.13,5.17,7.43,7.43,0,0,1-5.72,2.39,6.26,6.26,0,0,1-5.62-2.29c-1.64-2.14-2.12-5-2.64-7.53a2.25,2.25,0,1,0-4.34,1.19c.69,3.42,1.54,6.83,3.83,9.55a10.7,10.7,0,0,0,9.14,3.56c3.32-.19,6.41-1.22,8.64-3.8a13.07,13.07,0,0,0,3.34-8.24c0-2.9-4.45-2.9-4.5,0Z"/><path d="M60.47,27.24l.13-.18-.35.45a2.91,2.91,0,0,1,.43-.43l-.45.36a3,3,0,0,1,.62-.37l-.54.23a2.91,2.91,0,0,1,.7-.19l-.6.08a2.48,2.48,0,0,1,.72,0l-.59-.08a2.88,2.88,0,0,1,.64.17L60.64,27a2.32,2.32,0,0,1,.46.27L60.65,27a2,2,0,0,1,.25.25l-.35-.45a1.32,1.32,0,0,1,.12.2l-.23-.54a1,1,0,0,1,.07.23l-.08-.6a1.93,1.93,0,0,1,0,.24l.08-.6a1.29,1.29,0,0,1-.08.28l.23-.54a1.35,1.35,0,0,1-.15.26l.35-.46a1.54,1.54,0,0,1-.25.26l.45-.35a1.51,1.51,0,0,1-.37.22l.54-.23a1.89,1.89,0,0,1-.41.1l.6-.08a2.82,2.82,0,0,1-.82,0l.59.08a5.76,5.76,0,0,1-1.29-.3l.54.23a1.35,1.35,0,0,1-.33-.19l.46.36a.91.91,0,0,1-.17-.17l.35.46a1.59,1.59,0,0,1-.13-.22l.23.54a1.05,1.05,0,0,1-.06-.24l.08.6a1,1,0,0,1,0-.25l-.08.6a1.37,1.37,0,0,1,.07-.29l-.22.53a1.13,1.13,0,0,1,.12-.21l-.35.45a.91.91,0,0,1,.17-.17l-.46.35a.64.64,0,0,1,.18-.1l-.54.22a1,1,0,0,1,.25-.06l-.6.08a1,1,0,0,1,.25,0l-.6-.08.25.07-.54-.22a1.43,1.43,0,0,1,.27.15L58.59,27a1.07,1.07,0,0,1,.18.19l-.35-.46a1.62,1.62,0,0,1,.1.18l-.23-.54a.88.88,0,0,1,.05.15l.58-2.19-.09.08.45-.36a.21.21,0,0,1-.1.06l.54-.23a.55.55,0,0,1-.17.05l.6-.08a.54.54,0,0,1-.18,0l.6.08a.2.2,0,0,1-.11,0l.53.23-.05,0a1.61,1.61,0,0,0-.84-.27,1.69,1.69,0,0,0-.89,0,2.3,2.3,0,0,0-1.35,1,2.35,2.35,0,0,0-.23,1.74,2.17,2.17,0,0,0,1,1.34,3.19,3.19,0,0,0,1.42.37A3.09,3.09,0,0,0,61.51,28a4,4,0,0,0,.57-.44,2.92,2.92,0,0,0,.37-.48,2.19,2.19,0,0,0,.27-.83,2.58,2.58,0,0,0-.36-1.67,3.19,3.19,0,0,0-.53-.68,3.07,3.07,0,0,0-.73-.54,3.32,3.32,0,0,0-2-.36,3,3,0,0,0-1.8.87,2.81,2.81,0,0,0-.52.67,3.49,3.49,0,0,0-.33.85,3.33,3.33,0,0,0,.17,2,3.07,3.07,0,0,0,.58.94,3.44,3.44,0,0,0,.73.59,4.11,4.11,0,0,0,.89.38,3.45,3.45,0,0,0,.43.12,12,12,0,0,0,1.56.24,2.69,2.69,0,0,0,.49,0,4.8,4.8,0,0,0,1.06-.18,3.7,3.7,0,0,0,.84-.37,3.45,3.45,0,0,0,.76-.61,3.54,3.54,0,0,0,.54-.73,3,3,0,0,0,.33-.87,3.13,3.13,0,0,0,0-1.49,2.71,2.71,0,0,0-.36-.86,3.91,3.91,0,0,0-1.33-1.29,7.7,7.7,0,0,0-.83-.36,2.64,2.64,0,0,0-.4-.12,5,5,0,0,0-1.4-.12,5,5,0,0,0-1.38.28,6.6,6.6,0,0,0-.86.38,6.23,6.23,0,0,0-.78.57A4.24,4.24,0,0,0,56.59,25a2.25,2.25,0,0,0,.8,3.08,2.35,2.35,0,0,0,1.74.23,2.47,2.47,0,0,0,1.34-1Z"/><path d="M88.83,34.06a5.93,5.93,0,0,0,1.45.09,4,4,0,0,1,.85,0l-.6-.08a1.82,1.82,0,0,1,.4.11l-.54-.23a1.14,1.14,0,0,1,.3.18l-.45-.36.14.14L90,33.44a2.39,2.39,0,0,1,.13.21l-.23-.54a1.8,1.8,0,0,1,0,.19l-.08-.6v.19l.08-.6a.83.83,0,0,1-.06.21l.23-.54a2,2,0,0,1-.11.2l.35-.46a1.44,1.44,0,0,1-.28.27l.46-.35a2.29,2.29,0,0,1-.55.31l.54-.23a4.15,4.15,0,0,1-1,.25l.59-.08a3.09,3.09,0,0,1-.68,0l.6.08a1.64,1.64,0,0,1-.38-.1l.54.23a1.38,1.38,0,0,1-.29-.17l.45.36a1.79,1.79,0,0,1-.27-.28l.35.46-.13-.23.23.53a.72.72,0,0,1-.07-.25l.08.6a.74.74,0,0,1,0-.21l-.08.59a1.33,1.33,0,0,1,0-.19l-.22.54a1,1,0,0,1,.11-.21l-.35.45a1.39,1.39,0,0,1,.21-.21l-.46.36A1.8,1.8,0,0,1,90.2,34l-.53.23a2.41,2.41,0,0,1,.6-.16l-.6.08a1.85,1.85,0,0,1,.47,0l-.6-.08a1.83,1.83,0,0,1,.46.12L89.46,34a1.71,1.71,0,0,1,.23.13l-.45-.35.15.14L89,33.45a1,1,0,0,1,.1.17l-.23-.53a.75.75,0,0,1,0,.16l-.08-.6v.17l.08-.6a.75.75,0,0,1,0,.16l.23-.54a.54.54,0,0,1-.07.13l.35-.45a1.85,1.85,0,0,1-.14.14l.46-.35a2,2,0,0,1-.25.14l.54-.23a2,2,0,0,1-.53.14l.59-.08a3.52,3.52,0,0,1-.65,0,2.27,2.27,0,0,0-1.59.66,2.25,2.25,0,0,0,0,3.18l.46.35a2.16,2.16,0,0,0,1.13.31,5.85,5.85,0,0,0,1.25-.09,3.66,3.66,0,0,0,1.15-.4,2.85,2.85,0,0,0,.65-.49l.11-.11a3.74,3.74,0,0,0,.41-.55,3,3,0,0,0,.26-2.22,3.17,3.17,0,0,0-2.47-2.18,6.56,6.56,0,0,0-.89-.11,5.9,5.9,0,0,0-.93.11,2,2,0,0,0-.35.09,4.5,4.5,0,0,0-.87.38,3.58,3.58,0,0,0-.7.53,2.63,2.63,0,0,0-.56.72,3.25,3.25,0,0,0-.3,2.33,3,3,0,0,0,.16.42,3.75,3.75,0,0,0,.19.41,3.11,3.11,0,0,0,.58.73,3.53,3.53,0,0,0,1.66.91c2.07.42,4.76-.42,5.48-2.59A3.06,3.06,0,0,0,94,31.33a2.07,2.07,0,0,0-.28-.38,2,2,0,0,0-.29-.35,2.86,2.86,0,0,0-.78-.54,3.7,3.7,0,0,0-.91-.34,6,6,0,0,0-1-.1,7,7,0,0,1-1.21,0l.6.08H90a1.72,1.72,0,0,0-.9,0,1.61,1.61,0,0,0-.84.27,2.27,2.27,0,0,0-1,1.34A2.3,2.3,0,0,0,87.48,33a2.18,2.18,0,0,0,1.35,1Z"/><path d="M59.51,77.12A35.31,35.31,0,0,0,62,82.07a6.28,6.28,0,0,0,5.28,2.71,10.28,10.28,0,0,0,8.8-4.93,2.25,2.25,0,1,0-3.88-2.27L72,78c-.11.16-.25.31,0,.07-.21.24-.42.47-.65.69s-.24.2-.35.31.41-.27-.06,0q-.39.27-.81.51l-.33.17c-.52.27.25-.07-.07,0a9.43,9.43,0,0,1-.9.29l-.46.11c-.42.11.22,0,0,0s-.63.05-.94,0-.33,0-.5,0c.22,0,.21,0,0,0l-.49-.13c-.22,0,.23.15-.1-.06s.09.17-.09-.06-.22-.22-.33-.34c.21.24.06.07,0-.09s-.17-.28-.25-.42c-.77-1.39-1.4-2.86-2.09-4.29a2.26,2.26,0,0,0-3.08-.8,2.3,2.3,0,0,0-.81,3.07Z"/><path class="cls-1" d="M21,91.93c12,6.76,34.46,17.14,48.22,18.16a53.44,53.44,0,0,0,14.18-.56c9-1.76,23.92-7.79,31.67-12.68L109.18,86.7c-7,3.75-14.16,7.55-22,9-7.12,1.35-14.45.7-21.66,0-11.27-1-32.17-8.6-41-15.66Z"/><path d="M19.83,93.87a181.26,181.26,0,0,0,35.83,15.69,64.22,64.22,0,0,0,19.7,3c7.14-.09,13.91-2,20.58-4.36a105.94,105.94,0,0,0,20.23-9.4,2.29,2.29,0,0,0,.81-3.07l-5.86-10.15a2.3,2.3,0,0,0-3.08-.81c-5.84,3.12-11.73,6.28-18.16,8-6.85,1.87-13.95,1.6-21,1A94,94,0,0,1,39.8,86.06c-4.7-2-9.79-4.47-13.68-7.55a2.29,2.29,0,0,0-3.76,1L18.8,91.33c-.84,2.78,3.5,4,4.33,1.19L26.7,80.7l-3.76,1a60.87,60.87,0,0,0,12.78,7.44,124.76,124.76,0,0,0,16.11,6A75.68,75.68,0,0,0,66.5,98.1c7.39.66,14.86,1.16,22.18-.39,7.7-1.63,14.75-5.39,21.64-9.06l-3.08-.81L113.09,98l.81-3.08A96.62,96.62,0,0,1,97.08,103c-6,2.32-12.38,4.53-18.88,5a56.39,56.39,0,0,1-19.3-2.12,142.5,142.5,0,0,1-18.46-6.75C34.19,96.33,28.05,93.32,22.1,90,19.57,88.56,17.3,92.45,19.83,93.87Z"/></g></g></svg>